<svg width="78" height="96" viewBox="0 0 78 96" fill="none" xmlns="http://www.w3.org/2000/svg">
<path fill-rule="evenodd" clip-rule="evenodd" d="M26.1313 32.007C25.1765 32.007 24.4024 32.781 24.4024 33.7359V94.2487C24.4024 95.2035 25.1765 95.9776 26.1313 95.9776H71.5159C72.4708 95.9776 73.2449 95.2035 73.2449 94.2487V33.7359C73.2449 32.781 72.4708 32.007 71.5159 32.007H26.1313ZM61.5745 64.2084C61.5745 71.2505 55.8658 76.9593 48.8236 76.9593C41.7815 76.9593 36.0727 71.2505 36.0727 64.2084C36.0727 57.1663 41.7815 51.4575 48.8236 51.4575C55.8658 51.4575 61.5745 57.1663 61.5745 64.2084ZM56.3877 64.2084C56.3877 68.3859 53.0012 71.7725 48.8236 71.7725C44.6461 71.7725 41.2595 68.3859 41.2595 64.2084C41.2595 60.0309 44.6461 56.6443 48.8236 56.6443C53.0012 56.6443 56.3877 60.0309 56.3877 64.2084ZM67.1936 45.8384H30.4537V82.5783H67.1936V45.8384ZM30.4537 43.6773H28.2925V45.8384V82.5783V84.7395H30.4537H67.1936H69.3547V82.5783V45.8384V43.6773H67.1936H30.4537ZM39.5306 35.8971H28.2925V40.2194H39.5306V35.8971ZM45.1496 40.2194C46.3432 40.2194 47.3108 39.2518 47.3108 38.0582C47.3108 36.8647 46.3432 35.8971 45.1496 35.8971C43.9561 35.8971 42.9885 36.8647 42.9885 38.0582C42.9885 39.2518 43.9561 40.2194 45.1496 40.2194ZM45.1496 39.3549C45.8658 39.3549 46.4463 38.7744 46.4463 38.0582C46.4463 37.3421 45.8658 36.7615 45.1496 36.7615C44.4335 36.7615 43.8529 37.3421 43.8529 38.0582C43.8529 38.7744 44.4335 39.3549 45.1496 39.3549ZM69.3547 38.0582C69.3547 39.2518 68.3872 40.2194 67.1936 40.2194C66 40.2194 65.0324 39.2518 65.0324 38.0582C65.0324 36.8647 66 35.8971 67.1936 35.8971C68.3872 35.8971 69.3547 36.8647 69.3547 38.0582ZM68.4903 38.0582C68.4903 38.7744 67.9097 39.3549 67.1936 39.3549C66.4774 39.3549 65.8969 38.7744 65.8969 38.0582C65.8969 37.3421 66.4774 36.7615 67.1936 36.7615C67.9097 36.7615 68.4903 37.3421 68.4903 38.0582Z" fill="white"/>
<path d="M63 30H68V33H63V30Z" fill="white"/>
<path d="M10.5723 41.5166H24.4038V45.4067H10.5723V41.5166Z" fill="white"/>
<path d="M13.5977 32.4394C13.5977 31.4845 14.3717 30.7104 15.3266 30.7104H17.92C18.8749 30.7104 19.6489 31.4845 19.6489 32.4394V56.2123C19.6489 57.1671 18.8749 57.9412 17.92 57.9412H15.3266C14.3717 57.9412 13.5977 57.1671 13.5977 56.2123V32.4394Z" fill="white"/>
<path d="M13.166 51.0253C13.166 50.0705 13.9401 49.2964 14.895 49.2964H18.3528C19.3077 49.2964 20.0818 50.0705 20.0818 51.0253V53.1865C20.0818 54.1414 19.3077 54.9154 18.3528 54.9154H14.895C13.9401 54.9154 13.166 54.1414 13.166 53.1865V51.0253Z" fill="white"/>
<path fill-rule="evenodd" clip-rule="evenodd" d="M16.8396 32.4395C25.7915 32.4395 33.0484 25.1826 33.0484 16.2307C33.0484 7.27889 25.7915 0.0219727 16.8396 0.0219727C7.88778 0.0219727 0.630859 7.27889 0.630859 16.2307C0.630859 25.1826 7.88778 32.4395 16.8396 32.4395ZM16.84 29.8461C24.3596 29.8461 30.4554 23.7503 30.4554 16.2307C30.4554 8.71106 24.3596 2.61521 16.84 2.61521C9.32037 2.61521 3.22452 8.71106 3.22452 16.2307C3.22452 23.7503 9.32037 29.8461 16.84 29.8461Z" fill="white"/>
<path d="M21.8087 87.3337H26.1311V91.2238H21.8087V87.3337Z" fill="white"/>
<path d="M19.6486 86.9018H21.3775V87.334H19.6486V86.9018Z" fill="white"/>
<path d="M19.6486 91.6565H21.3775V92.0887H19.6486V91.6565Z" fill="white"/>
<path d="M19.6486 87.7667H21.3775V88.6312H19.6486V87.7667Z" fill="white"/>
<path d="M19.6486 89.0631H21.3775V89.9276H19.6486V89.0631Z" fill="white"/>
<path d="M19.6486 90.3596H21.3775V91.2241H19.6486V90.3596Z" fill="white"/>
<path d="M23.5392 86.0374H24.8359V87.3341H23.5392V86.0374Z" fill="white"/>
<path d="M23.5392 91.224H24.8359V92.5207H23.5392V91.224Z" fill="white"/>
<path d="M71.5178 87.334H75.8402V91.2241H71.5178V87.334Z" fill="white"/>
<path d="M76.2715 86.9019H78.0004V87.3341H76.2715V86.9019Z" fill="white"/>
<path d="M76.2715 91.6567H78.0004V92.089H76.2715V91.6567Z" fill="white"/>
<path d="M76.2715 87.7671H78.0004V88.6316H76.2715V87.7671Z" fill="white"/>
<path d="M76.2715 89.0635H78.0004V89.9279H76.2715V89.0635Z" fill="white"/>
<path d="M76.2715 90.3599H78.0004V91.2243H76.2715V90.3599Z" fill="white"/>
<path d="M72.8166 86.0375H74.1133V87.3342H72.8166V86.0375Z" fill="white"/>
<path d="M72.8166 91.2242H74.1133V92.5209H72.8166V91.2242Z" fill="white"/>
<circle cx="17" cy="16" r="14" fill="white"/>
</svg>
