<?xml version="1.0" encoding="utf-8"?>
<!-- Generator: Adobe Illustrator 21.1.0, SVG Export Plug-In . SVG Version: 6.00 Build 0)  -->
<svg version="1.1" id="Layer_1" xmlns="http://www.w3.org/2000/svg" xmlns:xlink="http://www.w3.org/1999/xlink" x="0px" y="0px"
	 viewBox="0 0 23.9 22" style="enable-background:new 0 0 23.9 22;" xml:space="preserve">
<style type="text/css">
	.st0_info{fill:#DC2829;}
	.st1_info{fill:none;stroke:#FFFFFF;stroke-miterlimit:10;}
</style>
<g>
	<path class="st0_info" d="M16.3,1.4H7.5c-0.7,0-1.3,0.4-1.7,1L1.3,10c-0.4,0.6-0.4,1.3,0,2l4.4,7.7c0.4,0.6,1,1,1.7,1h8.8
		c0.7,0,1.3-0.4,1.7-1l4.4-7.7c0.4-0.6,0.4-1.3,0-2L18,2.3C17.6,1.7,17,1.4,16.3,1.4z"/>
	<path class="st1_info" d="M12,8.2c-0.4,0-0.8-0.1-1.1-0.4c-0.3-0.3-0.5-0.7-0.5-1.1c0-0.5,0.2-0.8,0.5-1.1s0.7-0.4,1.1-0.4
		c0.4,0,0.8,0.1,1.1,0.4c0.3,0.3,0.5,0.7,0.5,1.1s-0.2,0.9-0.5,1.1C12.8,8.1,12.4,8.2,12,8.2z M13.5,11.1v4.8c0,0.3-0.2,0.6-0.5,0.8
		c-0.3,0.2-0.7,0.3-1.1,0.3c-0.5,0-0.8-0.1-1.1-0.3c-0.3-0.2-0.4-0.4-0.4-0.8v-4.8c0-0.3,0.1-0.6,0.4-0.8c0.3-0.2,0.7-0.3,1.1-0.3
		c0.5,0,0.9,0.1,1.1,0.3C13.4,10.5,13.5,10.8,13.5,11.1z"/>
</g>
</svg>
