<svg xmlns="http://www.w3.org/2000/svg" width="182.214" height="180" viewBox="0 0 182.214 180">
  <g id="Component_11_2" data-name="Component 11 – 2" transform="translate(0 0)">
    <path id="Path_38" data-name="Path 38" d="M95.006,78.89l16.1-3.5L150.551,20.93,143.167.625,99.587,33.532,45.05,36.308,28.7,48.655Z" transform="translate(-1.47 -0.625)"/>
    <path id="Path_39" data-name="Path 39" d="M148.416,41.827l3.306,81.8,15.376,6.953,22.725-17.159L158.648,27.7Z" transform="translate(-7.609 -2.014)"/>
    <path id="Path_40" data-name="Path 40" d="M128.826,125.4,50.895,104.443,20.069,126.9l21.475,59.052,43.58-32.906,54.537-2.776L156.2,137.776Z" transform="translate(-1.027 -5.949)"/>
    <path id="Path_41" data-name="Path 41" d="M59.371,89.1,85.8,83.347,22.921,54.677,0,71.986l17.355,47.721Z" transform="translate(0.002 -3.397)"/>
    <path id="Path_42" data-name="Path 42" d="M64.317,93.237l-6.564,4.782,74.609,20.06.176.079,9.7,4.386L139.27,49.134l-23.9,32.989Z" transform="translate(-2.96 -3.113)"/>
  </g>
</svg>
