<svg id="Component_18_2" data-name="Component 18 – 2" xmlns="http://www.w3.org/2000/svg" width="111.942" height="180" viewBox="0 0 111.942 180">
  <rect id="Rectangle_50" data-name="Rectangle 50" width="111.942" height="14.83"/>
  <rect id="Rectangle_51" data-name="Rectangle 51" width="111.942" height="14.83" transform="translate(0 165.17)"/>
  <path id="Path_48" data-name="Path 48" d="M102.051,93.877l-3.343-2.255a3.039,3.039,0,0,1-.167-4.919C117.525,71.985,134.7,54.729,139.1,23.96a3.048,3.048,0,0,0-3.021-3.471l-94.744.065a3.051,3.051,0,0,0-3.014,3.479c3.4,24.122,10.816,46.648,38.957,63.3h0a3.04,3.04,0,0,1,.139,4.941c-20.543,15.631-38.451,33.034-39.51,66.442a3.057,3.057,0,0,0,3.048,3.154h95.484a3.052,3.052,0,0,0,3.048-3.145c-1.017-32.186-17.673-49.519-37.258-64.721C102.17,93.961,102.111,93.918,102.051,93.877Z" transform="translate(-32.725 -1.18)"/>
</svg>
