<svg id="Component_16_2" data-name="Component 16 – 2" xmlns="http://www.w3.org/2000/svg" width="179.575" height="180" viewBox="0 0 179.575 180">
  <path id="Path_45" data-name="Path 45" d="M179.256,90.426a36.253,36.253,0,0,0-7.483-19.75V12.964A13.946,13.946,0,0,0,157.828-.982h0a13.946,13.946,0,0,0-13.946,13.946l-4.74,43.52c-.329-.008,4.086-.025,3.756-.025H66.716V45.074a9.6,9.6,0,0,0-18.144-4.39L40.463,56.458h-3.3c-1.8,0-9.207.136-10.939.389L17.92,40.684A9.6,9.6,0,0,0-.225,45.074V75.023c0,41.86.881,48.084,22.354,54.565l23.293,7.288v26.953s-8.541,15.189,1.916,15.189H82.546V136.876h59.679v26.953s-8.637,15.189,1.916,15.189H179.35V92.911h0V90.426Z" transform="translate(0.225 0.982)"/>
</svg>
