<?xml version="1.0" standalone="no"?>
<!DOCTYPE svg PUBLIC "-//W3C//DTD SVG 20010904//EN"
 "http://www.w3.org/TR/2001/REC-SVG-20010904/DTD/svg10.dtd">
<svg version="1.0" xmlns="http://www.w3.org/2000/svg"
 width="347.000000pt" height="346.000000pt" viewBox="0 0 347.000000 346.000000"
 preserveAspectRatio="xMidYMid meet">

<g transform="translate(0.000000,346.000000) scale(0.100000,-0.100000)"
stroke="none">
<path d="M1538 3365 c-724 -99 -1286 -626 -1438 -1350 -30 -145 -38 -404 -16
-553 57 -383 215 -701 481 -967 248 -248 538 -400 900 -472 139 -28 473 -25
615 6 436 93 784 314 1042 661 342 460 421 1083 208 1622 -89 225 -196 384
-380 568 -184 184 -343 291 -568 380 -264 104 -569 142 -844 105z m331 -661
c25 -15 67 -47 94 -72 l47 -46 0 -151 0 -150 -45 -79 c-37 -65 -45 -87 -45
-130 l0 -51 98 -54 c53 -30 118 -74 143 -98 25 -24 53 -43 62 -43 64 0 65 60
2 169 l-45 78 0 142 0 143 35 63 c22 39 44 65 58 69 12 3 69 6 125 6 l104 0
69 -67 69 -66 0 -154 0 -154 -40 -73 c-33 -60 -40 -82 -40 -128 l0 -56 52 -13
c41 -9 65 -24 110 -67 32 -30 69 -74 83 -98 l25 -43 0 -308 0 -309 -92 -90
c-116 -112 -276 -208 -407 -243 -46 -13 -90 -25 -98 -28 -10 -4 -13 7 -13 47
0 86 -22 112 -185 220 l-145 95 0 73 c0 70 2 77 50 158 l50 85 0 147 0 147
-79 58 -80 57 -73 0 c-73 0 -73 0 -151 -56 l-77 -56 0 -131 0 -131 55 -97 c54
-95 55 -98 55 -178 l0 -81 -135 -90 c-146 -98 -175 -132 -175 -208 0 -21 -2
-41 -5 -44 -3 -3 -43 2 -88 12 -66 14 -105 30 -197 84 -136 79 -232 168 -290
269 l-40 69 0 287 0 287 49 48 c27 26 82 67 122 90 l74 42 3 62 c3 57 0 67
-38 131 l-40 69 0 159 0 159 38 36 c75 72 112 88 208 88 74 0 91 -3 131 -26
26 -16 57 -46 74 -73 28 -45 29 -48 29 -197 l0 -152 -40 -68 c-34 -59 -40 -77
-40 -126 0 -51 2 -58 20 -58 12 0 31 18 53 53 29 45 49 61 146 115 l111 63 0
60 c0 52 -5 70 -40 129 l-40 68 0 144 0 144 48 46 c78 76 118 97 186 97 46 1
69 -5 105 -25z"/>
</g>
</svg>
