<svg width="184" height="162" viewBox="0 0 184 162" fill="none" xmlns="http://www.w3.org/2000/svg">
<path fill-rule="evenodd" clip-rule="evenodd" d="M46.7662 1.34063L46.1858 1.34063L45.8979 1.84449L0.663987 81.0038L0.380479 81.4999L0.663987 81.9961L45.8979 161.155L46.1858 161.659L46.7661 161.659L137.234 161.659L137.814 161.659L138.102 161.155L183.336 81.9961L183.62 81.5L183.336 81.0038L145.708 15.1544L143.956 16.1198L181.316 81.5L136.654 159.659L47.3464 159.659L2.68398 81.4999L47.3465 3.34063L136.654 3.34065L137.694 5.16171L139.446 4.1963L138.102 1.84451L137.814 1.34065L137.234 1.34065L46.7662 1.34063Z" fill="white"/>
<circle cx="137" cy="2.99995" r="3" fill="#D72E30"/>
</svg>
