<svg width="207" height="108" viewBox="0 0 207 108" fill="none" xmlns="http://www.w3.org/2000/svg">
<path fill-rule="evenodd" clip-rule="evenodd" d="M6.42 1.8866C0.0570021 5.7666 2.11138e-06 6.22459 2.11138e-06 53.6676L1.04899e-06 54.2706C-9.96167e-05 92.2816 -0.00011905 99.6277 3.6614 103.01C4.53849 103.821 5.62568 104.404 6.97331 105.126L6.97345 105.126L6.97358 105.126L7.062 105.174C10.292 106.906 15.319 107.001 103.784 107.001C109.102 107.001 114.13 107.002 118.884 107.002H118.893H118.902C192.678 107.017 200.529 107.018 203.512 103.208C203.867 102.755 204.153 102.247 204.474 101.679L204.474 101.678C204.647 101.371 204.83 101.045 205.04 100.702C206.898 97.6546 206.993 95.3806 206.993 53.5006C206.993 11.6206 206.898 9.34659 205.04 6.29959C204.829 5.95423 204.646 5.62775 204.472 5.31911L204.472 5.31878C204.153 4.75314 203.868 4.24746 203.515 3.79541C200.534 -0.0168396 192.675 -0.0150237 118.54 0.00210522C113.743 0.00321359 108.669 0.00438608 103.3 0.00459348C13.291 0.00759348 9.376 0.0835954 6.42 1.8866ZM74.9055 47.17C77.1718 50.5801 79.4008 53.6003 79.8582 53.8827C80.3466 54.1847 80.6894 51.6289 80.6894 47.6842C80.6894 41.5637 80.8457 40.9714 82.4655 40.9714C84.143 40.9714 84.2416 41.5637 84.2416 51.628C84.2416 62.2579 84.2363 62.2846 82.1289 62.2846C80.4798 62.2846 79.0678 60.8317 75.6906 55.6606L71.3649 49.0367L70.9209 55.4386C70.5186 61.2429 70.2903 61.8672 68.4787 62.1247C66.5073 62.4045 66.4806 62.2748 66.4806 52.2816C66.4806 46.7126 66.747 41.8888 67.0729 41.5637C68.8206 39.8152 71.1011 41.4483 74.9055 47.17ZM53.2229 58.6453L52.9698 50.0304C52.7283 41.8239 52.62 41.4021 50.6893 41.1277C48.6646 40.8409 48.6628 40.8542 48.9132 51.3403L49.1637 61.8405H56.2681C61.9906 61.8405 63.3724 61.5812 63.3724 60.5085C63.3724 59.5112 62.099 59.1098 58.2981 58.9109L53.2229 58.6453ZM43.8354 51.628C43.8354 61.543 43.7768 61.8485 41.8373 62.1247C39.8596 62.4053 39.8392 62.2997 39.8392 51.628C39.8392 40.9563 39.8596 40.8506 41.8373 41.1312C43.7768 41.4074 43.8354 41.7129 43.8354 51.628ZM24.1891 48.7773C25.594 52.826 26.9926 55.8986 27.2972 55.6055C27.6018 55.3116 28.8496 51.9992 30.0706 48.2436C31.8867 42.6587 32.6548 41.3639 34.2889 41.1312C37.056 40.7387 36.8562 42.355 32.8271 52.9601C29.6257 61.3867 29.322 61.8405 26.8825 61.8405C24.4377 61.8405 24.15 61.4045 21.0143 52.9601C17.066 42.3221 16.8813 40.7405 19.636 41.1312C21.2683 41.363 22.1022 42.7635 24.1891 48.7773ZM93.4711 42.3763C93.1745 41.6037 92.218 40.9714 91.346 40.9714C89.1116 40.9714 88.6818 42.6915 88.6818 51.628C88.6818 60.5644 89.1116 62.2846 91.346 62.2846C92.218 62.2846 93.1745 61.6523 93.4711 60.8797C94.1717 59.0538 94.1717 44.2021 93.4711 42.3763ZM123.001 49.0553C123.291 57.3825 124.002 58.8682 127.701 58.8682C131.196 58.8682 132.064 56.7467 132.064 48.2081C132.064 41.2245 132.131 40.9936 134.063 41.2671C135.945 41.5344 136.076 42.0184 136.314 49.6059C136.654 60.409 135.29 62.4204 127.624 62.4204C120.031 62.4204 118.744 60.5262 118.744 49.3625C118.744 41.1809 118.791 40.99 120.742 41.2671C122.609 41.5326 122.757 42.0415 123.001 49.0553ZM155.059 47.8262C156.559 46.8991 156.232 44.2181 154.417 42.577C153.361 41.6205 151.238 41.1072 148.339 41.1072C143.106 41.1072 140.945 42.8736 140.945 47.1513C140.945 50.374 142.895 51.9681 148.715 53.5017C152.94 54.6153 153.875 57.1765 150.68 58.886C148.224 60.2003 145.866 59.298 144.622 56.5682C143.978 55.1562 143.011 54.4129 142.055 54.5967C139.807 55.0301 139.727 57.3203 141.864 60.0378C143.486 62.0998 144.387 62.4204 148.558 62.4204C154.442 62.4204 156.93 60.4472 156.93 55.7805C156.93 52.2372 155.151 50.7168 149.159 49.1379C145.212 48.098 143.898 45.4205 146.79 44.3104C149.055 43.441 149.636 43.6453 151.915 46.1025C153.104 47.3849 154.519 48.1601 155.059 47.8262ZM106.888 56.0685C105.274 56.0685 104.063 56.065 103.153 56.0301C101.67 60.387 100.901 61.4699 99.4199 61.6808C96.6527 62.0733 96.8525 60.457 100.882 49.852C104.083 41.4253 104.387 40.9715 106.826 40.9715C109.271 40.9715 109.559 41.4075 112.694 49.852C116.643 60.4899 116.827 62.0715 114.073 61.6808C112.64 61.4774 111.823 60.374 110.234 56.0427C109.375 56.0659 108.282 56.0685 106.888 56.0685ZM106.411 47.2065C106.152 47.4569 105.208 49.8987 104.179 52.9388C104.933 52.9497 105.828 52.9603 106.888 52.9603C107.739 52.9603 108.483 52.9535 109.133 52.9452C107.867 49.4498 106.688 46.9403 106.411 47.2065ZM178.227 49.7133C177.711 50.5489 177.092 50.5809 175.712 49.8421C170.103 46.8404 164.815 51.9236 166.15 59.0351C167.056 63.8643 173.254 66.778 176.251 63.7818C177.079 62.9532 177.316 63.1548 177.316 64.6885C177.316 67.5746 173.44 69.1855 171.255 67.2087C169.081 65.2399 166.66 65.3252 166.66 67.3686C166.66 71.2902 176.067 72.3941 179.576 68.8836C181.588 66.8731 181.757 66.0454 181.757 58.1995C181.757 51.2203 181.502 49.597 180.335 49.1494C179.553 48.8492 178.605 49.1032 178.227 49.7133ZM187.199 64.8474C188.527 64.8474 188.912 64.3528 188.701 62.9186C188.346 60.5093 186.808 59.9329 185.366 61.6709C183.987 63.3315 184.862 64.8474 187.199 64.8474ZM176.736 56.8802C176.736 58.8421 175.344 60.4324 173.628 60.4324C171.911 60.4324 170.519 58.8421 170.519 56.8802C170.519 54.9184 171.911 53.328 173.628 53.328C175.344 53.328 176.736 54.9184 176.736 56.8802Z" fill="white"/>
</svg>
