<?xml version="1.0" standalone="no"?>
<!DOCTYPE svg PUBLIC "-//W3C//DTD SVG 20010904//EN"
 "http://www.w3.org/TR/2001/REC-SVG-20010904/DTD/svg10.dtd">
<svg version="1.0" xmlns="http://www.w3.org/2000/svg"
 width="347.000000pt" height="346.000000pt" viewBox="0 0 347.000000 346.000000"
 preserveAspectRatio="xMidYMid meet">

<g transform="translate(0.000000,346.000000) scale(0.100000,-0.100000)"
stroke="none">
<path d="M1515 3399 c-106 -14 -263 -54 -372 -95 -354 -131 -675 -400 -868
-729 -304 -517 -311 -1164 -19 -1687 397 -709 1244 -1038 2014 -782 581 193
995 660 1132 1279 20 87 22 129 22 330 0 200 -3 243 -22 332 -150 687 -658
1194 -1340 1334 -112 24 -431 34 -547 18z m903 -600 c108 -54 182 -167 182
-278 0 -74 -30 -158 -134 -368 -102 -207 -118 -226 -187 -226 -62 0 -87 26
-156 159 -112 217 -156 329 -161 415 -4 68 -1 84 22 135 35 77 87 129 161 165
50 24 73 29 136 29 65 0 85 -5 137 -31z m-1409 -544 l176 -174 121 119 c66 66
128 120 137 120 24 0 57 -36 57 -62 0 -14 -40 -62 -117 -140 l-117 -119 407
-407 407 -407 87 88 88 87 -298 298 c-182 182 -297 305 -297 316 0 28 29 56
59 56 20 0 67 -41 213 -187 l188 -188 78 78 c42 42 84 77 92 77 28 0 60 -30
60 -57 0 -18 -21 -47 -75 -102 l-75 -77 68 -67 67 -67 145 145 c80 80 153 148
163 151 28 9 67 -22 67 -54 0 -20 -20 -47 -82 -109 l-83 -83 83 -83 c88 -88
100 -118 62 -152 -30 -27 -58 -13 -145 75 l-80 80 -152 -152 -152 -152 44 -48
c49 -52 55 -78 25 -108 -38 -38 -56 -27 -222 137 l-158 157 -153 -152 c-84
-84 -158 -152 -164 -152 -21 0 -63 42 -63 62 0 14 52 74 150 173 l150 151
-120 119 -120 120 -230 -230 -229 -229 79 -82 c47 -48 80 -90 80 -102 0 -20
-43 -62 -63 -62 -5 0 -47 37 -93 82 l-84 82 -84 -82 c-46 -45 -91 -82 -100
-82 -23 0 -56 36 -56 62 0 16 64 86 217 240 l218 218 -148 148 c-86 87 -147
155 -147 166 0 28 29 56 58 56 19 0 61 -35 171 -145 l146 -145 93 93 92 92
-350 350 c-365 366 -372 374 -333 417 37 41 58 27 242 -157z"/>
<path d="M2203 2703 c-53 -18 -106 -79 -123 -139 -11 -39 -10 -54 4 -107 17
-63 184 -417 196 -417 12 0 167 332 189 405 23 75 21 105 -10 167 -31 62 -112
109 -183 107 -17 0 -50 -7 -73 -16z m121 -152 c25 -28 17 -72 -16 -91 -25 -13
-31 -13 -54 0 -39 22 -47 53 -23 84 25 31 68 34 93 7z"/>
</g>
</svg>
