<svg width="1920" height="974" viewBox="0 0 1920 974" fill="none" xmlns="http://www.w3.org/2000/svg">
<path fill-rule="evenodd" clip-rule="evenodd" d="M800.444 152.891C801.693 242.256 800.792 335.143 798.448 359.316C794.421 400.734 794.848 403.385 805.834 405.569C816.153 407.621 815.971 407.974 804.249 408.664C789.076 409.554 774.707 421.874 774.707 433.994C774.707 438.538 768.935 446.109 761.873 450.824C749.21 459.278 749.182 459.552 759.905 471.473C765.883 478.115 775.506 483.554 781.296 483.554C790.314 483.554 791.939 488.662 792.675 519.185C793.143 538.785 794.597 547.765 795.904 539.139C797.21 530.513 800.735 523.461 803.741 523.461C807.089 523.461 809.023 583.037 808.743 677.76C808.401 794.615 806.639 831.513 801.482 829.819C797.643 828.554 793.234 811.616 791.38 790.967C788.357 757.382 787.998 759.069 787.04 811.365C785.209 910.997 774.445 937.866 759.626 879.806C755.741 864.567 748.554 849.859 743.666 847.128C737.032 843.416 734.779 832.704 734.779 804.849C734.779 772.336 733.313 767.159 723.371 764.559C713.223 761.908 711.957 756.76 711.911 718.056C711.889 694.123 710.269 661.29 708.324 645.099C704.975 617.255 705.517 615.562 718.357 613.743C730.056 612.09 731.927 608.698 731.927 589.103C731.927 572.256 729.423 565.894 722.247 564.514C714.227 562.969 713.098 565.934 715.67 581.794C718.357 598.339 716.766 601.856 703.966 607.689C687.059 615.385 686.717 618.834 692.866 719.259C695.638 764.576 698.535 780.009 704.274 780.009C709.567 780.009 711.963 787.888 711.963 805.293C711.963 837.778 720.593 860.166 734.522 863.803C744.967 866.534 755.724 893.506 752.758 909.543C752.045 913.369 766.322 924.913 784.478 935.198L817.488 953.892L781.176 955.608C761.206 956.548 743.723 956.178 742.326 954.781C740.928 953.384 738.293 937.786 736.467 920.119C734.642 902.451 730.552 886.391 727.381 884.436C723.571 882.081 722.937 893.745 725.504 918.807L729.394 956.742H684.424H639.459L635.825 918.26C630.874 865.879 631.171 808.269 636.384 809.643C648.517 812.847 666.336 800.943 666.382 789.604C666.405 782.757 668.047 763.687 670.027 747.228C672.514 726.533 671.618 717.297 667.123 717.297C662.999 717.297 660.626 729.56 660.626 750.894C660.626 774.097 658.208 785.419 652.806 787.489C644.079 790.835 639.847 759.542 633.093 641.747C629.294 575.438 629.38 574.754 641.752 574.759C648.625 574.765 655.647 572.513 657.352 569.748C659.063 566.989 666.473 563.579 673.826 562.177C685.239 559.993 686.819 561.561 684.652 572.895C681.988 586.828 690.864 590.329 705.443 581.099C711.187 577.456 711.455 575.13 706.481 572.057C702.791 569.777 701.194 564.229 702.922 559.726C707.246 548.46 691.291 543.46 674.875 550.934C662.571 556.539 661.168 555.689 659.554 541.704C658.048 528.683 655.407 526.585 642.39 528.107C628.689 529.704 627.126 528.142 628.13 513.855C629.129 499.574 627.166 497.607 610.345 495.993C587.375 493.787 575.174 502.692 579.344 518.621C582.002 528.78 580.599 529.875 569.487 526.351C553.966 521.426 545.558 531.813 550.179 550.205C553.145 562.017 552.306 562.399 536.523 556.447C515.127 548.375 499.823 553.665 504.769 567.428C506.788 573.032 506.337 575.717 503.771 573.397C495.785 566.156 483.801 581.082 483.801 598.27C483.801 608.755 486.767 614.678 492.02 614.678C496.544 614.678 501.529 616.765 503.103 619.313C508.066 627.335 491.644 751.646 484.708 758.579C480.994 762.29 478.097 782.164 478.097 803.954C478.097 826 475.638 842.721 472.393 842.721C469.255 842.721 466.689 838.793 466.689 833.993C466.689 829.187 462.838 823.782 458.132 821.98C451.493 819.432 449.576 808.247 449.576 771.988C449.576 744.081 446.907 722.611 442.943 718.649C439.292 715 435.122 690.753 433.679 664.773C432.236 638.788 428.283 612.398 424.895 606.127C421.507 599.855 418.615 590.967 418.466 586.372C418.324 581.777 409.22 575.364 398.24 572.12C387.26 568.876 375.264 564.264 371.585 561.881C359.994 554.361 306.405 546.191 292.133 549.771C284.609 551.658 278.455 556.772 278.455 561.134C278.455 573.824 268.707 570.295 264.936 556.242C263.048 549.19 261.057 530.587 260.527 514.909L259.552 486.404L256.169 514.875L252.787 543.352L212.858 549.082C177.864 554.11 172.702 556.402 171.104 567.644C170.106 574.702 167.134 580.472 164.511 580.472C161.887 580.472 161.185 574.936 162.959 568.169C165.76 557.462 164.391 556.345 152.441 559.537C144.889 561.561 132.927 563.249 125.871 563.289C116.306 563.351 113.037 566.709 113.037 576.481C113.037 583.693 110.647 592.028 107.727 595.009C104.801 597.985 101.92 618.384 101.315 640.333C100.716 662.282 97.0659 685.371 93.2099 691.643C89.3597 697.914 84.6938 726.134 82.8457 754.354C80.9918 782.575 75.5958 815.926 70.8386 828.468C66.0872 841.011 62.0886 860.896 61.9517 872.652C61.7178 892.451 60.4629 894.031 44.9251 894.031C35.6959 894.031 26.6893 896.391 24.9096 899.27C21.008 905.581 45.4328 913.483 97.3511 922.696C132.22 928.881 135.853 930.814 135.853 943.134C135.853 956.72 135.751 956.742 67.4048 956.742C-8.20244 956.742 -24.3905 965.134 40.3105 970.784C124.776 978.161 1917.23 971.565 1919.8 963.869C1921.53 958.675 1912.37 956.708 1886.05 956.617C1847.14 956.48 1833.92 949.804 1815.75 921.111L1805.83 905.433L1847.84 904.971L1889.85 904.509L1867.03 893.717C1854.48 887.782 1838.54 882.862 1831.61 882.777L1818.99 882.628L1818.98 758.63L1818.96 634.632L1804.17 621.804C1786.24 606.241 1786.05 606.229 1762.93 620.316C1745.54 630.92 1737.47 648.885 1750.1 648.885C1753.24 648.885 1755.8 646.559 1755.8 643.719C1755.8 640.875 1760.94 639.894 1767.21 641.53C1774.34 643.394 1778.45 649.073 1778.17 656.678C1777.92 663.365 1776.42 665.617 1774.83 661.678C1770.04 649.791 1761.51 659.848 1761.51 677.39C1761.51 699.151 1771.49 704.692 1774.53 684.613C1775.84 675.936 1777.26 684.231 1777.68 703.045C1778.71 748.944 1772.6 758.026 1755 736.761C1717.33 691.261 1684 666.17 1640.7 650.732C1616.6 642.14 1598.14 633.075 1599.68 630.596C1601.21 628.11 1599.11 625.784 1595 625.425C1590.89 625.06 1583.68 624.421 1578.98 623.999C1572.5 623.418 1570.42 615.59 1570.42 591.748C1570.42 567.736 1567.38 556.39 1557.59 543.945C1550.53 534.966 1544.67 519.63 1544.58 509.864C1544.44 494.99 1543.46 493.736 1538.57 502.128C1535.35 507.641 1534.32 514.71 1536.25 517.845C1539.3 522.771 1520.81 555.159 1510.27 563.369C1508.26 564.936 1509.98 573.915 1514.09 583.322C1521.35 599.907 1521.69 600.032 1525.3 587.478C1528.25 577.251 1530.69 575.899 1536.89 581.048C1546.65 589.143 1546.89 599.992 1537.62 614.929C1531.85 624.239 1531.95 627.334 1538.12 631.177C1547.45 636.975 1544.4 663.702 1534.64 661.712C1525.9 659.933 1525.31 675.662 1534 678.559C1537.49 679.722 1541.09 694.687 1541.99 711.813C1542.88 728.939 1545.38 774.382 1547.54 812.79C1551.06 875.514 1550.5 882.628 1542.03 882.628C1534.13 882.628 1532.82 876.853 1533.91 846.997C1536.3 781.714 1527.54 711.608 1516.99 711.511C1509.59 711.442 1509.26 710.416 1515.42 706.522C1526.03 699.801 1518.54 667.527 1504.31 658.645C1498.32 654.905 1493.42 647.328 1493.42 641.81C1493.42 636.297 1490.05 631.781 1485.93 631.781C1481.81 631.781 1471.2 624.227 1462.35 614.992L1446.25 598.202L1476.97 606.372C1512.72 615.887 1521.94 616.559 1521.94 609.678C1521.94 605.237 1510.11 599.354 1449.56 573.648C1440.74 569.902 1430.76 566.658 1427.39 566.436C1415.4 565.643 1386.6 525.975 1382.74 504.933C1376.6 471.479 1363.89 479.169 1367.12 514.385C1367.67 520.365 1360.03 542.172 1350.15 562.844C1340.27 583.516 1329.52 606.223 1326.25 613.31L1320.31 626.2L1307.04 613.743C1298.23 605.465 1293.78 594.816 1293.78 581.994C1293.78 570.58 1291.44 564.132 1288.07 566.219C1284.94 568.157 1282.37 577.536 1282.37 587.056C1282.37 596.577 1277.66 611.178 1271.9 619.501C1261.07 635.139 1260.82 683.091 1271.56 683.091C1276.37 683.091 1278.97 674.471 1277.24 664.255C1276.34 658.981 1291.05 643.183 1296.86 643.183C1299 643.183 1299.09 652.014 1297.07 662.812L1293.38 682.435L1314.97 680.149L1336.56 677.857L1315.17 684.328C1295.94 690.149 1293.78 692.754 1293.78 710.086C1293.78 721.493 1291.44 727.93 1288.07 725.849C1284.94 723.911 1282.37 717.349 1282.37 711.26C1282.37 688.923 1271.55 701.009 1268.03 727.274C1262.81 766.235 1258.87 774.576 1253.9 757.205C1249.84 743.043 1249.8 743.061 1247.27 760.055L1244.72 777.159L1239.03 757.541C1232.87 736.322 1221.72 730.906 1175 726.419C1161.43 725.119 1149.69 723.175 1148.9 722.098C1140.44 710.507 1128.72 675.697 1128.87 662.613C1129.14 638.663 1122.19 608.977 1116.31 608.977C1113.52 608.977 1111.21 613.464 1111.16 618.954C1111.11 624.444 1108.48 632.779 1105.31 637.482C1101.13 643.691 1099.78 637.431 1100.4 614.678C1100.88 597.432 1098.18 570.495 1094.41 554.817C1090.64 539.139 1085.53 514.767 1083.05 500.657C1078.37 473.987 1077.39 476.917 1073.55 529.162C1072.28 546.408 1068.91 567.331 1066.06 575.654C1062.9 584.873 1063.01 600.277 1066.33 615.049C1072.51 642.528 1063.41 661.934 1056.76 635.459C1052.88 620.043 1043.15 614.667 1042.36 627.506C1042.12 631.428 1040.71 639.763 1039.22 646.034C1036.68 656.746 1034.85 671.449 1032.3 701.619C1031.51 710.946 1029.91 712.377 1026.41 706.87C1023.66 702.543 1002.35 696.905 976.722 693.724C952.041 690.656 929.898 685.092 927.519 681.346C925.135 677.601 922.922 659.146 922.602 640.333C921.9 599.593 913.59 539.891 912.278 566.219C911.188 588.168 900.413 574.092 900.282 550.541C900.151 526.728 891.087 531.807 885.03 559.093C881.989 572.787 876.673 582.701 872.811 581.897C869.047 581.116 865.807 582.399 865.607 584.748C862.681 619.153 864.364 649.329 869.977 663.137C875.201 675.976 877.01 677.401 877.243 668.838C877.5 659.369 878.493 658.884 883.084 665.988C886.125 670.691 888.846 673.257 889.125 671.689C889.405 670.121 890.768 662.721 892.148 655.247C894.287 643.645 893.386 642.705 886.016 648.816C878.955 654.677 877.38 654.415 877.38 647.397C877.38 637.317 899.894 629.678 900.83 639.444C902.187 653.605 898.816 674.682 894.766 677.39C892.422 678.958 888.994 695.251 887.146 713.592C884.026 744.588 884.573 746.743 894.846 744.058C901.377 742.354 905.901 744.053 905.901 748.214C905.901 752.091 900.385 755.056 893.643 754.805C886.9 754.56 880.164 758.203 878.669 762.906C876.519 769.685 877.477 770.021 883.301 764.542C893.654 754.799 903.813 776.121 902.895 805.664C902.501 818.206 901.737 843.371 901.189 861.586C900.02 900.507 888.788 901.185 888.788 862.338C888.788 836.951 877.962 825.749 876.719 849.847C876.222 859.499 875.413 860.206 873.45 852.698C868.317 833.069 860.262 843.211 859.869 869.801C859.39 901.909 854.998 913.448 842.472 915.489C830.698 917.405 827.618 877.167 822.507 654.529L818.771 491.985L838.097 483.496C858.466 474.54 869.138 449.347 852.562 449.347C847.754 449.347 842.432 441.913 840.304 432.244C838.239 422.837 834.811 415.141 832.689 415.141C819.547 415.141 815.571 371.602 812.81 197.394C811.054 86.4911 807.494 6.8357 804.015 0.707046C799.965 -6.43069 798.87 40.2041 800.444 152.891ZM244.23 423.692C240.323 428.396 233.592 432.244 229.274 432.244C224.951 432.244 221.414 434.809 221.414 437.945C221.414 441.081 221.42 445.539 221.42 447.848C221.426 450.162 230.41 452.084 241.384 452.124C260.111 452.192 261.343 451.057 261.343 433.669C261.343 413.618 255.45 410.181 244.23 423.692ZM619.095 519.807C618.125 529.265 621.371 532.417 633.532 533.814C644.815 535.114 649.218 538.82 649.218 547.029C649.218 555.672 646.572 557.599 638.289 554.971C632.277 553.061 625.598 554.349 623.447 557.833C621.291 561.316 614.019 566.39 607.282 569.11C598.851 572.507 597.882 574.161 604.168 574.411C613.882 574.793 620.59 627.671 620.664 704.47C620.681 724.401 623.213 740.102 626.402 740.102C629.539 740.102 631.804 748.442 631.433 758.63L630.754 777.159L626.037 760.055C623.196 749.748 621.765 784.878 622.438 848.422L623.55 953.892H602.16C590.398 953.892 580.462 951.948 580.085 949.576C578.819 941.577 586.77 800.208 590.022 772.883C592.052 755.848 591.043 745.803 587.306 745.803C584.038 745.803 580.422 759.274 579.269 775.733L577.176 805.664L576.121 770.032C575.317 742.844 576.954 734.401 583.023 734.401C589.331 734.401 591.168 720.49 591.881 667.413C592.372 630.567 593.045 596.577 593.376 591.874C595.537 560.997 592.041 551.966 577.918 551.966C569.042 551.966 563.657 548.734 563.657 543.415C563.657 538.096 569.042 534.863 577.918 534.863C589.052 534.863 592.178 531.95 592.178 521.563C592.178 504.716 595.805 501.181 609.444 504.744C616.483 506.586 619.899 511.916 619.095 519.807ZM889.901 514.909C890.015 524.316 891.293 527.475 892.741 521.927C894.19 516.38 894.093 508.684 892.53 504.824C890.967 500.965 889.787 505.503 889.901 514.909ZM1547.61 546.265C1549.55 549.401 1546.98 551.966 1541.9 551.966C1536.83 551.966 1534.26 549.401 1536.2 546.265C1538.14 543.13 1540.7 540.564 1541.9 540.564C1543.1 540.564 1545.67 543.13 1547.61 546.265ZM249.923 561.943C249.912 564.292 242.211 566.493 232.811 566.823C223.405 567.16 215.71 565.238 215.71 562.548C215.71 559.862 223.411 557.667 232.822 557.667C242.234 557.667 249.929 559.594 249.923 561.943ZM340.726 566.977C342.032 568.129 330.972 569.07 316.147 569.07C299.092 569.07 290.525 566.909 292.823 563.192C296.023 558.015 333.955 561.008 340.726 566.977ZM1549.64 562.741C1553.9 565.444 1554.99 569.121 1552.06 570.934C1544.36 575.689 1521.49 568.705 1525.19 562.719C1529.12 556.362 1539.59 556.373 1549.64 562.741ZM201.45 569.07C199.511 572.205 194.229 574.771 189.705 574.771C185.182 574.771 181.486 572.205 181.486 569.07C181.486 565.934 186.773 563.369 193.23 563.369C199.687 563.369 203.389 565.934 201.45 569.07ZM546.488 586.281C541.765 595.101 542.9 598.761 552.118 604.519C558.467 608.481 563.657 615.1 563.657 619.239C563.657 623.372 560.805 624.991 557.315 622.836C544.954 615.197 541.012 635.504 540.927 707.378C540.847 773.128 541.936 781.058 552.249 789.883C558.524 795.254 563.657 803.076 563.657 807.266C563.657 811.513 566.532 813.11 570.149 810.88C574.94 807.916 575.602 823.856 572.67 871.831C567.183 961.588 569.858 956.742 525.771 956.742H488.649L492.653 904.007C497.508 840.07 489.465 842.196 480.857 907.132L474.651 953.892L470.516 915.438C467.025 883.01 468.212 872.959 478.085 851.301C490.44 824.192 496.144 817.961 491.159 837.02C489.488 843.394 490.982 848.422 494.541 848.422C498.626 848.422 500.913 834.095 500.913 808.515C500.913 774.308 502.339 768.607 510.895 768.607C525.372 768.607 529.947 611.001 515.629 605.511C502.048 600.306 504.814 588.054 519.451 588.573C529.524 588.926 531.989 586.224 530.893 576.013C529.678 564.634 530.939 563.773 540.95 569.127C550.127 574.041 551.228 577.433 546.488 586.281ZM581.403 647.476C578.984 688.821 574.529 720.114 570.485 724.156C566.732 727.907 563.657 742.165 563.657 755.831C563.657 769.496 561.382 779.274 558.598 777.558C555.814 775.836 553.133 745.164 552.637 709.396C551.822 650.544 552.689 644.443 561.758 645.202C567.314 645.663 572.733 641.393 573.925 635.607C577.353 618.988 569.903 597.575 560.697 597.575C556.048 597.575 552.249 594.12 552.249 589.896C552.249 581.196 575.91 568.414 581.699 573.984C583.781 575.985 583.644 609.057 581.403 647.476ZM667.232 580.472C667.232 588.311 668.526 591.52 670.107 587.598C671.692 583.681 671.692 577.268 670.107 573.345C668.526 569.429 667.232 572.633 667.232 580.472ZM147.262 580.472C147.262 583.607 142.128 586.173 135.853 586.173C129.579 586.173 124.445 583.607 124.445 580.472C124.445 577.336 129.579 574.771 135.853 574.771C142.128 574.771 147.262 577.336 147.262 580.472ZM364.016 580.472C364.016 583.607 361.449 586.173 358.312 586.173C355.174 586.173 352.607 583.607 352.607 580.472C352.607 577.336 355.174 574.771 358.312 574.771C361.449 574.771 364.016 577.336 364.016 580.472ZM406.796 586.173C408.735 589.308 406.317 591.874 401.428 591.874C396.54 591.874 392.536 589.308 392.536 586.173C392.536 583.037 394.949 580.472 397.903 580.472C400.858 580.472 404.857 583.037 406.796 586.173ZM643.514 597.575C643.514 600.711 645.927 603.276 648.882 603.276C651.836 603.276 655.835 600.711 657.774 597.575C659.714 594.439 657.295 591.874 652.407 591.874C647.518 591.874 643.514 594.439 643.514 597.575ZM1440.27 604.348C1438.45 608.892 1437.1 607.54 1436.83 600.899C1436.58 594.89 1437.93 591.526 1439.82 593.419C1441.72 595.312 1441.92 600.232 1440.27 604.348ZM225.219 601.378C223.125 603.464 219.703 603.464 217.61 601.378C215.522 599.285 217.233 597.575 221.414 597.575C225.595 597.575 227.307 599.285 225.219 601.378ZM793.257 617.529C793.32 630.071 794.489 634.529 795.852 627.437C797.216 620.345 797.164 610.083 795.738 604.633C794.312 599.183 793.194 604.986 793.257 617.529ZM200.897 645.316C198.689 666.832 194.291 683.125 190.681 683.171C187.19 683.211 178.56 684.796 171.504 686.683C159.742 689.835 158.67 688.193 158.67 667.048C158.67 647.59 160.683 643.622 171.504 641.718C184.326 639.461 184.326 639.455 170.078 632.745C156.456 626.325 156.65 626.171 174.35 629.353C190.065 632.18 192.324 631.228 189.203 623.104C186.043 614.872 197.543 600.317 202.945 605.716C203.948 606.719 203.024 624.541 200.897 645.316ZM345.723 644.438L347.394 681.837L278.7 682.72L210.006 683.61V661.336C210.006 640.27 210.856 639.193 225.692 641.405L241.378 643.754L225.898 634.843C204.319 622.42 210.748 608.755 237.711 609.73L258.491 610.476L238.526 614.08C214.022 618.504 227.637 626.08 260.099 626.08C276.15 626.08 279.213 627.602 273.892 632.922C270.127 636.684 267.047 648.229 267.047 658.576C267.047 674.842 268.975 677.39 281.307 677.39C293.143 677.39 295.567 674.659 295.567 661.319C295.567 648.993 299.879 642.984 314.105 635.504L332.643 625.755L309.827 628.606C294.027 630.584 289.64 629.78 295.567 626.006C300.273 623.007 311.458 620.516 320.419 620.465C332.928 620.402 335.912 618.281 333.248 611.349C331.052 605.625 332.392 603.185 336.916 604.678C341.416 606.166 344.667 620.841 345.723 644.438ZM1411.66 612.78C1409.57 614.866 1407.86 613.156 1407.86 608.977C1407.86 604.798 1409.57 603.088 1411.66 605.174C1413.75 607.267 1413.75 610.687 1411.66 612.78ZM156.77 612.78C154.677 614.866 151.254 614.866 149.161 612.78C147.073 610.687 148.785 608.977 152.966 608.977C157.147 608.977 158.858 610.687 156.77 612.78ZM644.695 620.379C645.613 628.218 648.18 633.349 650.399 631.781C652.618 630.214 658.311 634.062 663.051 640.333C671.299 651.245 671.681 650.914 671.852 632.597C672 617.027 670.261 614.137 662.509 617.113C657.267 619.119 650.741 617.472 647.998 613.447C644.661 608.538 643.571 610.819 644.695 620.379ZM393.625 631.747C398.93 631.764 404.902 634.415 406.893 637.642C410.464 643.412 379.154 640.458 368.773 634.05C366.155 632.431 364.016 632.46 364.016 634.113C364.016 635.766 371.071 641.194 379.702 646.182C395.211 655.139 395.228 655.207 381.128 652.345C368.299 649.74 367.866 650.202 376.85 656.923C386.815 664.38 391.258 700.194 382.217 700.194C370.98 700.194 359.275 684.203 355.733 664.004C352.704 646.769 353.486 642.973 359.372 646.308C365.396 649.723 365.47 649.05 359.738 642.881C355.819 638.657 352.607 630.738 352.607 625.276C352.607 616.269 354.056 616.109 368.294 623.532C376.924 628.03 388.321 631.724 393.625 631.747ZM1285.68 634.991C1275 645.658 1274.1 641.53 1283.33 624.296C1287.43 616.628 1290.88 614.564 1292.34 618.92C1293.63 622.802 1290.64 630.031 1285.68 634.991ZM1373.63 622.893C1373.63 624.279 1371.07 626.992 1367.93 628.931C1364.79 630.869 1362.22 629.735 1362.22 626.417C1362.22 623.099 1364.79 620.379 1367.93 620.379C1371.07 620.379 1373.63 621.508 1373.63 622.893ZM1445.89 629.883C1443.79 631.969 1442.08 630.259 1442.08 626.08C1442.08 621.901 1443.79 620.191 1445.89 622.278C1447.97 624.37 1447.97 627.791 1445.89 629.883ZM1080.8 644.609C1079.22 648.531 1077.92 645.321 1077.92 637.482C1077.92 629.643 1079.22 626.439 1080.8 630.356C1082.38 634.278 1082.38 640.692 1080.8 644.609ZM1400.4 658.753C1398.95 664.3 1397.68 661.142 1397.56 651.735C1397.45 642.328 1398.63 637.79 1400.19 641.65C1401.75 645.51 1401.85 653.206 1400.4 658.753ZM1451.59 646.986C1449.5 649.073 1447.79 647.362 1447.79 643.183C1447.79 639.005 1449.5 637.294 1451.59 639.381C1453.68 641.473 1453.68 644.894 1451.59 646.986ZM1616.22 654.432C1638.09 663.753 1660.18 671.449 1665.31 671.535C1676.32 671.717 1757.88 753.471 1749.83 756.264C1746.8 757.319 1745.78 760.523 1747.55 763.391C1752.5 771.395 1744.38 769.918 1686.63 752.291C1657.23 743.311 1619.69 732.793 1603.22 728.916L1573.27 721.864V679.67C1573.27 656.467 1573.99 637.482 1574.87 637.482C1575.74 637.482 1594.35 645.11 1616.22 654.432ZM136.236 670.725C139.008 691.084 137.987 694.493 129.106 694.493C121.856 694.493 118.741 690.217 118.741 680.24C118.741 672.401 121.953 665.948 125.871 665.902C130.623 665.84 130.149 663.97 124.445 660.287C116.842 655.372 116.842 654.74 124.445 654.586C132.049 654.432 132.049 653.742 124.445 648.366C116.842 642.99 116.842 642.573 124.445 644.637C129.562 646.028 134.302 656.518 136.236 670.725ZM164.374 654.586C164.374 657.721 168.07 660.287 172.593 660.287C177.117 660.287 182.399 657.721 184.338 654.586C186.277 651.45 182.575 648.885 176.118 648.885C169.661 648.885 164.374 651.45 164.374 654.586ZM229.97 654.586C219.087 659.261 219.15 659.506 231.396 659.888C238.452 660.104 244.23 657.721 244.23 654.586C244.23 651.45 243.592 649.067 242.804 649.284C242.017 649.506 236.245 651.889 229.97 654.586ZM305.908 652.778C310.021 654.426 314.944 654.221 316.837 652.328C318.731 650.435 315.366 649.09 309.354 649.335C302.708 649.609 301.357 650.96 305.908 652.778ZM1805.24 652.687C1803.15 654.774 1799.73 654.774 1797.63 652.687C1795.54 650.595 1797.26 648.885 1801.44 648.885C1805.62 648.885 1807.33 650.595 1805.24 652.687ZM415.352 660.287C415.352 663.422 412.939 665.988 409.985 665.988C407.03 665.988 403.031 663.422 401.092 660.287C399.153 657.151 401.571 654.586 406.459 654.586C411.348 654.586 415.352 657.151 415.352 660.287ZM516.126 664.089C514.032 666.176 512.321 664.466 512.321 660.287C512.321 656.108 514.032 654.397 516.126 656.484C518.213 658.576 518.213 661.997 516.126 664.089ZM1490.49 675.235C1500.52 699.225 1501.44 708.005 1493.42 703.045C1490.28 701.106 1487.71 694.858 1487.71 689.151C1487.71 683.45 1483.86 675.594 1479.16 671.689C1469.42 663.605 1467.87 654.586 1476.23 654.586C1479.32 654.586 1485.74 663.878 1490.49 675.235ZM314.105 664.215C319.598 665.651 328.576 665.651 334.069 664.215C339.562 662.784 335.067 661.609 324.087 661.609C313.107 661.609 308.612 662.784 314.105 664.215ZM797.524 665.988C797.524 670.167 799.235 671.877 801.328 669.79C803.416 667.698 803.416 664.277 801.328 662.185C799.235 660.099 797.524 661.809 797.524 665.988ZM1366.03 669.79C1363.94 671.877 1362.22 670.167 1362.22 665.988C1362.22 661.809 1363.94 660.099 1366.03 662.185C1368.12 664.277 1368.12 667.698 1366.03 669.79ZM909.928 701.619C908.564 708.677 907.452 702.902 907.452 688.792C907.452 674.682 908.564 668.907 909.928 675.965C911.285 683.023 911.285 694.562 909.928 701.619ZM1348.92 675.491C1346.82 677.578 1345.11 675.868 1345.11 671.689C1345.11 667.51 1346.82 665.8 1348.92 667.886C1351.01 669.978 1351.01 673.399 1348.92 675.491ZM420.486 704.47C420.799 708.392 418.489 711.596 415.352 711.596C412.215 711.596 409.905 701.979 410.218 690.217C410.726 671.136 411.274 670.372 415.352 683.091C417.862 690.93 420.172 700.553 420.486 704.47ZM510.422 681.193C508.328 683.279 506.617 681.569 506.617 677.39C506.617 673.211 508.328 671.501 510.422 673.587C512.509 675.68 512.509 679.1 510.422 681.193ZM1744.4 685.571C1744.4 702.252 1754.86 731.55 1759.24 727.16C1764.09 722.326 1755.15 671.689 1749.45 671.689C1746.67 671.689 1744.4 677.937 1744.4 685.571ZM866.423 692.116C866.697 698.757 868.049 700.109 869.868 695.565C871.517 691.449 871.311 686.529 869.418 684.636C867.524 682.743 866.178 686.107 866.423 692.116ZM1052.28 701.619C1050.7 705.542 1049.4 702.332 1049.4 694.493C1049.4 686.654 1050.7 683.45 1052.28 687.367C1053.86 691.289 1053.86 697.703 1052.28 701.619ZM1109.35 692.595C1107.25 694.681 1105.54 692.971 1105.54 688.792C1105.54 684.613 1107.25 682.903 1109.35 684.989C1111.43 687.082 1111.43 690.502 1109.35 692.595ZM1480.11 686.894C1478.02 688.98 1474.59 688.98 1472.5 686.894C1470.41 684.801 1472.12 683.091 1476.31 683.091C1480.49 683.091 1482.2 684.801 1480.11 686.894ZM239.268 705.895C249.182 705.895 254.834 708.284 252.787 711.596C249.684 716.619 304.619 720.975 336.921 718.267C344.188 717.657 346.915 721.676 346.955 733.044C346.978 741.63 348.62 762.125 350.6 778.584L354.199 808.515H276.396C206.07 808.515 198.604 807.557 198.684 798.538C198.832 781.571 206.156 776.195 234.248 772.444C262.147 768.715 264.965 771.098 261.77 795.687C261.234 799.792 267.104 802.813 275.603 802.813C284.102 802.813 289.971 799.792 289.435 795.687C287.068 777.438 290.667 774.302 314.105 774.223C331.856 774.154 336.06 772.655 329.791 768.607C325.085 765.568 315.776 763.043 309.097 762.991C302.423 762.946 293.77 759.058 289.863 754.354C285.956 749.651 274.736 745.985 264.925 746.202C250.739 746.521 249.341 747.49 258.114 750.922C264.987 753.613 266.79 756.692 262.906 759.092C259.477 761.207 252.587 761.378 247.596 759.462C242.61 757.553 238.526 758.824 238.526 762.296C238.526 765.768 230.489 768.607 220.661 768.607C203.07 768.607 202.848 768.259 205.911 745.438C208.592 725.467 207.314 721.579 196.676 717.292C189.894 714.555 187.247 712.155 190.801 711.956C194.36 711.762 198.695 706.129 200.446 699.447C203.384 688.216 204.325 688 212.927 696.597C218.043 701.711 229.896 705.895 239.268 705.895ZM349.755 694.493C351.695 697.629 350.56 700.194 347.24 700.194C343.92 700.194 341.199 697.629 341.199 694.493C341.199 691.358 342.329 688.792 343.715 688.792C345.101 688.792 347.816 691.358 349.755 694.493ZM510.513 701.266C508.693 705.81 507.341 704.459 507.068 697.817C506.822 691.808 508.168 688.444 510.062 690.337C511.956 692.23 512.161 697.15 510.513 701.266ZM787.228 703.045C787.342 712.451 788.62 715.61 790.068 710.063C791.517 704.516 791.42 696.819 789.857 692.96C788.295 689.1 787.114 693.638 787.228 703.045ZM1348.92 698.296C1346.82 700.382 1345.11 698.672 1345.11 694.493C1345.11 690.314 1346.82 688.604 1348.92 690.69C1351.01 692.783 1351.01 696.203 1348.92 698.296ZM1366.15 715.872C1364.72 721.362 1363.55 716.87 1363.55 705.895C1363.55 694.921 1364.72 690.428 1366.15 695.918C1367.59 701.409 1367.59 710.382 1366.15 715.872ZM1396.45 703.045C1396.45 710.884 1394.24 717.297 1391.54 717.297C1388.83 717.297 1387.85 710.884 1389.35 703.045C1390.85 695.206 1393.06 688.792 1394.26 688.792C1395.46 688.792 1396.45 695.206 1396.45 703.045ZM1434.57 701.266C1432.75 705.81 1431.4 704.459 1431.12 697.817C1430.88 691.808 1432.23 688.444 1434.12 690.337C1436.01 692.23 1436.22 697.15 1434.57 701.266ZM1320.55 715.764C1319.1 721.311 1317.82 718.153 1317.7 708.746C1317.59 699.339 1318.77 694.801 1320.33 698.661C1321.9 702.52 1321.99 710.217 1320.55 715.764ZM1337.66 715.764C1336.21 721.311 1334.93 718.153 1334.82 708.746C1334.7 699.339 1335.88 694.801 1337.45 698.661C1339.01 702.52 1339.11 710.217 1337.66 715.764ZM383.98 721.054C399.666 727.405 417.36 734.344 423.298 736.482C429.236 738.619 432.841 741.624 431.306 743.163C429.766 744.697 419.111 742.029 407.623 737.228C396.135 732.434 380.689 730.022 373.302 731.875C362.92 734.48 359.161 732.553 356.771 723.42C353.954 712.657 349.407 711.591 306.085 711.511C279.909 711.46 261.474 709.527 265.119 707.206C276.538 699.943 354.153 708.985 383.98 721.054ZM1006.91 718.392C1012.14 722.651 1011.12 726.864 1002.62 735.98C994.131 745.084 993.161 749.058 998.586 752.502C1002.51 754.993 1003.28 757.068 1000.3 757.119C997.143 757.171 997.32 759.639 1000.72 763.037C1009.29 771.6 1003.23 801.907 992.545 803.965C987.526 804.929 970.265 803.309 954.18 800.368L924.941 795.014L924.359 771.834C924.04 759.086 922.094 738.186 920.035 725.393L916.293 702.127L958.155 707.463C981.183 710.393 1003.11 715.313 1006.91 718.392ZM1072.72 720.148C1071.22 727.987 1069 734.401 1067.8 734.401C1066.6 734.401 1065.61 727.987 1065.61 720.148C1065.61 712.309 1067.83 705.895 1070.53 705.895C1073.23 705.895 1074.22 712.309 1072.72 720.148ZM1092.24 715.399C1090.14 717.486 1088.43 715.775 1088.43 711.596C1088.43 707.417 1090.14 705.707 1092.24 707.794C1094.32 709.886 1094.32 713.307 1092.24 715.399ZM1136.91 711.596C1138.85 714.732 1137.72 717.297 1134.4 717.297C1131.08 717.297 1128.36 714.732 1128.36 711.596C1128.36 708.461 1129.49 705.895 1130.87 705.895C1132.26 705.895 1134.98 708.461 1136.91 711.596ZM1788.36 735.758C1786.99 742.85 1785.83 738.391 1785.76 725.849C1785.7 713.307 1786.82 707.503 1788.24 712.953C1789.67 718.403 1789.72 728.665 1788.36 735.758ZM951.533 722.662C951.533 729.116 954.1 734.401 957.237 734.401C960.374 734.401 962.941 730.706 962.941 726.185C962.941 721.664 960.374 716.385 957.237 714.447C954.1 712.509 951.533 716.208 951.533 722.662ZM1109.44 724.07C1107.62 728.614 1106.27 727.263 1105.99 720.621C1105.75 714.612 1107.09 711.249 1108.99 713.141C1110.88 715.034 1111.09 719.954 1109.44 724.07ZM1348.92 721.1C1346.82 723.187 1345.11 721.476 1345.11 717.297C1345.11 713.119 1346.82 711.408 1348.92 713.495C1351.01 715.587 1351.01 719.008 1348.92 721.1ZM1587.53 717.297C1589.47 720.433 1594.76 722.998 1599.28 722.998C1603.8 722.998 1607.5 720.433 1607.5 717.297C1607.5 714.162 1602.21 711.596 1595.75 711.596C1589.3 711.596 1585.6 714.162 1587.53 717.297ZM1052.4 729.771C1050.58 734.315 1049.23 732.964 1048.95 726.322C1048.71 720.313 1050.05 716.95 1051.95 718.842C1053.84 720.735 1054.05 725.655 1052.4 729.771ZM1631.17 722.713C1632.43 726.476 1635.31 729.361 1637.59 729.127C1644.41 728.42 1643.09 720.604 1635.73 718.153C1631.97 716.898 1629.92 718.951 1631.17 722.713ZM196.373 750.546C194.457 764.491 192.894 783.236 192.894 792.209C192.894 807.477 191.417 808.515 169.696 808.515C148.265 808.515 146.794 807.534 150.439 795.687C152.606 788.629 154.705 782.723 155.099 782.558C155.492 782.387 162.235 779.354 170.078 775.813L184.338 769.377L167.226 768.242L150.114 767.108L170.078 762.45C183.499 759.32 175.554 758.71 145.836 760.586C106.084 763.1 101.641 762.353 101.715 753.169C101.789 744.469 102.639 744.224 107.419 751.504C112.415 759.103 113.653 759.103 118.593 751.504C122.814 745.01 121.439 742.513 112.889 741.128C106.694 740.13 101.646 736.282 101.663 732.576C101.686 727.958 117.064 725.746 150.775 725.518L199.847 725.188L196.373 750.546ZM217.279 734.401C216.805 740.672 218.979 745.803 222.104 745.803C225.23 745.803 226.451 743.631 224.808 740.98C223.171 738.329 248.041 737.365 280.086 738.842C312.132 740.318 336.419 739.497 334.069 737.012C331.714 734.532 313.107 733.106 292.715 733.842C269.368 734.691 255.639 732.93 255.639 729.093C255.639 725.741 247.202 722.998 236.889 722.998C222.224 722.998 217.952 725.484 217.279 734.401ZM286.058 726.801C288.152 728.888 291.574 728.888 293.667 726.801C295.755 724.709 294.044 722.998 289.863 722.998C285.682 722.998 283.971 724.709 286.058 726.801ZM365.915 726.801C368.008 728.888 371.431 728.888 373.524 726.801C375.612 724.709 373.901 722.998 369.72 722.998C365.539 722.998 363.827 724.709 365.915 726.801ZM510.422 726.801C508.328 728.888 504.906 728.888 502.812 726.801C500.725 724.709 502.436 722.998 506.617 722.998C510.798 722.998 512.509 724.709 510.422 726.801ZM797.524 728.7C797.524 732.878 799.235 734.589 801.328 732.502C803.416 730.41 803.416 726.989 801.328 724.897C799.235 722.81 797.524 724.521 797.524 728.7ZM870.25 731.961C867.9 734.349 866.138 745.495 866.332 756.732C866.674 775.893 867.039 776.292 872.281 763.174C878.464 747.707 876.993 725.119 870.25 731.961ZM934.421 740.438C934.421 746.892 936.988 750.592 940.125 748.653C943.262 746.715 945.829 741.436 945.829 736.915C945.829 732.394 943.262 728.7 940.125 728.7C936.988 728.7 934.421 733.984 934.421 740.438ZM1512.89 732.166C1508.69 733.905 1507.56 758.499 1509.37 808.68L1512.04 882.628L1498.45 882.543C1488.28 882.475 1486.88 881.175 1492.89 877.372C1499.39 873.262 1500.26 859.237 1497.47 803.726C1494.03 735.404 1495.28 729.6 1513.38 729.6C1516.52 729.6 1516.3 730.752 1512.89 732.166ZM1667.24 734.651C1665.38 737.65 1665.09 740.102 1666.59 740.102C1668.09 740.102 1673.37 741.658 1678.33 743.562C1683.29 745.466 1687.36 744.457 1687.36 741.322C1687.36 733.346 1671.33 728.033 1667.24 734.651ZM147.262 739.8L161.522 744.064L147.262 747.006C134.085 749.725 134.302 750.004 150.114 750.649C159.525 751.036 173.506 749.668 181.178 747.616C194.103 744.161 194.314 743.568 184.03 739.543C177.927 737.154 163.946 735.279 152.966 735.37C135.14 735.518 134.53 735.991 147.262 739.8ZM389.336 749.075C400.932 751.983 401.936 754.976 399.569 779.576C397.213 804.09 398.24 807.186 409.705 810.179C421.758 813.332 422.305 812.14 419.642 788.544C417.257 767.387 418.027 764.765 424.644 771.383C428.945 775.676 432.464 789.519 432.464 802.135V825.07L405.37 816.889C390.471 812.391 373.787 810.122 368.294 811.85C359.469 814.62 358.312 810.567 358.312 776.931C358.312 744.463 359.646 739.395 367.398 742.365C372.395 744.281 382.269 747.302 389.336 749.075ZM1116.95 745.598L1102.69 750.369L1116.41 750.934C1129.33 751.47 1129.58 752.108 1120.69 761.931C1115.5 767.666 1111.25 775.044 1111.25 778.333C1111.25 781.623 1107.4 787.506 1102.69 791.411C1095.51 797.369 1094.03 796.337 1093.46 784.98C1093.08 777.546 1093.17 769.291 1093.64 766.646C1094.11 764.001 1091.2 762.934 1087.18 764.274C1082.12 765.962 1079.87 779.678 1079.87 808.988C1079.87 832.242 1077.31 853.16 1074.17 855.463C1069.22 859.094 1087.82 862.173 1109.82 861.358C1113.74 861.21 1116.95 865.936 1116.95 871.859C1116.95 878.911 1120.98 882.628 1128.63 882.628C1139.34 882.628 1140.17 885.599 1138.61 918.26C1137.09 950.266 1135.61 954.08 1124.08 955.716C1112.23 957.398 1111.18 955.203 1110.44 927.211C1109.65 897.776 1109.52 897.554 1106.16 919.685C1103.18 939.297 1100.49 942.74 1087 944.291C1078.38 945.283 1071.32 948.493 1071.32 951.418C1071.32 954.348 1064.78 956.742 1056.77 956.742C1042.67 956.742 1042.28 955.745 1043.94 923.961C1045.43 895.444 1047.24 890.952 1057.87 889.441C1066.83 888.159 1069.32 884.749 1067.18 876.614C1063.61 862.96 1054.21 861.951 1054.21 875.217C1054.21 881.192 1052.23 882.834 1049.04 879.493C1046.2 876.517 1045.65 863.815 1047.82 851.273C1051.41 830.498 1052.36 829.483 1058.52 839.87C1064.49 849.961 1065.29 848.61 1065.44 828.132C1065.53 815.407 1062.05 800.123 1057.69 794.165C1053.33 788.207 1051.06 779.992 1052.63 775.899C1054.19 771.811 1052.31 764.645 1048.44 759.981C1042.59 752.929 1043.44 751.504 1053.51 751.504C1060.17 751.504 1065.61 749.565 1065.61 747.194C1065.61 744.828 1080.38 742.422 1098.41 741.858C1122.56 741.099 1127.45 742.086 1116.95 745.598ZM1165.57 757.188C1166.93 776.201 1157.7 808.515 1150.91 808.515C1147.92 808.515 1145.47 803.538 1145.47 797.449C1145.47 791.36 1142.85 784.764 1139.64 782.78C1135.96 780.505 1134.41 787.21 1135.45 800.972L1137.1 822.767L1168.38 825.618C1190.22 827.607 1199.66 830.903 1199.66 836.547C1199.66 840.988 1196.45 845.691 1192.53 846.997C1188.61 848.302 1185.4 845.309 1185.4 840.344C1185.4 835.384 1182.83 831.319 1179.7 831.319C1176.56 831.319 1173.73 843.502 1173.41 858.399C1172.84 884.783 1172.71 884.977 1168.24 866.033C1165.71 855.332 1164.97 843.149 1166.58 838.953C1170.5 828.736 1162.28 829.312 1146.51 840.355C1137.07 846.963 1134.6 852.709 1137.33 861.734C1140.02 870.685 1139.3 872.429 1134.7 868.079C1125.64 859.539 1124.86 786.913 1133.54 761.156C1142.32 735.142 1163.79 732.479 1165.57 757.188ZM1207.08 745.723C1212.43 745.78 1213.74 752.581 1211.8 770.032C1210.31 783.361 1208.89 797.454 1208.65 801.354C1207.98 812.277 1183.9 806.092 1179.07 793.754C1176.72 787.763 1174.61 772.94 1174.39 760.814C1174.03 740.666 1175.09 739.064 1186.83 742.211C1193.89 744.098 1203 745.683 1207.08 745.723ZM1356.52 742.616C1356.52 744.001 1353.95 746.715 1350.82 748.653C1347.68 750.592 1345.11 749.457 1345.11 746.139C1345.11 742.821 1347.68 740.102 1350.82 740.102C1353.95 740.102 1356.52 741.23 1356.52 742.616ZM1633.17 752.273C1640.36 755.266 1636.15 755.728 1621.76 753.528C1609.21 751.612 1595.09 747.849 1590.39 745.17C1580.04 739.275 1616.48 745.324 1633.17 752.273ZM1713.24 745.455C1711.59 748.123 1713.99 751.749 1718.58 753.511C1723.17 755.267 1728.27 754.52 1729.92 751.852C1731.57 749.184 1729.17 745.558 1724.58 743.796C1719.99 742.04 1714.89 742.787 1713.24 745.455ZM1322.12 765.756C1322.12 768.892 1319.63 767.609 1316.59 762.906C1313.55 758.203 1311.07 751.789 1311.07 748.653C1311.07 745.518 1313.55 746.8 1316.59 751.504C1319.63 756.207 1322.12 762.621 1322.12 765.756ZM220.348 755.398C224.46 757.045 229.383 756.84 231.277 754.947C233.17 753.055 229.805 751.709 223.793 751.954C217.148 752.228 215.796 753.579 220.348 755.398ZM325.987 755.306C328.08 757.393 331.502 757.393 333.596 755.306C335.684 753.214 333.972 751.504 329.791 751.504C325.61 751.504 323.899 753.214 325.987 755.306ZM1195.15 762.906C1196.8 769.177 1200.5 774.308 1203.38 774.308C1206.27 774.308 1205.88 769.206 1202.51 762.906C1199.15 756.635 1195.46 751.504 1194.29 751.504C1193.12 751.504 1193.52 756.635 1195.15 762.906ZM1299.48 754.97C1299.48 759.685 1288.4 762.353 1285.86 758.248C1284.22 755.586 1286.61 753.402 1291.18 753.402C1295.74 753.402 1299.48 754.109 1299.48 754.97ZM1588.49 755.306C1586.39 757.393 1582.97 757.393 1580.88 755.306C1578.79 753.214 1580.5 751.504 1584.68 751.504C1588.86 751.504 1590.58 753.214 1588.49 755.306ZM958.138 768.607C958.138 776.446 959.433 779.656 961.013 775.733C962.599 771.817 962.599 765.403 961.013 761.481C959.433 757.564 958.138 760.768 958.138 768.607ZM1100.95 771.458C1101.06 780.864 1102.34 784.023 1103.79 778.476C1105.24 772.928 1105.14 765.232 1103.58 761.372C1102.02 757.513 1100.84 762.051 1100.95 771.458ZM1386.18 764.046C1377.53 772.689 1377.21 797.112 1385.74 797.112C1389.9 797.112 1389.4 800.43 1384.31 806.593C1377.91 814.341 1377.88 815.612 1384.13 813.549C1388.33 812.157 1400.28 818.622 1410.69 827.91C1426.73 842.231 1428.81 846.877 1424.39 858.49C1421.53 866.021 1420.63 874.533 1422.41 877.406C1424.19 880.28 1420.04 882.628 1413.2 882.628C1403.13 882.628 1402.03 881.089 1407.44 874.584C1411.52 869.67 1411.99 865.229 1408.65 863.165C1400.46 858.102 1385.04 865.628 1385.04 874.687C1385.04 888.569 1369.37 883.227 1366.53 868.376C1364.06 855.417 1365.58 854.123 1383.32 854.123C1394.87 854.123 1401.39 851.797 1399.3 848.422C1397.36 845.286 1389.4 842.721 1381.62 842.721C1368.68 842.721 1367.58 840.76 1368.81 819.894C1369.55 807.334 1367.2 794.108 1363.59 790.499C1356.81 783.715 1375.76 757.518 1387.61 757.302C1390.59 757.25 1389.95 760.283 1386.18 764.046ZM1623.77 767.883C1634.58 777.244 1635.03 779.428 1627.5 785.682C1621.18 790.927 1618.91 804.672 1618.91 837.715C1618.91 862.418 1616.56 882.628 1613.69 882.628C1605.4 882.628 1599.58 800.505 1606.9 786.833C1615.69 770.414 1614.79 764.16 1603.22 761.133C1595.09 759.012 1594.93 758.402 1602.35 757.866C1607.36 757.501 1617 762.011 1623.77 767.883ZM1645.53 766.709C1643.43 768.795 1640.01 768.795 1637.92 766.709C1635.83 764.616 1637.54 762.906 1641.72 762.906C1645.9 762.906 1647.62 764.616 1645.53 766.709ZM120.167 772.381C116.249 773.966 109.832 773.966 105.907 772.381C101.988 770.802 105.194 769.508 113.037 769.508C120.88 769.508 124.092 770.802 120.167 772.381ZM493.309 778.111C491.216 780.197 489.505 778.487 489.505 774.308C489.505 770.129 491.216 768.419 493.309 770.505C495.397 772.598 495.397 776.018 493.309 778.111ZM1349.28 824.067C1348.04 835.891 1347.01 827.613 1346.98 805.664C1346.96 783.715 1347.97 774.034 1349.23 784.16C1350.49 794.279 1350.51 812.237 1349.28 824.067ZM1597.23 775.448C1593.47 779.211 1589.95 797.814 1589.43 816.781C1588.69 843.263 1587.94 845.976 1586.19 828.468C1584.95 815.926 1581.52 803.224 1578.6 800.248C1565.43 786.845 1574.6 770.209 1595.81 769.057C1602.24 768.71 1602.55 770.129 1597.23 775.448ZM1707.64 780.522C1728.86 787.073 1753.52 791.366 1762.43 790.06C1772.33 788.606 1778.62 790.271 1778.62 794.347C1778.62 798.999 1771.01 799.849 1753.36 797.175C1731.05 793.789 1727.76 794.695 1725.07 804.957C1721.68 817.899 1727.33 827.02 1731.49 815.339C1733.45 809.843 1736.17 810.584 1741.94 818.189C1749.26 827.835 1749.75 827.653 1749.92 815.304C1750.02 808.064 1752.33 803.515 1755.04 805.191C1761.05 808.902 1756.38 837.02 1749.76 837.02C1747.17 837.02 1744.07 847.92 1742.87 861.249C1740.78 884.413 1740.64 884.162 1739.69 855.548C1738.96 833.662 1736.47 825.618 1730.42 825.618C1724.39 825.618 1721.59 834.506 1720.09 858.399C1718.11 890.011 1717.99 889.703 1716.95 849.847C1716.28 823.862 1713.51 808.515 1709.51 808.515C1705.23 808.515 1703.91 820.681 1705.5 845.571C1706.8 865.953 1705.95 882.628 1703.61 882.628C1701.27 882.628 1698.59 869.185 1697.63 852.749C1696.31 829.66 1693.65 822.442 1685.93 820.977C1677.39 819.352 1675.95 823.674 1675.95 850.856C1675.95 868.33 1673.38 882.628 1670.24 882.628C1667.07 882.628 1664.54 867.424 1664.54 848.422C1664.54 829.608 1662.02 814.216 1658.94 814.216C1650.53 814.216 1645.69 840.212 1649.91 862.715C1652.24 875.149 1651.41 882.628 1647.68 882.628C1644.28 882.628 1641.72 869.499 1641.72 851.985C1641.72 835.133 1640.23 812.682 1638.4 802.101L1635.08 782.86L1646.57 797.027C1659.61 813.104 1668.65 809.729 1659.3 792.272C1644.74 765.089 1651.96 763.334 1707.64 780.522ZM1316.51 793.772C1313.59 796.691 1312.58 818.52 1314.27 842.282C1316.23 870.063 1315.43 882.429 1312.02 876.927C1303.46 863.148 1299.3 788.167 1306.69 780.785C1311.44 776.036 1314.24 776.195 1317.47 781.417C1319.86 785.294 1319.43 790.853 1316.51 793.772ZM1471.75 784.376C1467.38 785.836 1464.58 801.479 1464.03 827.516L1463.16 868.376L1459.32 831.319C1455.35 792.951 1460.59 770.973 1472.03 778.042C1476.92 781.058 1476.84 782.683 1471.75 784.376ZM124.445 796.4C124.445 810.082 122.09 812.79 110.185 812.79C102.342 812.79 95.9593 811.188 96.0049 809.227C96.6609 779.194 124.445 766.663 124.445 796.4ZM880.232 785.71C882.172 788.846 884.887 791.411 886.273 791.411C887.659 791.411 888.788 788.846 888.788 785.71C888.788 782.575 886.068 780.009 882.748 780.009C879.428 780.009 878.293 782.575 880.232 785.71ZM945.829 785.71C945.829 789.889 947.54 791.599 949.634 789.513C951.721 787.421 951.721 784 949.634 781.908C947.54 779.821 945.829 781.531 945.829 785.71ZM968.645 785.71C968.645 789.889 970.357 791.599 972.45 789.513C974.538 787.421 974.538 784 972.45 781.908C970.357 779.821 968.645 781.531 968.645 785.71ZM1242.44 813.104C1242.44 814.917 1238.67 811.416 1234.07 805.328C1229.46 799.245 1225.62 790.414 1225.54 785.71C1225.46 781.007 1229.23 784.507 1233.92 793.486C1238.61 802.471 1242.44 811.297 1242.44 813.104ZM1670.66 787.318C1675.59 791.138 1682.57 799.393 1686.17 805.664C1689.77 811.935 1692.79 813.862 1692.89 809.94C1692.98 806.023 1696.91 802.813 1701.62 802.813C1706.32 802.813 1710.17 800.339 1710.17 797.312C1710.17 789.519 1690.51 779.975 1674.9 780.192C1663.4 780.346 1662.85 781.269 1670.66 787.318ZM493.401 798.184C491.581 802.728 490.229 801.377 489.955 794.735C489.71 788.726 491.056 785.362 492.95 787.255C494.844 789.148 495.049 794.068 493.401 798.184ZM1485.81 795.214C1483.72 797.301 1482.01 795.59 1482.01 791.411C1482.01 787.232 1483.72 785.522 1485.81 787.609C1487.9 789.701 1487.9 793.122 1485.81 795.214ZM1805.24 812.317C1803.15 814.404 1801.44 812.693 1801.44 808.515C1801.44 804.336 1803.15 802.625 1805.24 804.712C1807.33 806.804 1807.33 810.225 1805.24 812.317ZM1783.93 827.043C1783.49 840.788 1773.99 866.979 1773.32 856.261C1773.1 852.732 1771.31 841.832 1769.35 832.031C1766.53 817.927 1767.71 814.216 1775.06 814.216C1780.98 814.216 1784.18 818.839 1783.93 827.043ZM303.068 837.693C401.674 838.462 423.275 841.518 415.711 853.621C411.462 860.423 409.214 860.2 401.2 852.196C391.081 842.077 366.657 838.861 372.572 848.422C374.511 851.558 372.093 854.123 367.204 854.123C357.057 854.123 354.986 904.925 364.306 925.386C367.923 933.328 369.098 925.101 368.185 898.295C367.238 870.593 368.864 859.801 373.998 859.813C377.922 859.818 381.128 862.686 381.128 866.192C381.128 869.75 386.159 871.243 392.536 869.573C398.81 867.937 403.944 868.746 403.944 871.38C403.944 874.014 396.888 877.201 388.258 878.455L372.572 880.747L391.11 885.251C401.303 887.725 409.648 893.284 409.648 897.594C409.648 908.534 417.075 907.371 432.464 894.031C444.5 883.598 444.694 882.611 434.763 882.446C424.576 882.275 424.518 881.802 433.799 874.755C439.241 870.628 442.024 865.577 439.982 863.536C437.94 861.495 439.263 859.824 442.92 859.824C446.821 859.824 449.542 868.672 449.502 881.203C449.422 902.571 449.394 902.599 393.888 929.708L338.347 956.834L263.002 956.788L187.652 956.742L188.85 898.506C189.968 843.861 189.34 840.23 178.634 839.62C150.25 838.006 146.109 835.127 167.226 831.695C179.775 829.654 195.986 830.019 203.247 832.505C210.508 834.985 255.428 837.322 303.068 837.693ZM945.743 832.744C945.692 836.666 943.165 843.719 940.125 848.422C935.402 855.731 934.581 855.526 934.506 846.997C934.461 841.507 931.854 837.02 928.717 837.02C925.58 837.02 923.013 834.454 923.013 831.319C923.013 828.183 928.146 825.618 934.421 825.618C940.695 825.618 945.789 828.827 945.743 832.744ZM1002.87 831.319C995.734 835.925 996.213 836.969 1005.72 837.596C1014.47 838.166 1014.95 838.924 1007.76 840.834C1001.66 842.453 999.413 847.225 1001.32 854.511C1003.53 862.954 1002.03 864.847 995.209 862.23C987.451 859.254 986.647 862.777 989.516 887.03C991.547 904.127 990.52 916.744 986.927 918.967C980.344 923.026 973.824 899.794 973.226 870.177C973.02 859.779 970.305 848.069 967.196 844.146C962.97 838.821 965.326 837.02 976.505 837.02C984.731 837.02 991.461 834.454 991.461 831.319C991.461 828.183 995.951 825.658 1001.44 825.703C1009.98 825.777 1010.18 826.598 1002.87 831.319ZM1253.85 854.123C1253.85 878.826 1252.32 882.628 1242.44 882.628C1226.63 882.628 1225.32 833.645 1241.01 829.546C1246.5 828.115 1251.64 826.644 1252.42 826.279C1253.2 825.914 1253.85 838.445 1253.85 854.123ZM1219.62 857.926C1219.62 872.555 1218.29 883.193 1216.66 881.562C1211.07 875.981 1208.98 831.319 1214.31 831.319C1217.23 831.319 1219.62 843.291 1219.62 857.926ZM116.842 840.823C114.748 842.909 111.326 842.909 109.233 840.823C107.145 838.73 108.856 837.02 113.037 837.02C117.218 837.02 118.93 838.73 116.842 840.823ZM808.932 845.571C808.932 850.275 806.365 854.123 803.228 854.123C800.09 854.123 797.524 850.275 797.524 845.571C797.524 840.868 800.09 837.02 803.228 837.02C806.365 837.02 808.932 840.868 808.932 845.571ZM968.463 861.5C968.565 863.986 965.44 865.611 961.515 865.098C946.753 863.182 940.884 865.822 938.351 875.502C936.389 883.01 935.579 882.303 935.083 872.652C934.718 865.594 936.817 859.824 939.743 859.824C942.669 859.824 946.747 854.516 948.807 848.029C952.389 836.741 952.891 836.678 960.414 846.603C964.744 852.304 968.366 859.009 968.463 861.5ZM1805.24 846.524C1803.15 848.61 1801.44 846.9 1801.44 842.721C1801.44 838.542 1803.15 836.832 1805.24 838.918C1807.33 841.011 1807.33 844.431 1805.24 846.524ZM205.574 845.896C207.325 847.641 219.68 850.155 233.033 851.484C266.79 854.841 268.735 859.824 236.29 859.824C202.728 859.824 206.316 870.85 240.289 872.121L264.195 873.016L235.674 876.927L207.154 880.838L235.001 881.733L262.843 882.628L259.837 905.051C256.682 928.545 261.337 933.938 284.769 933.938C292.521 933.938 296.879 928.796 299.275 916.835C302.144 902.497 305.401 899.732 319.433 899.732C329.135 899.732 334.685 897.337 332.643 894.031C330.704 890.895 322.855 888.33 315.195 888.33C305.212 888.33 301.271 885.194 301.271 877.264C301.271 868.895 307.18 864.875 325.513 860.771L349.755 855.343L322.661 854.733C307.762 854.397 295.567 851.558 295.567 848.422C295.567 845.087 276.236 842.721 248.982 842.721C223.365 842.721 203.829 844.152 205.574 845.896ZM162.948 854.06C178.902 854.112 181.486 856.107 181.486 868.376C181.486 880.274 178.776 882.628 165.07 882.628C156.046 882.628 145.465 886.477 141.557 891.18C135.739 898.187 136.133 899.732 143.714 899.732C148.802 899.732 152.966 897.166 152.966 894.031C152.966 890.895 159.508 888.33 167.511 888.33C181.611 888.33 182.005 889.327 180.345 921.111C178.725 952.142 177.795 953.989 162.948 955.693C148.978 957.301 147.262 955.665 147.262 940.717C147.262 931.487 143.411 920.74 138.705 916.835C134 912.93 130.149 901.282 130.149 890.946C130.149 880.616 128.592 868.102 126.687 863.142C121.69 850.132 107.333 852.036 107.333 865.708C107.333 872.395 101.909 879.476 94.499 882.452C85.7547 885.964 84.6368 887.719 90.9797 887.97C104.669 888.501 109.307 911.134 95.7254 911.134C89.9301 911.134 83.6043 908.568 81.6649 905.433C79.7255 902.297 81.4995 899.692 85.6064 899.646C91.436 899.578 91.3447 898.46 85.1729 894.555C74.9455 888.084 81.4596 859.824 93.1814 859.824C97.8302 859.824 101.629 856.922 101.629 853.376C101.629 849.1 108.828 848.12 123.019 850.463C134.787 852.407 152.755 854.026 162.948 854.06ZM445.298 852.196C441.38 853.781 434.963 853.781 431.038 852.196C427.12 850.617 430.325 849.323 438.168 849.323C446.011 849.323 449.223 850.617 445.298 852.196ZM1097.94 852.225C1095.85 854.311 1092.42 854.311 1090.33 852.225C1088.24 850.132 1089.95 848.422 1094.13 848.422C1098.32 848.422 1100.03 850.132 1097.94 852.225ZM1154.98 863.627C1152.89 865.713 1151.17 864.003 1151.17 859.824C1151.17 855.645 1152.89 853.935 1154.98 856.022C1157.07 858.114 1157.07 861.535 1154.98 863.627ZM143.092 863.775C148.642 865.223 156.342 865.126 160.204 863.564C164.066 862.002 159.525 860.822 150.114 860.936C140.702 861.05 137.542 862.327 143.092 863.775ZM807.032 863.627C804.939 865.713 801.516 865.713 799.423 863.627C797.335 861.535 799.047 859.824 803.228 859.824C807.409 859.824 809.12 861.535 807.032 863.627ZM1539.05 865.525C1539.05 869.704 1540.76 871.414 1542.86 869.328C1544.94 867.236 1544.94 863.815 1542.86 861.723C1540.76 859.636 1539.05 861.346 1539.05 865.525ZM331.691 875.029C333.784 877.116 337.207 877.116 339.3 875.029C341.388 872.937 339.676 871.226 335.495 871.226C331.314 871.226 329.603 872.937 331.691 875.029ZM807.386 874.67C805.492 876.563 800.57 876.768 796.457 875.12C791.905 873.301 793.257 871.95 799.902 871.677C805.914 871.432 809.28 872.777 807.386 874.67ZM928.717 882.292C928.717 888.381 931.284 894.943 934.421 896.881C937.558 898.819 940.125 905.381 940.125 911.47C940.125 917.559 937.558 922.536 934.421 922.536C931.284 922.536 928.717 918.688 928.717 913.984C928.717 909.281 926.15 905.433 923.013 905.433C919.876 905.433 917.309 897.736 917.309 888.33C917.309 878.923 919.876 871.226 923.013 871.226C926.15 871.226 928.717 876.203 928.717 882.292ZM1473.45 876.927C1475.39 880.063 1472.83 882.628 1467.75 882.628C1462.67 882.628 1460.11 880.063 1462.05 876.927C1463.99 873.792 1466.55 871.226 1467.75 871.226C1468.95 871.226 1471.51 873.792 1473.45 876.927ZM1759.61 880.73C1757.52 882.817 1755.8 881.106 1755.8 876.927C1755.8 872.748 1757.52 871.038 1759.61 873.125C1761.7 875.217 1761.7 878.638 1759.61 880.73ZM1776.72 880.73C1774.63 882.817 1772.92 881.106 1772.92 876.927C1772.92 872.748 1774.63 871.038 1776.72 873.125C1778.81 875.217 1778.81 878.638 1776.72 880.73ZM805.293 891.18C807.095 895.883 805.447 899.772 801.625 899.817C797.159 899.874 797.672 901.801 803.062 905.21C807.677 908.129 809.776 912.194 807.722 914.247C800.992 920.968 791.82 910.752 791.82 896.545C791.82 881.14 800.159 877.822 805.293 891.18ZM1107.44 892.132C1109.54 894.219 1112.96 894.219 1115.05 892.132C1117.14 890.04 1115.43 888.33 1111.25 888.33C1107.07 888.33 1105.35 890.04 1107.44 892.132ZM214.284 898.055C221.34 899.412 232.896 899.412 239.952 898.055C247.008 896.693 241.236 895.581 227.118 895.581C213.001 895.581 207.228 896.693 214.284 898.055ZM375.424 899.732C375.424 902.867 381.995 905.433 390.02 905.433C398.297 905.433 403.094 902.964 401.092 899.732C399.153 896.596 392.587 894.031 386.495 894.031C380.403 894.031 375.424 896.596 375.424 899.732ZM1173.95 941.064C1174.01 947.615 1152.34 946.144 1148.12 939.314C1146.08 936.002 1146.09 926.567 1148.15 918.351L1151.9 903.409L1162.91 920.102C1168.96 929.28 1173.93 938.716 1173.95 941.064ZM1196.81 943.596C1196.81 951.201 1185.73 942.353 1179.37 929.662C1166.04 903.084 1166.45 901.875 1181.9 922.217C1190.1 933.02 1196.81 942.638 1196.81 943.596ZM1196.81 916.835C1200.17 923.106 1201.94 928.237 1200.74 928.237C1199.55 928.237 1193.93 923.106 1188.25 916.835C1182.58 910.564 1180.8 905.433 1184.32 905.433C1187.83 905.433 1193.45 910.564 1196.81 916.835ZM1219.14 928.237L1232.08 948.191L1217.3 932.194C1209.16 923.397 1202.51 913.352 1202.51 909.868C1202.51 902.491 1202.3 902.257 1219.14 928.237ZM1237.59 926.909C1253.27 951.663 1247.58 950.306 1227.98 924.623C1219.29 913.226 1215.26 904.931 1219.04 906.191C1222.82 907.445 1231.17 916.772 1237.59 926.909ZM1257.86 925.626C1264.78 936.469 1268.16 945.34 1265.38 945.34C1260.34 945.34 1236.74 915.261 1236.74 908.831C1236.74 900.028 1246.48 907.776 1257.86 925.626ZM1273.81 922.536C1278.68 931.943 1281.48 939.639 1280.05 939.639C1278.61 939.639 1271.96 931.943 1265.26 922.536C1258.55 913.129 1255.75 905.433 1259.02 905.433C1262.29 905.433 1268.95 913.129 1273.81 922.536ZM1291.2 923.066C1296.22 932.764 1299.04 941.982 1297.47 943.55C1294.83 946.184 1276.66 915.638 1276.66 908.568C1276.66 900.746 1282.84 906.904 1291.2 923.066ZM1316.54 942.49C1316.54 945.625 1311.42 939.793 1305.16 929.525C1290.4 905.319 1290.42 897.394 1305.18 919.685C1311.42 929.092 1316.52 939.354 1316.54 942.49ZM1334.32 935.363C1337.91 941.897 1337.82 945.34 1334.05 945.34C1328.37 945.34 1310.72 915.997 1311.07 907.143C1311.27 902.138 1325.64 919.583 1334.32 935.363ZM1347.63 923.961L1358.31 942.49L1343.15 928.67C1328.18 915.016 1323.78 905.433 1332.47 905.433C1334.94 905.433 1341.75 913.773 1347.63 923.961ZM1364.4 922.929C1378.76 947.227 1373.5 948.869 1357.83 924.976C1350.78 914.229 1347.05 905.433 1349.53 905.433C1352.03 905.433 1358.72 913.306 1364.4 922.929ZM1376.01 914.788C1379.01 922.616 1378.17 922.969 1370.91 916.943C1361.02 908.734 1359.98 905.433 1367.32 905.433C1370.12 905.433 1374.03 909.646 1376.01 914.788ZM1393.12 914.8C1398.55 928.955 1392.56 930.888 1385.3 917.325C1381.8 910.78 1381.32 905.433 1384.23 905.433C1387.14 905.433 1391.14 909.646 1393.12 914.8ZM1470.84 922.867C1487.23 945.87 1481.1 951.355 1464.33 928.687C1448.93 907.873 1436.67 904.88 1449.98 925.187C1462.46 944.223 1461.73 946.389 1443.51 944.291C1431.52 942.917 1427.5 939.132 1426.47 928.237L1425.12 913.984L1431.62 926.812C1435.2 933.87 1440.3 939.639 1442.95 939.639C1451.08 939.639 1448.38 931.025 1436.16 917.912L1424.52 905.433H1441.47C1453.86 905.433 1461.75 910.119 1470.84 922.867ZM1489.33 921.989C1503.87 946.583 1501.18 950.346 1484.86 928.237C1469.2 907.023 1468.52 905.433 1475.07 905.433C1477.54 905.433 1483.96 912.884 1489.33 921.989ZM1512.46 926.812L1522.22 948.191L1507.82 932.194C1493.33 916.105 1489.44 905.433 1498.07 905.433C1500.62 905.433 1507.1 915.056 1512.46 926.812ZM1538.29 925.386C1544.77 936.361 1547.78 945.34 1544.98 945.34C1539.03 945.34 1516.23 917.605 1516.23 910.364C1516.23 899.19 1527.27 906.698 1538.29 925.386ZM1561.11 923.135C1574.16 939.633 1574.77 950.46 1562.2 942.701C1554.14 937.718 1537.48 905.341 1543.18 905.746C1545.62 905.923 1553.68 913.745 1561.11 923.135ZM1589.63 925.386C1603.82 949.428 1598.17 951.229 1577.19 929.349C1559.98 911.396 1558.16 905.433 1569.86 905.433C1574.26 905.433 1583.15 914.412 1589.63 925.386ZM1614.55 926.321C1622.5 939.93 1622.93 943.442 1616.63 943.442C1612.27 943.442 1604.51 934.651 1599.39 923.91C1587.59 899.19 1599.83 901.14 1614.55 926.321ZM1640.96 925.386C1653.08 945.91 1646.51 953.447 1632.27 935.363C1615.7 914.309 1612.35 905.433 1620.99 905.433C1625.5 905.433 1634.49 914.412 1640.96 925.386ZM1688.78 921.749C1708.8 940.021 1709.15 949.713 1689.32 936.737C1675.26 927.524 1674.45 927.507 1677.9 936.492C1684.62 954.006 1663.09 943.784 1651.5 923.961L1640.7 905.478L1656.9 906.447C1665.81 906.983 1680.16 913.87 1688.78 921.749ZM1718.02 923.79C1738.41 949.838 1730.83 951.543 1705.8 926.527C1690.8 911.533 1687.44 905.433 1694.17 905.433C1699.38 905.433 1710.11 913.694 1718.02 923.79ZM1743.21 927.125C1750.94 937.142 1754.68 945.34 1751.51 945.34C1748.34 945.34 1738.64 936.013 1729.94 924.623C1721.24 913.226 1717.51 905.028 1721.64 906.402C1725.77 907.782 1735.48 917.103 1743.21 927.125ZM1766.25 926.088C1782.39 950.967 1770.93 949.103 1751.29 923.648C1741.69 911.214 1739.72 905.455 1745.09 905.501C1749.42 905.541 1758.94 914.805 1766.25 926.088ZM1783.25 922.308C1796.74 940.534 1800.2 950.99 1788.6 938.442C1767.58 915.712 1760.32 905.433 1765.26 905.433C1768.29 905.433 1776.39 913.027 1783.25 922.308ZM1808.53 927.747C1815.31 938.465 1817.59 945.967 1813.64 944.656C1809.75 943.356 1801.06 933.625 1794.35 923.026C1787.56 912.308 1785.29 904.806 1789.23 906.117C1793.13 907.417 1801.81 917.148 1808.53 927.747ZM458.988 932.513L457.642 953.892L421.723 955.602C397.704 956.748 387.031 955.329 389.507 951.326C391.543 948.037 395.536 945.34 398.377 945.34C401.223 945.34 415.689 937.644 430.531 928.237C445.373 918.83 458.15 911.134 458.925 911.134C459.701 911.134 459.73 920.757 458.988 932.513ZM914.457 928.237C914.457 947.421 886.108 952.432 880.335 934.269C878.287 927.815 874.22 922.536 871.294 922.536C868.368 922.536 865.972 919.822 865.972 916.51C865.972 912.941 875.869 911.196 890.215 912.234C911.804 913.79 914.457 915.546 914.457 928.237ZM990.035 933.858C1009.65 933.904 1025.69 936.144 1025.69 938.835C1025.69 941.526 1003.87 944 977.201 944.331C936.56 944.827 928.717 943.47 928.717 935.916C928.717 929.354 932.202 927.844 941.551 930.346C948.613 932.233 970.431 933.818 990.035 933.858Z" fill="#2C2C2C"/>
</svg>
