<svg width="639" height="70" viewBox="0 0 639 70" fill="none" xmlns="http://www.w3.org/2000/svg">
<g clip-path="url(#clip0_1262_208)">
<path d="M584.21 32.7728L584.21 15.6739L569.249 7.12451L554.287 15.6739L554.287 32.7728L569.249 41.3222L584.21 32.7728Z" fill="white"/>
</g>
<g clip-path="url(#clip1_1262_208)">
<path d="M631.232 32.7728L631.232 15.6739L616.271 7.12451L601.309 15.6739L601.309 32.7728L616.271 41.3222L631.232 32.7728Z" fill="white"/>
</g>
<g clip-path="url(#clip2_1262_208)">
<path d="M537.188 32.7728L537.188 15.6739L522.227 7.12451L507.265 15.6739L507.265 32.7728L522.227 41.3222L537.188 32.7728Z" fill="white"/>
</g>
<path d="M26.3066 68.8428L0 3.3186H22.2043L39.1236 50.2606H40.3946L56.9235 3.3186H79.0251L52.7129 68.8428H26.3066Z" fill="white"/>
<path d="M83.2371 68.8427V3.31995H101.618V68.8427H83.2371Z" fill="white"/>
<path d="M111.274 68.8427V3.31995H129.655V52.3138H167.502V68.8427H111.274Z" fill="white"/>
<path d="M172.988 68.8427V3.31995H192.547L210.739 27.8667L220.321 42.9265H221.592L220.712 28.649V3.31995H239.093V68.8427H219.541L200.176 43.6119L191.863 30.7023H190.592L191.374 43.2201V68.8427H172.988Z" fill="white"/>
<path d="M248.908 68.8427V3.31995H267.289V68.8427H248.908Z" fill="white"/>
<path d="M271.341 68.8428L299.606 3.3186H325.912L354.268 68.8428H333.151L328.164 56.7154H297.062L291.977 68.8428H271.341ZM304.006 40.188H321.414L317.601 30.9945L313.298 19.943H312.027L307.82 30.9945L304.006 40.188Z" fill="white"/>
<path d="M354.048 41.3635V3.3186H372.43V39.8944C372.43 49.1848 375.07 52.0218 387.49 52.0218C399.909 52.0218 402.551 49.1848 402.551 39.8944V3.32004H420.932V41.3649C420.932 58.773 410.371 69.8245 387.485 69.8245C364.6 69.8245 354.048 58.7715 354.048 41.3635Z" fill="white"/>
<path d="M428.836 46.0571V45.4701H447.217V47.5234C447.217 51.9235 448.785 53.0976 461.104 53.0976C472.254 53.0976 473.427 52.2184 473.427 49.2845C473.427 46.9377 472.156 45.9602 466.775 45.2749L446.25 42.5376C434.024 40.8748 427.868 34.3216 427.868 23.7588C427.868 13.2958 435.99 2.34253 459.652 2.34253C480.483 2.34253 490.459 11.4377 490.459 26.1071V26.6941H472.077V25.2265C472.077 20.5314 470.024 18.9683 457.702 18.9683C448.313 18.9683 446.26 20.2393 446.26 23.0749C446.26 25.1282 447.434 26.1071 450.955 26.5958L471.492 29.628C487.531 31.9748 491.832 40.1908 491.832 48.6006C491.832 59.8473 483.226 69.8231 461.124 69.8231C441.062 69.8174 428.836 62.6843 428.836 46.0571Z" fill="white"/>
<path d="M617.041 0L595.726 12.3083V36.9207L617.041 49.2261L638.357 36.9207V12.3083L617.041 0ZM621.459 32.8711V28.5522C621.459 27.5548 620.889 27.0903 619.642 27.0903L612.61 27.1145V32.8711H609.76V16.3551H618.113C621.888 16.3551 624.152 17.817 624.152 21.0259C624.189 21.5916 624.071 22.1567 623.809 22.6594C623.546 23.1621 623.151 23.5829 622.666 23.8757C621.894 24.4542 620.981 24.8132 620.022 24.9144L620.047 24.9629C620.545 24.8666 621.05 24.8108 621.557 24.7962C622.02 24.7731 622.48 24.8882 622.878 25.1267C623.61 25.5286 624.293 26.2595 624.293 28.404L624.317 32.864L621.459 32.8711Z" fill="white"/>
<path d="M549.135 12.3082V36.9206L570.448 49.2261L591.764 36.9206V12.3082L570.448 0.00280762L549.135 12.3082ZM575.181 27.5405V16.355H578.012V32.871H575.062L566.38 21.5929C565.966 21.0238 565.64 20.3955 565.413 19.7292L565.367 19.7534C565.591 20.4153 565.71 21.108 565.721 21.8067V32.8725H562.889V16.355H565.816L574.521 27.7542C574.944 28.3178 575.271 28.9475 575.488 29.618L575.535 29.5938C575.31 28.9311 575.191 28.2373 575.181 27.5376V27.5405Z" fill="white"/>
<path d="M502.542 12.3082V36.9206L523.857 49.2261L545.171 36.9206V12.3082L523.857 0.00280762L502.542 12.3082ZM531.631 24.6137C531.631 30.2293 527.832 32.8782 523.231 32.8782H516.081V16.355H523.231C527.832 16.355 531.631 18.9968 531.631 24.6123V24.6137Z" fill="white"/>
<path d="M549.135 12.3082V36.9206L570.448 49.2261L591.764 36.9206V12.3082L570.448 0.00280762L549.135 12.3082ZM575.181 27.5405V16.355H578.012V32.871H575.062L566.38 21.5929C565.966 21.0238 565.64 20.3955 565.413 19.7292L565.367 19.7534C565.591 20.4153 565.71 21.108 565.721 21.8067V32.8725H562.889V16.355H565.816L574.521 27.7542C574.944 28.3178 575.271 28.9475 575.488 29.618L575.535 29.5938C575.31 28.9311 575.191 28.2373 575.181 27.5376V27.5405Z" fill="#D72E30"/>
<path d="M621.584 21.7113C621.584 19.4699 620.098 18.7617 617.832 18.7617H612.617V24.6608H617.413C619.693 24.6608 621.584 23.4796 621.584 21.7113Z" fill="#D72E30"/>
<path d="M617.041 0L595.726 12.3083V36.9207L617.041 49.2261L638.357 36.9207V12.3083L617.041 0ZM621.459 32.8711V28.5522C621.459 27.5548 620.889 27.0903 619.642 27.0903L612.61 27.1145V32.8711H609.76V16.3551H618.113C621.888 16.3551 624.152 17.817 624.152 21.0259C624.189 21.5916 624.071 22.1567 623.809 22.6594C623.546 23.1621 623.151 23.5829 622.666 23.8757C621.894 24.4542 620.981 24.8132 620.022 24.9144L620.047 24.9629C620.545 24.8666 621.05 24.8108 621.557 24.7962C622.02 24.7731 622.48 24.8882 622.878 25.1267C623.61 25.5286 624.293 26.2595 624.293 28.404L624.317 32.864L621.459 32.8711Z" fill="#D72E30"/>
<path d="M502.542 12.3082V36.9206L523.857 49.2261L545.171 36.9206V12.3082L523.857 0.00280762L502.542 12.3082ZM531.631 24.6137C531.631 30.2293 527.832 32.8782 523.231 32.8782H516.081V16.355H523.231C527.832 16.355 531.631 18.9968 531.631 24.6123V24.6137Z" fill="#D72E30"/>
<path d="M518.938 19.7292V30.2279H523.421C524.867 30.1628 526.231 29.5427 527.231 28.4967C528.231 27.4507 528.789 26.0594 528.789 24.6124C528.789 23.1653 528.231 21.774 527.231 20.7281C526.231 19.6821 524.867 19.062 523.421 18.9968H517.122C517.877 18.9968 518.938 19.0909 518.938 19.7292Z" fill="#D72E30"/>
<defs>
<clipPath id="clip0_1262_208">
<rect width="34.1977" height="29.923" fill="white" transform="translate(584.21 7.12451) rotate(90)"/>
</clipPath>
<clipPath id="clip1_1262_208">
<rect width="34.1977" height="29.923" fill="white" transform="translate(631.232 7.12451) rotate(90)"/>
</clipPath>
<clipPath id="clip2_1262_208">
<rect width="34.1977" height="29.923" fill="white" transform="translate(537.188 7.12451) rotate(90)"/>
</clipPath>
</defs>
</svg>
