<?xml version="1.0" encoding="UTF-8"?>
<svg version="1.1" viewBox="0 0 160 160" xml:space="preserve" xmlns="http://www.w3.org/2000/svg">
<desc>Created with Fabric.js 4.2.0</desc>



<g transform="translate(256,256)">
<rect x="-256" y="-256" width="512" height="512" rx="0" ry="0" fill-opacity="0" vector-effect="non-scaling-stroke"/>
</g>

<g transform="matrix(12.42,0,0,12.42,256,256)">

<g transform="matrix(.095798 0 0 .095798 -60.884 -2.1816)"><circle cx="487.63" cy="-125.15" r="66.397" fill="#b2aadc" vector-effect="non-scaling-stroke"/><g transform="translate(258.98 -362.27)" fill="#212121"><path d="m189.64 227.84c-7.3703 4.2705-12.35 12.226-12.35 21.339v2.0555h49.33v-2.0555c0-9.1053-4.9721-17.054-12.332-21.327v-0.0118h-0.0188z"/><circle cx="201.96" cy="216.77" r="15.336" stroke="#b2aadc" stroke-linecap="round" stroke-linejoin="round" stroke-width="8.1102" style="paint-order:stroke fill markers"/><path d="m243.02 227.84c-7.3703 4.2705-12.35 12.226-12.35 21.339v2.0555h49.33v-2.0555c0-9.1053-4.9721-17.054-12.332-21.327v-0.0118h-0.0189z"/><circle cx="255.33" cy="216.77" r="15.336" stroke="#b2aadc" stroke-linecap="round" stroke-linejoin="round" stroke-width="8.1102" style="paint-order:stroke fill markers"/><path d="m216.95 244.71c-8.8444 5.1246-14.82 14.671-14.82 25.607v2.4666h59.197v-2.4666c0-10.926-5.9665-20.465-14.798-25.592v-0.0142h-0.0226z"/><circle cx="231.73" cy="231.43" r="18.404" stroke="#b2aadc" stroke-linecap="round" stroke-linejoin="round" stroke-width="8.1102" style="paint-order:stroke fill markers"/></g></g></g>
</svg>
