<?xml version="1.0" encoding="UTF-8"?>
<svg version="1.1" viewBox="0 0 160 160" xml:space="preserve" xmlns="http://www.w3.org/2000/svg">
<desc>Created with Fabric.js 4.2.0</desc>



<g transform="translate(100,100)">
<rect x="-100" y="-100" width="200" height="200" rx="0" ry="0" fill-opacity="0" vector-effect="non-scaling-stroke"/>
</g>


<g transform="matrix(1.1898 0 0 1.1898 -855.7 228.91)"><circle cx="786.43" cy="-125.15" r="66.397" fill="#f1eeac" vector-effect="non-scaling-stroke"/><g transform="translate(706.71 -504.07)"><g transform="matrix(.69489 0 0 .69489 9.9492 309.14)"><rect transform="scale(-1)" x="-151.18" y="-130.17" width="101.54" height="59.529" fill="#212121" stroke="#212121" stroke-linecap="round" stroke-linejoin="round" stroke-width="28.457" style="paint-order:markers stroke fill"/><g fill="#f1eeac"><path d="m86.446 103.88c-8.3567 4.8421-14.003 13.862-14.003 24.195v2.3306h55.933v-2.3306c0-10.324-5.6376-19.336-13.982-24.182v-0.0134h-0.0213z"/><circle cx="100.41" cy="91.334" r="17.389" stroke="#212121" stroke-linecap="round" stroke-linejoin="round" stroke-width="7.0693" style="paint-order:stroke fill markers"/></g></g><circle cx="44.47" cy="358.27" r="4" fill="#f1eeac" style="paint-order:stroke fill markers"/><circle cx="114.65" cy="358.27" r="4" fill="#f1eeac" style="paint-order:stroke fill markers"/><circle cx="44.501" cy="399.34" r="4" fill="#f1eeac" style="paint-order:stroke fill markers"/><circle cx="114.68" cy="399.34" r="4" fill="#f1eeac" style="paint-order:stroke fill markers"/></g></g></svg>
