<?xml version="1.0" encoding="UTF-8"?>
<svg version="1.1" viewBox="0 0 160 160" xml:space="preserve" xmlns="http://www.w3.org/2000/svg">
<desc>Created with Fabric.js 4.2.0</desc>


<g transform="translate(100,100)">
<rect x="-100" y="-100" width="200" height="200" rx="0" ry="0" fill-opacity="0" vector-effect="non-scaling-stroke"/>
</g>



<g transform="matrix(1.1898 0 0 1.1898 -2100 228.91)"><circle cx="1832.2" cy="-125.15" r="66.397" fill="#D8E3E1" vector-effect="non-scaling-stroke"/><g transform="translate(1156.8 -657.06)"><path d="m675.41 490.33c-13.95 0-25.314 11.377-25.314 25.338 0 6.9871 2.8827 13.313 7.4513 17.886 0.0788 0.11983 0.0704 0.16803 0.23435 0.31991l-0.12477-0.11595 10.208 11.474v-0.67144c6.2e-4 0.48616 0.17824 0.95545 0.49985 1.3201l5.5456 6.3109c0.37908 0.43129 0.92537 0.67878 1.4996 0.67944h0.0936c0.57033-7.8e-4 1.1131-0.24557 1.4918-0.67187l5.6393-6.3028c0.31392-0.35153 0.49378-0.8023 0.50767-1.2733v0.60145l11.443-12.981c0.22634-0.25834 0.38229-0.57026 0.45301-0.90618 3.4376-4.315 5.6861-9.7004 5.6861-15.66 0-13.681-10.959-24.738-24.525-25.181-0.24915-0.10757-0.51751-0.16357-0.78888-0.16396z" color="#000000" fill="#212121" font-family="sans-serif" font-weight="400" overflow="visible" stroke-width="3.9987" style="isolation:auto;mix-blend-mode:normal;text-decoration-color:#000000;text-decoration-line:none;text-decoration-style:solid;text-indent:0;text-transform:none"/><circle cx="675.4" cy="515.35" r="10.945" fill="#D8E3E1" style="paint-order:stroke fill markers"/><rect x="634.27" y="563.54" width="82.289" height="1.8135" fill="#212121" stroke="#212121" stroke-linecap="round" stroke-linejoin="round" stroke-width="4.4713" style="paint-order:markers stroke fill"/></g></g></svg>
