<?xml version="1.0" encoding="UTF-8"?>
<svg version="1.1" viewBox="0 0 160 160" xml:space="preserve" xmlns="http://www.w3.org/2000/svg">
<desc>Created with Fabric.js 4.2.0</desc>


<g transform="translate(256,256)">
<rect x="-256" y="-256" width="512" height="512" rx="0" ry="0" fill-opacity="0" vector-effect="non-scaling-stroke"/>
</g>



<g transform="matrix(1.1898 0 0 1.1898 388.62 228.9)"><circle cx="-259.38" cy="-125.15" r="66.397" fill="#cc6ab2" vector-effect="non-scaling-stroke"/><g transform="translate(-488.03 -202.32)"><rect transform="scale(-1)" x="-241.24" y="-50.442" width="25.199" height="14.773" fill="#212121" stroke="#212121" stroke-linecap="round" stroke-linejoin="round" stroke-width="7.0619" style="paint-order:markers stroke fill"/><g transform="matrix(.26884 0 0 .26884 158.88 3.4922)" fill="#212121" stroke="#212121" stroke-linecap="round" stroke-linejoin="round" stroke-width="26.268"><rect transform="scale(-1)" x="-203.51" y="-393.59" width="93.732" height="54.95" style="paint-order:markers stroke fill"/><rect transform="scale(-1)" x="-409.21" y="-393.59" width="93.732" height="54.95" style="paint-order:markers stroke fill"/></g><g transform="matrix(.26884 0 0 .26884 159.32 3.4922)" fill="none" stroke="#212121"><path d="m257.85 176.54v67.425" stroke-width="16.244"/><path d="m154.27 339.9-0.0473-95.213h207.25l-0.26808 95.3" stroke-linecap="round" stroke-linejoin="round" stroke-width="14.711"/></g><rect x="186.56" y="82.962" width="83.932" height="8.0652" fill="#cc6ab2" style="paint-order:markers stroke fill"/></g></g></svg>
