<svg width="64" height="64" viewBox="0 0 64 64" fill="none" xmlns="http://www.w3.org/2000/svg">
<g clip-path="url(#clip0_1988_660)">
<path d="M50.9474 0H13.0526C12.7735 0 12.5057 0.112384 12.3083 0.312428C12.1109 0.512472 12 0.78379 12 1.0667V24.8601C11.9978 25.6182 12.2622 26.3523 12.7458 26.9307C13.2293 27.5091 13.9005 27.894 14.6387 28.0163L30.9474 30.771V31.5775C30.5321 31.7854 30.1878 32.1147 29.959 32.5228L25.7346 40.223C25.7184 40.2526 25.696 40.2782 25.669 40.2982C25.642 40.3181 25.6111 40.3319 25.5783 40.3386L17.0453 42.0303C16.6369 42.1115 16.2573 42.3018 15.9458 42.5815C15.6343 42.8613 15.4023 43.2203 15.2737 43.6214C15.145 44.0225 15.1245 44.4512 15.2142 44.863C15.3039 45.2749 15.5006 45.6549 15.7839 45.9639L21.706 52.4163C21.7289 52.441 21.746 52.4705 21.7563 52.5027C21.7666 52.535 21.7698 52.5691 21.7656 52.6027L20.7172 61.3477C20.6669 61.7665 20.728 62.1913 20.8941 62.5781C21.0603 62.9649 21.3255 63.2997 21.6622 63.5478C21.999 63.7958 22.3951 63.9481 22.8094 63.9889C23.2238 64.0297 23.6414 63.9575 24.019 63.7798L31.9032 60.0661C31.9336 60.0517 31.9667 60.0442 32.0003 60.0442C32.0339 60.0442 32.0671 60.0517 32.0975 60.0661L39.9817 63.7798C40.3592 63.9575 40.7767 64.0297 41.191 63.9889C41.6053 63.9482 42.0014 63.7959 42.3381 63.548C42.6749 63.3 42.9401 62.9654 43.1063 62.5786C43.2725 62.1919 43.3337 61.7672 43.2836 61.3484L42.235 52.6015C42.231 52.5679 42.2342 52.5337 42.2446 52.5015C42.255 52.4693 42.2723 52.4398 42.2952 52.4151L48.2161 45.9639C48.4994 45.6549 48.696 45.2748 48.7857 44.8629C48.8753 44.4511 48.8548 44.0224 48.7261 43.6213C48.5974 43.2202 48.3653 42.8612 48.0538 42.5816C47.7423 42.3019 47.3626 42.1116 46.9542 42.0305L38.4233 40.3388C38.3902 40.3324 38.3589 40.3187 38.3317 40.2987C38.3044 40.2788 38.2817 40.253 38.2654 40.2232L34.0411 32.5228C33.8122 32.1147 33.4679 31.7854 33.0526 31.5775V30.771L49.3607 28.0163C50.0991 27.8941 50.7704 27.5093 51.254 26.9308C51.7377 26.3524 52.0022 25.6183 52 24.8601V1.0667C52 0.78379 51.8891 0.512472 51.6917 0.312428C51.4943 0.112384 51.2265 0 50.9474 0ZM22.5263 27.186L14.9846 25.9122C14.7385 25.8715 14.5148 25.7432 14.3536 25.5504C14.1925 25.3575 14.1044 25.1128 14.1053 24.8601V2.13339H22.5263V27.186ZM25.9839 42.4324C26.3172 42.3661 26.6322 42.2269 26.907 42.0245C27.1817 41.8221 27.4096 41.5614 27.5746 41.2605L30.9474 35.1126V47.5547L20.0462 43.6094L25.9839 42.4324ZM23.0778 59.3462L23.8555 52.8598C23.897 52.5178 23.8641 52.1707 23.7591 51.843C23.6541 51.5153 23.4794 51.2149 23.2475 50.9629L17.8454 45.0776L30.3016 49.5857L23.0778 59.3462ZM32.9843 58.1308C32.676 57.9853 32.3401 57.91 32.0001 57.91C31.6601 57.91 31.3242 57.9853 31.0159 58.1308L24.249 61.3183L32 50.8451L39.7513 61.3183L32.9843 58.1308ZM40.7527 50.9618C40.5208 51.2138 40.3461 51.5142 40.2409 51.8419C40.1358 52.1696 40.1028 52.5167 40.1442 52.8587L40.9219 59.346L33.6981 49.5858L46.1542 45.0777L40.7527 50.9618ZM36.4251 41.2605C36.5902 41.5616 36.8183 41.8224 37.0934 42.0248C37.3684 42.2273 37.6838 42.3664 38.0174 42.4324L43.9535 43.6094L33.0526 47.5547V35.1126L36.4251 41.2605ZM39.3684 27.5421L32 28.7867L24.6316 27.5421V2.13339H39.3684V27.5421ZM49.8947 24.8606C49.8956 25.1133 49.8075 25.3581 49.6464 25.5509C49.4852 25.7437 49.2615 25.872 49.0154 25.9127L41.4737 27.1859V2.13339H49.8947V24.8606Z" fill="#252525"/>
</g>
<defs>
<clipPath id="clip0_1988_660">
<rect width="64" height="64" fill="white"/>
</clipPath>
</defs>
</svg>
