<svg id="Layer_1" data-name="Layer 1" xmlns="http://www.w3.org/2000/svg" viewBox="0 0 20 22.96"><defs><style>.cls-1{fill:#353535;}</style></defs><title>asmenybes</title><path class="cls-1" d="M19,29a.37.37,0,1,0,.37.37A.37.37,0,0,0,19,29Zm0-1.48a.37.37,0,1,0,.37.37A.37.37,0,0,0,19,27.48ZM19,26a.37.37,0,1,0,.37.37A.37.37,0,0,0,19,26Zm0-1.48a.37.37,0,1,0,.37.37A.37.37,0,0,0,19,24.52ZM19,23a.37.37,0,1,0,.37.37A.37.37,0,0,0,19,23Zm1.92-2.18,1,.32a6.25,6.25,0,0,1,4.5,3.25,13,13,0,0,1,1.13,5.65h-3.7V25.63a.37.37,0,1,0-.74,0v.21L23,25.74a.37.37,0,0,0-.53.52l.63.63v3.18H20.85V23a.37.37,0,0,0-.14-.29l-1.1-.86Zm-3.84,0,3,2.36v6.85H14.92V26.9l.63-.63a.37.37,0,1,0-.52-.52l-.11.11v-.22a.37.37,0,1,0-.74,0v4.44h-3.7a13,13,0,0,1,1.13-5.65,6.25,6.25,0,0,1,4.5-3.25l1-.31Zm.44-1.33a3.71,3.71,0,0,0,1.11.17h.74a3.71,3.71,0,0,0,1.11-.17v.73L19,21.42l-1.48-1.15Zm4.82-5.92v.6a.37.37,0,0,0,.49.35.75.75,0,0,1,.25,0,.74.74,0,0,1,0,1.48.76.76,0,0,1-.26,0,.37.37,0,0,0-.48.22,2.49,2.49,0,0,0,0,.25A3,3,0,0,1,19.37,19h-.74a3,3,0,0,1-2.94-2.57,1.2,1.2,0,0,0,0-.22.37.37,0,0,0-.48-.22.75.75,0,0,1-1-.7.73.73,0,0,1,.74-.74.72.72,0,0,1,.25,0,.37.37,0,0,0,.49-.35v-.59a24.52,24.52,0,0,0,3.33.16,32.38,32.38,0,0,0,3.34-.16Zm-7-1.32H22.7a.36.36,0,0,1,.36.36,1.59,1.59,0,0,1-.51.17A19.86,19.86,0,0,1,19,13a19.83,19.83,0,0,1-3.55-.21,1.59,1.59,0,0,1-.51-.17A.36.36,0,0,1,15.3,12.3Zm3-2.59a.37.37,0,0,0,0,.74h1.48a.37.37,0,1,0,0-.74Zm-.74-1.11h3a1.84,1.84,0,0,1,1.85,1.85v1.11H15.67V10.44A1.84,1.84,0,0,1,17.52,8.59Zm0-.74a2.59,2.59,0,0,0-2.59,2.59v1.18a1.12,1.12,0,0,0-.74,1,.78.78,0,0,0,.32.59,1.51,1.51,0,0,0,.42.2v.32a1.48,1.48,0,1,0,0,3H15a3.7,3.7,0,0,0,1.78,2.47v1l-.83.28a7.07,7.07,0,0,0-5,3.63,13.62,13.62,0,0,0-1.21,6H9.37a.37.37,0,0,0,0,.74H28.63a.37.37,0,1,0,0-.74h-.38a13.62,13.62,0,0,0-1.21-6,7.07,7.07,0,0,0-5-3.63l-.83-.28v-1A3.7,3.7,0,0,0,23,16.74h.07a1.48,1.48,0,1,0,0-3v-.32a1.51,1.51,0,0,0,.42-.2.78.78,0,0,0,.32-.59,1.12,1.12,0,0,0-.74-1V10.44a2.59,2.59,0,0,0-2.59-2.59Z" transform="translate(-9 -7.85)"/></svg>