<svg width="64" height="64" viewBox="0 0 64 64" fill="none" xmlns="http://www.w3.org/2000/svg">
<path d="M54.0483 13.8593H42.9618V9.75079C42.9618 6.99743 40.7419 4.75732 38.0135 4.75732H25.9874C23.259 4.75732 21.0392 6.99743 21.0392 9.75079V13.8593H9.95259C6.1189 13.8593 3 17.0067 3 20.8755V37.0569C3 38.699 3.78984 40.1582 5.00598 41.0688C5.0056 41.0801 5.00435 41.0909 5.00435 41.1022V52.2269C5.00435 56.0956 8.12325 59.243 11.9569 59.243H52.044C55.8777 59.243 58.9966 56.0956 58.9966 52.2269V41.1022C58.9966 41.0909 58.9953 41.0801 58.9949 41.0688C60.2111 40.1582 61.0009 38.699 61.0009 37.0569V20.8755C61.0009 17.0067 57.882 13.8593 54.0483 13.8593ZM22.9182 9.75079C22.9182 8.04303 24.295 6.65358 25.9874 6.65358H38.0135C39.7059 6.65358 41.0827 8.04303 41.0827 9.75079V13.8593H38.953V9.75079C38.953 9.22717 38.5325 8.80267 38.0135 8.80267H25.9874C25.4684 8.80267 25.0479 9.22717 25.0479 9.75079V13.8593H22.9182V9.75079ZM26.9269 13.8593V10.6989H37.074V13.8593H26.9269ZM57.1175 52.2269C57.1175 55.05 54.8415 57.3468 52.044 57.3468H11.9569C9.15937 57.3468 6.88343 55.05 6.88343 52.2269V41.9326C7.22668 42.009 7.5827 42.0503 7.94824 42.0503H13.0218V43.1249C13.0218 44.763 14.3424 46.0957 15.9656 46.0957H17.97C19.5933 46.0957 20.9139 44.763 20.9139 43.1249V42.0503H43.087V43.1249C43.087 44.763 44.4076 46.0957 46.0309 46.0957H48.0353C49.6585 46.0957 50.9792 44.763 50.9792 43.1249V42.0503H56.0527C56.4182 42.0503 56.7742 42.0089 57.1175 41.9326V52.2269ZM19.0348 40.1541H14.9008V39.0795C14.9008 38.487 15.3785 38.005 15.9656 38.005H17.97C18.5571 38.005 19.0348 38.487 19.0348 39.0795V40.1541ZM19.0348 42.0503V43.1249C19.0348 43.7174 18.5571 44.1994 17.97 44.1994H15.9656C15.3785 44.1994 14.9008 43.7174 14.9008 43.1249V42.0503H19.0348ZM49.1001 40.1541H44.9661V39.0795C44.9661 38.487 45.4438 38.005 46.0309 38.005H48.0353C48.6224 38.005 49.1001 38.487 49.1001 39.0795V40.1541ZM49.1001 42.0503V43.1249C49.1001 43.7174 48.6224 44.1994 48.0353 44.1994H46.0309C45.4438 44.1994 44.9661 43.7174 44.9661 43.1249V42.0503H49.1001ZM59.1218 37.0569C59.1218 38.7646 57.7451 40.1541 56.0527 40.1541H50.9792V39.0795C50.9792 37.4414 49.6585 36.1087 48.0353 36.1087H46.0309C44.4076 36.1087 43.087 37.4414 43.087 39.0795V40.1541H20.9139V39.0795C20.9139 37.4414 19.5933 36.1087 17.97 36.1087H15.9656C14.3424 36.1087 13.0218 37.4414 13.0218 39.0795V40.1541H7.94824C6.25582 40.1541 4.87908 38.7646 4.87908 37.0569V20.8755C4.87908 18.0523 7.15502 15.7556 9.95259 15.7556H54.0483C56.8459 15.7556 59.1218 18.0523 59.1218 20.8755V37.0569Z" fill="#252525"/>
</svg>
