<svg id="Layer_1" data-name="Layer 1" xmlns="http://www.w3.org/2000/svg" viewBox="0 0 26.93 26.93"><defs><style>.cls-1{fill:#010101;}</style></defs><title>dirbo</title><path class="cls-1" d="M24.83,11A13.46,13.46,0,1,0,38.3,24.42,13.46,13.46,0,0,0,24.83,11ZM34.94,31.46a1.09,1.09,0,0,1-1.09,1.09H16a1.09,1.09,0,0,1-1.09-1.09v-1h20Zm0-1.64h-20V21.4A12.78,12.78,0,0,0,18,24.12,11.92,11.92,0,0,0,23.62,26v.64a1.16,1.16,0,0,0,1.16,1.16h.28a1.15,1.15,0,0,0,1.16-1.16V26a11.92,11.92,0,0,0,5.64-1.9,12.78,12.78,0,0,0,3.09-2.72ZM31.5,23.6a11.27,11.27,0,0,1-5.28,1.8V25a1.16,1.16,0,0,0-.34-.82,1.14,1.14,0,0,0-.82-.34h-.28A1.17,1.17,0,0,0,23.62,25v.36a11.27,11.27,0,0,1-5.28-1.8c-1.24-.85-2.83-2-3.44-3.43v-.42a1.07,1.07,0,0,1,.32-.76,1.09,1.09,0,0,1,.77-.32h5.68V15.44h6.66v3.22h5.52a1.09,1.09,0,0,1,1.09,1.09v.42C34.33,21.61,32.74,22.76,31.5,23.6Z" transform="translate(-11.37 -10.95)"/></svg>