<svg id="Layer_1" data-name="Layer 1" xmlns="http://www.w3.org/2000/svg" viewBox="0 0 26.93 26.93"><defs><style>.cls-1{fill:#010101;}</style></defs><title>Emigravo</title><path class="cls-1" d="M20.09,19.41a8.25,8.25,0,0,1-2.51-1A9.29,9.29,0,0,0,15.35,24h4.08A17.92,17.92,0,0,1,20.09,19.41Z" transform="translate(-11.37 -10.95)"/><path class="cls-1" d="M19.43,24.8H15.35a9.3,9.3,0,0,0,2.25,5.68,7.85,7.85,0,0,1,2.5-1.06A17.73,17.73,0,0,1,19.43,24.8Z" transform="translate(-11.37 -10.95)"/><path class="cls-1" d="M18.13,31.06a9.34,9.34,0,0,0,4.13,2.36,8.5,8.5,0,0,1-1.93-3.26A7.77,7.77,0,0,0,18.13,31.06Z" transform="translate(-11.37 -10.95)"/><path class="cls-1" d="M24.28,33.7v-4a18.23,18.23,0,0,0-3.16.32C21.86,32,23,33.46,24.28,33.7Z" transform="translate(-11.37 -10.95)"/><path class="cls-1" d="M22.26,15.41a9.36,9.36,0,0,0-4.14,2.38,7.81,7.81,0,0,0,2.21.88A8.52,8.52,0,0,1,22.26,15.41Z" transform="translate(-11.37 -10.95)"/><path class="cls-1" d="M25.05,15.13v4a18.36,18.36,0,0,0,3.17-.32C27.47,16.79,26.33,15.37,25.05,15.13Z" transform="translate(-11.37 -10.95)"/><path class="cls-1" d="M28.47,19.59a19.52,19.52,0,0,1-3.41.35V24h4.08A17.09,17.09,0,0,0,28.47,19.59Z" transform="translate(-11.37 -10.95)"/><path class="cls-1" d="M29.13,24.8H25.05v4.08a18.92,18.92,0,0,1,3.41.36A17.1,17.1,0,0,0,29.13,24.8Z" transform="translate(-11.37 -10.95)"/><path class="cls-1" d="M29.24,29.43a7.82,7.82,0,0,1,2.49,1.06A9.27,9.27,0,0,0,34,24.8H29.91A18,18,0,0,1,29.24,29.43Z" transform="translate(-11.37 -10.95)"/><path class="cls-1" d="M31.22,17.78a9.36,9.36,0,0,0-4.14-2.38A8.52,8.52,0,0,1,29,18.67,7.87,7.87,0,0,0,31.22,17.78Z" transform="translate(-11.37 -10.95)"/><path class="cls-1" d="M27.08,33.43a9.32,9.32,0,0,0,4.12-2.36,7.7,7.7,0,0,0-2.2-.9A8.56,8.56,0,0,1,27.08,33.43Z" transform="translate(-11.37 -10.95)"/><path class="cls-1" d="M29.24,19.41A17.92,17.92,0,0,1,29.91,24H34a9.26,9.26,0,0,0-2.23-5.66A8.19,8.19,0,0,1,29.24,19.41Z" transform="translate(-11.37 -10.95)"/><path class="cls-1" d="M24.83,11A13.46,13.46,0,1,0,38.3,24.42,13.46,13.46,0,0,0,24.83,11ZM24,34.5A10.1,10.1,0,1,1,34.75,23.76,10.13,10.13,0,0,1,24,34.5Z" transform="translate(-11.37 -10.95)"/><path class="cls-1" d="M25.05,29.67v4c1.28-.24,2.42-1.65,3.17-3.71A18.29,18.29,0,0,0,25.05,29.67Z" transform="translate(-11.37 -10.95)"/><path class="cls-1" d="M20.2,24h4.07V19.94a19.52,19.52,0,0,1-3.41-.35A16.88,16.88,0,0,0,20.2,24Z" transform="translate(-11.37 -10.95)"/><path class="cls-1" d="M21.11,18.85a18.42,18.42,0,0,0,3.17.32v-4C23,15.37,21.86,16.79,21.11,18.85Z" transform="translate(-11.37 -10.95)"/><path class="cls-1" d="M20.87,29.25a18.92,18.92,0,0,1,3.41-.36V24.8H20.2A16.67,16.67,0,0,0,20.87,29.25Z" transform="translate(-11.37 -10.95)"/></svg>