<svg width="64" height="64" viewBox="0 0 64 64" fill="none" xmlns="http://www.w3.org/2000/svg">
<path fill-rule="evenodd" clip-rule="evenodd" d="M62.0005 32.9093C62.7653 32.9093 63.1883 33.796 62.7072 34.3905L58.1815 42.5978C54.983 48.3982 48.8833 52.0003 42.2596 52.0003H10.3782C8.42174 52.0003 6.68478 50.7483 6.06606 48.8922L1.13721 34.1058C0.940937 33.5171 1.37914 32.9093 1.99958 32.9093H62.0005ZM7.99657 32.0002H32.7572L29.3722 25.2299C29.2181 24.9219 28.9033 24.7273 28.559 24.7273H8.90571C8.40356 24.7273 7.99657 25.1344 7.99657 25.6365V32.0002ZM9.20875 30.788V25.9395H28.3717L30.7959 30.788H9.20875ZM12.5421 23.8183H18.9057V17.4546H12.5421V23.8183ZM13.7542 22.6061V18.6668H17.6936V22.6061H13.7542ZM61.4712 34.1215H2.42019L7.21604 48.5088C7.66978 49.8701 8.94354 50.7881 10.3782 50.7881H42.2596C48.4417 50.7881 54.1348 47.4262 57.12 42.0125L61.4712 34.1215ZM18.9057 12V15.6365H12.5421V12H18.9057ZM13.7542 13.2122V14.4243H17.6936V13.2122H13.7542ZM14.7803 37.7495C16.4239 37.7495 17.7561 39.0818 17.7561 40.7254C17.7561 42.369 16.4237 43.7012 14.7803 43.7012C13.1368 43.7012 11.8044 42.369 11.8044 40.7254C11.8044 39.0818 13.1367 37.7495 14.7803 37.7495ZM22.053 37.7495C23.6965 37.7495 25.0289 39.0817 25.0289 40.7254C25.0289 42.369 23.6965 43.7012 22.053 43.7012C20.4096 43.7012 19.0772 42.369 19.0772 40.7254C19.0772 39.0818 20.4094 37.7495 22.053 37.7495ZM29.3258 37.7495C30.9694 37.7495 32.3016 39.0818 32.3016 40.7254C32.3016 42.3689 30.9694 43.7012 29.3258 43.7012C27.6824 43.7012 26.35 42.369 26.35 40.7254C26.35 39.0818 27.6822 37.7495 29.3258 37.7495ZM14.7803 38.9616C15.7544 38.9616 16.5439 39.7512 16.5439 40.7254C16.5439 41.6995 15.7543 42.489 14.7803 42.489C13.8063 42.489 13.0166 41.6995 13.0166 40.7254C13.0166 39.7512 13.8062 38.9616 14.7803 38.9616ZM22.053 38.9616C23.0271 38.9616 23.8167 39.7512 23.8167 40.7254C23.8167 41.6995 23.0271 42.489 22.053 42.489C21.079 42.489 20.2893 41.6995 20.2893 40.7254C20.2893 39.7512 21.0789 38.9616 22.053 38.9616ZM29.3258 38.9616C30.2999 38.9616 31.0894 39.7512 31.0894 40.7254C31.0894 41.6995 30.2999 42.489 29.3258 42.489C28.3518 42.489 27.5622 41.6995 27.5622 40.7254C27.5622 39.7512 28.3517 38.9616 29.3258 38.9616Z" fill="#252525"/>
<path fill-rule="evenodd" clip-rule="evenodd" d="M12.2923 11.75H19.1559V15.8865H12.2923V11.75ZM12.7923 12.25V15.3865H18.6559V12.25H12.7923ZM13.5044 12.9622H17.9437V14.6743H13.5044V12.9622ZM14.0044 13.4622V14.1743H17.4437V13.4622H14.0044ZM12.2923 17.2046H19.1559V24.0683H12.2923V17.2046ZM12.7923 17.7046V23.5683H18.6559V17.7046H12.7923ZM13.5044 18.4168H17.9437V22.8561H13.5044V18.4168ZM14.0044 18.9168V22.3561H17.4437V18.9168H14.0044ZM8.9059 24.9773C8.54184 24.9773 8.24676 25.2725 8.24676 25.6365V31.7502H32.3529L29.1488 25.3417C29.1488 25.3417 29.1488 25.3417 29.1488 25.3417C29.037 25.1184 28.8088 24.9773 28.5592 24.9773H8.9059ZM7.74676 25.6365C7.74676 24.9964 8.26566 24.4773 8.9059 24.4773H28.5592C28.9982 24.4773 29.3996 24.7254 29.5959 25.1181L33.1619 32.2502H7.74676V25.6365ZM8.95895 25.6895H28.5264L31.2006 31.038H8.95895V25.6895ZM9.45895 26.1895V30.538H30.3915L28.2174 26.1895H9.45895ZM1.99977 33.1593C1.54995 33.1593 1.23228 33.6 1.37457 34.0268L6.22437 48.5759L6.9 48.3507L2.07352 33.8715H61.8948L57.3391 42.1332C54.3099 47.6267 48.533 51.0381 42.2598 51.0381H10.3784C8.92 51.0381 7.61627 50.1556 7.06635 48.8223L6.38934 49.048C7.03731 50.672 8.61333 51.7503 10.3784 51.7503H42.2598C48.7924 51.7503 54.8083 48.1977 57.9627 42.4771L62.4991 34.2504L62.513 34.2332C62.8619 33.8022 62.5551 33.1593 62.0007 33.1593H1.99977ZM0.900237 34.1849C0.649982 33.4343 1.20872 32.6593 1.99977 32.6593H62.0007C62.9679 32.6593 63.5065 33.7718 62.9162 34.5295L58.4006 42.7185C55.1582 48.5987 48.9746 52.2503 42.2598 52.2503H10.3784C8.31432 52.2503 6.48183 50.9295 5.82908 48.9712L0.900237 34.1849ZM2.76724 34.3715L7.4534 48.4298C7.87312 49.6889 9.05135 50.5381 10.3784 50.5381H42.2598C48.3508 50.5381 53.96 47.2257 56.9012 41.8917L61.0481 34.3715H2.76724ZM11.5546 40.7254C11.5546 38.9437 12.9988 37.4995 14.7805 37.4995C16.5621 37.4995 18.0063 38.9437 18.0063 40.7254C18.0063 42.5071 16.5619 43.9512 14.7805 43.9512C12.999 43.9512 11.5546 42.5071 11.5546 40.7254ZM14.7805 37.9995C13.2749 37.9995 12.0546 39.2198 12.0546 40.7254C12.0546 42.2309 13.2751 43.4512 14.7805 43.4512C16.2858 43.4512 17.5063 42.2309 17.5063 40.7254C17.5063 39.2198 16.286 37.9995 14.7805 37.9995ZM18.8274 40.7254C18.8274 38.9437 20.2715 37.4995 22.0532 37.4995C23.8347 37.4995 25.2791 38.9436 25.2791 40.7254C25.2791 42.5071 23.8347 43.9512 22.0532 43.9512C20.2717 43.9512 18.8274 42.5071 18.8274 40.7254ZM22.0532 37.9995C20.5476 37.9995 19.3274 39.2198 19.3274 40.7254C19.3274 42.2309 20.5478 43.4512 22.0532 43.4512C23.5586 43.4512 24.7791 42.2309 24.7791 40.7254C24.7791 39.2197 23.5586 37.9995 22.0532 37.9995ZM26.1002 40.7254C26.1002 38.9437 27.5443 37.4995 29.326 37.4995C31.1077 37.4995 32.5518 38.9437 32.5518 40.7254C32.5518 42.507 31.1076 43.9512 29.326 43.9512C27.5445 43.9512 26.1002 42.5071 26.1002 40.7254ZM29.326 37.9995C27.8205 37.9995 26.6002 39.2198 26.6002 40.7254C26.6002 42.2309 27.8206 43.4512 29.326 43.4512C30.8315 43.4512 32.0518 42.2309 32.0518 40.7254C32.0518 39.2198 30.8315 37.9995 29.326 37.9995ZM12.7668 40.7254C12.7668 39.6131 13.6683 38.7116 14.7805 38.7116C15.8926 38.7116 16.7941 39.6131 16.7941 40.7254C16.7941 41.8375 15.8925 42.739 14.7805 42.739C13.6684 42.739 12.7668 41.8375 12.7668 40.7254ZM14.7805 39.2116C13.9444 39.2116 13.2668 39.8892 13.2668 40.7254C13.2668 41.5614 13.9445 42.239 14.7805 42.239C15.6164 42.239 16.2941 41.5614 16.2941 40.7254C16.2941 39.8892 15.6165 39.2116 14.7805 39.2116ZM20.0395 40.7254C20.0395 39.6131 20.941 38.7116 22.0532 38.7116C23.1653 38.7116 24.0669 39.6131 24.0669 40.7254C24.0669 41.8376 23.1653 42.739 22.0532 42.739C20.9411 42.739 20.0395 41.8375 20.0395 40.7254ZM22.0532 39.2116C21.2172 39.2116 20.5395 39.8892 20.5395 40.7254C20.5395 41.5614 21.2172 42.239 22.0532 42.239C22.8892 42.239 23.5669 41.5614 23.5669 40.7254C23.5669 39.8893 22.8892 39.2116 22.0532 39.2116ZM27.3124 40.7254C27.3124 39.6131 28.2138 38.7116 29.326 38.7116C30.4382 38.7116 31.3396 39.6131 31.3396 40.7254C31.3396 41.8375 30.4381 42.739 29.326 42.739C28.2139 42.739 27.3124 41.8375 27.3124 40.7254ZM29.326 39.2116C28.49 39.2116 27.8124 39.8892 27.8124 40.7254C27.8124 41.5614 28.4901 42.239 29.326 42.239C30.162 42.239 30.8396 41.5614 30.8396 40.7254C30.8396 39.8892 30.162 39.2116 29.326 39.2116Z" fill="#252525"/>
</svg>
