<svg width="64" height="64" viewBox="0 0 64 64" fill="none" xmlns="http://www.w3.org/2000/svg">
<path d="M25.2668 49.1492H19.2315C18.9591 49.1492 18.7383 49.37 18.7383 49.6424C18.7383 49.9148 18.9591 50.1357 19.2315 50.1357H25.2668C25.5392 50.1357 25.7601 49.9148 25.7601 49.6424C25.7601 49.37 25.5393 49.1492 25.2668 49.1492Z" fill="#252525"/>
<path d="M20.3522 40.9213C21.3671 40.9213 22.1928 40.0956 22.1928 39.0808C22.1928 38.0659 21.3671 37.2402 20.3522 37.2402C19.3374 37.2402 18.5117 38.0659 18.5117 39.0808C18.5116 40.0956 19.3374 40.9213 20.3522 40.9213ZM20.3522 38.2267C20.8232 38.2267 21.2062 38.6098 21.2062 39.0806C21.2062 39.5516 20.8231 39.9346 20.3522 39.9346C19.8814 39.9346 19.4983 39.5515 19.4983 39.0806C19.4981 38.6098 19.8813 38.2267 20.3522 38.2267Z" fill="#252525"/>
<path d="M32.778 40.9213C33.7929 40.9213 34.6186 40.0956 34.6186 39.0808C34.6186 38.0659 33.7929 37.2402 32.778 37.2402C31.7632 37.2402 30.9375 38.0659 30.9375 39.0808C30.9375 40.0956 31.7632 40.9213 32.778 40.9213ZM32.778 38.2267C33.249 38.2267 33.632 38.6098 33.632 39.0806C33.632 39.5516 33.2489 39.9346 32.778 39.9346C32.3072 39.9346 31.924 39.5515 31.924 39.0806C31.924 38.6098 32.307 38.2267 32.778 38.2267Z" fill="#252525"/>
<path d="M45.3327 40.9213C46.3476 40.9213 47.1732 40.0956 47.1732 39.0808C47.1732 38.0659 46.3476 37.2402 45.3327 37.2402C44.3179 37.2402 43.4922 38.0659 43.4922 39.0808C43.4922 40.0956 44.3179 40.9213 45.3327 40.9213ZM45.3327 38.2267C45.8037 38.2267 46.1867 38.6098 46.1867 39.0806C46.1867 39.5516 45.8036 39.9346 45.3327 39.9346C44.8617 39.9346 44.4787 39.5515 44.4787 39.0806C44.4787 38.6098 44.8618 38.2267 45.3327 38.2267Z" fill="#252525"/>
<path d="M33.0059 13.5754C35.0058 13.5754 36.6328 11.9483 36.6328 9.94846C36.6328 8.09145 33.7159 4.57103 33.3833 4.17572C33.2895 4.06441 33.1515 4 33.0059 4C32.8603 4 32.7222 4.0643 32.6284 4.17572C32.2958 4.57103 29.3789 8.09145 29.3789 9.94846C29.3789 11.9483 31.0059 13.5754 33.0059 13.5754ZM33.006 5.2731C34.1552 6.71901 35.6463 8.93442 35.6463 9.94846C35.6463 11.4044 34.4618 12.5889 33.0059 12.5889C31.55 12.5889 30.3654 11.4044 30.3654 9.94846C30.3654 8.93535 31.8567 6.7197 33.006 5.2731Z" fill="#252525"/>
<path d="M58.3169 54.6062V40.1889C58.3169 35.8838 54.8144 32.3814 50.5094 32.3814H35.938V17.0288C35.938 15.5409 34.7274 14.3303 33.2395 14.3303H32.311C30.8231 14.3303 29.6125 15.5409 29.6125 17.0288V32.3814H14.7083C10.4033 32.3814 6.90074 35.8838 6.90074 40.1889V54.604H5.76831C4.28062 54.604 3.07031 55.8143 3.07031 57.302C3.07031 58.7897 4.28062 60.0001 5.76843 60.0001H58.2297C59.7174 60.0001 60.9278 58.7897 60.9278 57.302C60.9277 55.8435 59.7643 54.6525 58.3169 54.6062ZM34.9514 21.5795L30.5991 25.9394V22.638L34.9514 18.2781V21.5795ZM30.5991 27.3358L34.9514 22.9759V26.2773L30.5991 30.6372V27.3358ZM32.311 15.3169H33.2395C34.1363 15.3169 34.8729 16.0103 34.9443 16.8889L30.5991 21.2418V17.0288C30.5991 16.0848 31.3671 15.3169 32.311 15.3169ZM30.5991 32.0335L34.9514 27.6736V32.3815H30.5991V32.0335ZM14.7083 33.3679H50.5094C54.2705 33.3679 57.3303 36.4278 57.3303 40.1889V42.5974C56.1838 42.5376 55.5475 42.2662 54.8793 41.9805C54.0643 41.6321 53.2217 41.2718 51.5561 41.2718C49.8902 41.2718 49.0475 41.6321 48.2325 41.9806C47.4756 42.3042 46.7606 42.6099 45.2969 42.6099C43.8329 42.6099 43.1179 42.3042 42.3608 41.9806C41.5458 41.6322 40.7029 41.2719 39.037 41.2719C37.371 41.2719 36.5281 41.6322 35.713 41.9807C34.9561 42.3043 34.2409 42.61 32.777 42.61C31.3131 42.61 30.598 42.3043 29.8409 41.9807C29.0259 41.6323 28.1831 41.2719 26.517 41.2719C24.851 41.2719 24.0082 41.6322 23.1931 41.9807C22.436 42.3043 21.7209 42.61 20.257 42.61C18.7928 42.61 18.0776 42.3043 17.3204 41.9807C16.5053 41.6323 15.6623 41.272 13.9961 41.272C12.3299 41.272 11.4871 41.6323 10.6719 41.9807C9.94182 42.2928 9.24858 42.5874 7.88716 42.608V40.189C7.88728 36.4278 10.9472 33.3679 14.7083 33.3679ZM7.88727 50.1359H15.4024C15.6748 50.1359 15.8956 49.915 15.8956 49.6426C15.8956 49.3702 15.6748 49.1493 15.4024 49.1493H7.88727V43.5945C9.45204 43.5729 10.2702 43.2253 11.0597 42.8877C11.8168 42.5642 12.5321 42.2584 13.9963 42.2584C15.4605 42.2584 16.1756 42.5642 16.9328 42.8877C17.7479 43.2362 18.591 43.5964 20.2572 43.5964C21.9231 43.5964 22.7659 43.2362 23.581 42.8877C24.338 42.564 25.0531 42.2584 26.5171 42.2584C27.9811 42.2584 28.6962 42.5642 29.4533 42.8877C30.2683 43.2362 31.1111 43.5964 32.7771 43.5964C34.4431 43.5964 35.2859 43.2362 36.1009 42.8877C36.8579 42.5642 37.5731 42.2584 39.037 42.2584C40.5009 42.2584 41.2159 42.5642 41.973 42.8877C42.788 43.2362 43.6309 43.5964 45.2969 43.5964C46.9627 43.5964 47.8054 43.2362 48.6204 42.8877C49.3774 42.5642 50.0923 42.2584 51.5561 42.2584C53.0196 42.2584 53.7346 42.564 54.4914 42.8877C55.223 43.2004 55.9788 43.5219 57.3302 43.5847V49.1493H31.7809C31.5085 49.1493 31.2877 49.3702 31.2877 49.6426C31.2877 49.915 31.5085 50.1359 31.7809 50.1359H57.3303V54.604H7.88727V50.1359ZM58.2296 59.0135H5.76843C4.82472 59.0135 4.05685 58.2457 4.05685 57.302C4.05685 56.3583 4.8246 55.5905 5.76843 55.5905H7.39412H57.8236H58.2297C59.1734 55.5905 59.9413 56.3583 59.9413 57.302C59.9412 58.2457 59.1734 59.0135 58.2296 59.0135Z" fill="#252525"/>
</svg>
