<svg id="Layer_1" data-name="Layer 1" xmlns="http://www.w3.org/2000/svg" viewBox="0 0 12.94 19.39"><defs><style>.cls-1{fill:#353535;}</style></defs><title>ivykiai</title><path class="cls-1" d="M23.52,12.19a5.35,5.35,0,0,1-.11,1.32,4.33,4.33,0,0,1-.76,1.69,8.34,8.34,0,0,1-1.4,1.45,6.61,6.61,0,0,0-1.39,1.44,1.92,1.92,0,0,0-.34,1.24,1.68,1.68,0,0,0,.1.75,4.41,4.41,0,0,0,1.47,1.79,6.2,6.2,0,0,1,2.17,2.77,4.88,4.88,0,0,1,.26,1.83l0,.93H14.47v-.72A6,6,0,0,1,14.64,25a5.34,5.34,0,0,1,2-2.81c1.19-1,1.58-1.5,1.79-2.08a1.72,1.72,0,0,0,.1-.75,1.78,1.78,0,0,0-.08-.72,4.42,4.42,0,0,0-1.48-1.82c-1.53-1.34-2-2-2.32-3.29a5.53,5.53,0,0,1-.11-1.32l0-.92h9.08ZM13.07,9.67a1,1,0,0,0-.29.2.78.78,0,0,0,0,1.14.94.94,0,0,0,.7.24l.34,0,0,.92a5.68,5.68,0,0,0,.3,2.07,6.49,6.49,0,0,0,2.21,2.89c.92.81,1.16,1.08,1.36,1.49a1.12,1.12,0,0,1,.14.69,1.12,1.12,0,0,1-.14.69,3.6,3.6,0,0,1-1,1.17,16.12,16.12,0,0,0-1.54,1.46,5.32,5.32,0,0,0-1.24,2.5,7.26,7.26,0,0,0-.1,1.31l0,.94h-.18c-.55,0-.85.14-1,.48a.58.58,0,0,0-.08.42.81.81,0,0,0,.38.61l.16.11H24.92l.16-.11a.81.81,0,0,0,.38-.61.58.58,0,0,0-.08-.42c-.16-.34-.46-.48-1-.48h-.18l0-.94a5.55,5.55,0,0,0-.29-2,6.43,6.43,0,0,0-2.21-2.92c-1.06-.94-1.28-1.2-1.45-1.69a1.63,1.63,0,0,1,0-1c.16-.49.48-.85,1.61-1.85a6.1,6.1,0,0,0,2-2.76,5.56,5.56,0,0,0,.29-2l0-.94.34,0a.92.92,0,0,0,.71-.26.8.8,0,0,0-.15-1.24l-.16-.11H19.06C15.39,9.64,13.15,9.65,13.07,9.67Z" transform="translate(-12.53 -9.64)"/><path class="cls-1" d="M15,13.68a5.82,5.82,0,0,0,.37.89A6.8,6.8,0,0,0,17,16.44a5.61,5.61,0,0,1,1.57,1.77,2.42,2.42,0,0,1,.25.89c0,.35.11.45.24.36s.08-.14.11-.38c.13-1,.45-1.44,2-2.8A5.27,5.27,0,0,0,22.92,14c.06-.17.11-.32.11-.33s-1.82,0-4,0S15,13.67,15,13.68Z" transform="translate(-12.53 -9.64)"/><path class="cls-1" d="M18.92,19.78a.24.24,0,1,0,.27.1.5.5,0,0,0-.21-.13Z" transform="translate(-12.53 -9.64)"/><path class="cls-1" d="M19.24,20.45a.23.23,0,1,0,.29.1A.22.22,0,0,0,19.24,20.45Z" transform="translate(-12.53 -9.64)"/><path class="cls-1" d="M18.53,21a.21.21,0,0,0,0,.34.25.25,0,0,0,.42-.17.34.34,0,0,0-.25-.25A.35.35,0,0,0,18.53,21Z" transform="translate(-12.53 -9.64)"/><path class="cls-1" d="M19.24,21.74a.23.23,0,1,0,.29.1A.22.22,0,0,0,19.24,21.74Z" transform="translate(-12.53 -9.64)"/><path class="cls-1" d="M18.49,22.62a.2.2,0,0,0,0,.29.24.24,0,0,0,.4,0,.17.17,0,0,0,0-.21A.25.25,0,0,0,18.49,22.62Z" transform="translate(-12.53 -9.64)"/><path class="cls-1" d="M19.15,23.41a.26.26,0,0,0-.08.15c0,.09.16.27.24.27a.34.34,0,0,0,.25-.25.27.27,0,0,0-.25-.24A.28.28,0,0,0,19.15,23.41Z" transform="translate(-12.53 -9.64)"/><path class="cls-1" d="M18.19,24.05a.26.26,0,0,0,.06.38.17.17,0,0,0,.21,0,.25.25,0,0,0-.11-.46A.26.26,0,0,0,18.19,24.05Z" transform="translate(-12.53 -9.64)"/><path class="cls-1" d="M18.79,24.34C18.54,24.47,15,27,15,27a30.32,30.32,0,0,0,4,.06A30.45,30.45,0,0,0,23,27s-.69-.53-1.56-1.14C20,24.87,19.9,24.8,20,24.77a.22.22,0,0,0,.15-.37.24.24,0,0,0-.41.2c0,.11,0,.11-.27-.09S19,24.25,18.79,24.34Z" transform="translate(-12.53 -9.64)"/></svg>