<svg width="64" height="64" viewBox="0 0 64 64" fill="none" xmlns="http://www.w3.org/2000/svg">
<path fill-rule="evenodd" clip-rule="evenodd" d="M5 54.1776C5 53.7016 5.39345 53.3158 5.87879 53.3158H58.1212C58.6066 53.3158 59 53.7016 59 54.1776V58.1382C59 58.6142 58.6066 59 58.1212 59H5.87879C5.39345 59 5 58.6142 5 58.1382V54.1776ZM6.75758 55.0393V57.2765H57.2424V55.0393H6.75758Z" fill="#252525"/>
<path fill-rule="evenodd" clip-rule="evenodd" d="M5 5.86177C5 5.38583 5.39345 5 5.87879 5H58.1212C58.6066 5 59 5.38583 59 5.86177V9.82244C59 10.2984 58.6066 10.6842 58.1212 10.6842H5.87879C5.39345 10.6842 5 10.2984 5 9.82244V5.86177ZM6.75758 6.72353V8.96068H57.2424V6.72353H6.75758Z" fill="#252525"/>
<path fill-rule="evenodd" clip-rule="evenodd" d="M54.9722 34.8422C55.3647 34.8422 55.6828 35.2382 55.6828 35.7267V54.3261C55.6828 54.8146 55.3647 55.2106 54.9722 55.2106C54.5798 55.2106 54.2617 54.8146 54.2617 54.3261V35.7267C54.2617 35.2382 54.5798 34.8422 54.9722 34.8422Z" fill="#252525"/>
<path fill-rule="evenodd" clip-rule="evenodd" d="M54.9722 8.78931C55.3647 8.78931 55.6828 9.1889 55.6828 9.68182V27.3178C55.6828 27.8108 55.3647 28.2104 54.9722 28.2104C54.5798 28.2104 54.2617 27.8108 54.2617 27.3178V9.68182C54.2617 9.1889 54.5798 8.78931 54.9722 8.78931Z" fill="#252525"/>
<path fill-rule="evenodd" clip-rule="evenodd" d="M39.3472 8.78931C39.7397 8.78931 40.0578 9.18703 40.0578 9.67765V54.322C40.0578 54.8126 39.7397 55.2104 39.3472 55.2104C38.9548 55.2104 38.6367 54.8126 38.6367 54.322V9.67765C38.6367 9.18703 38.9548 8.78931 39.3472 8.78931Z" fill="#252525"/>
<path fill-rule="evenodd" clip-rule="evenodd" d="M44.0855 8.78931C44.4779 8.78931 44.7961 9.18703 44.7961 9.67765V54.322C44.7961 54.8126 44.4779 55.2104 44.0855 55.2104C43.6931 55.2104 43.375 54.8126 43.375 54.322V9.67765C43.375 9.18703 43.6931 8.78931 44.0855 8.78931Z" fill="#252525"/>
<path fill-rule="evenodd" clip-rule="evenodd" d="M48.816 8.78931C49.2084 8.78931 49.5265 9.18703 49.5265 9.67765V54.322C49.5265 54.8126 49.2084 55.2104 48.816 55.2104C48.4236 55.2104 48.1055 54.8126 48.1055 54.322V9.67765C48.1055 9.18703 48.4236 8.78931 48.816 8.78931Z" fill="#252525"/>
<path fill-rule="evenodd" clip-rule="evenodd" d="M34.6051 8.78931C34.9975 8.78931 35.3156 9.18703 35.3156 9.67765V54.322C35.3156 54.8126 34.9975 55.2104 34.6051 55.2104C34.2126 55.2104 33.8945 54.8126 33.8945 54.322V9.67765C33.8945 9.18703 34.2126 8.78931 34.6051 8.78931Z" fill="#252525"/>
<path fill-rule="evenodd" clip-rule="evenodd" d="M29.398 8.78931C29.7904 8.78931 30.1086 9.18703 30.1086 9.67765V54.322C30.1086 54.8126 29.7904 55.2104 29.398 55.2104C29.0056 55.2104 28.6875 54.8126 28.6875 54.322V9.67765C28.6875 9.18703 29.0056 8.78931 29.398 8.78931Z" fill="#252525"/>
<path fill-rule="evenodd" clip-rule="evenodd" d="M24.1871 8.78931C24.5795 8.78931 24.8976 9.18703 24.8976 9.67765V54.322C24.8976 54.8126 24.5795 55.2104 24.1871 55.2104C23.7947 55.2104 23.4766 54.8126 23.4766 54.322V9.67765C23.4766 9.18703 23.7947 8.78931 24.1871 8.78931Z" fill="#252525"/>
<path fill-rule="evenodd" clip-rule="evenodd" d="M19.4527 8.78931C19.8451 8.78931 20.1632 9.18703 20.1632 9.67765V54.322C20.1632 54.8126 19.8451 55.2104 19.4527 55.2104C19.0603 55.2104 18.7422 54.8126 18.7422 54.322V9.67765C18.7422 9.18703 19.0603 8.78931 19.4527 8.78931Z" fill="#252525"/>
<path fill-rule="evenodd" clip-rule="evenodd" d="M14.234 8.78931C14.6264 8.78931 14.9445 9.18703 14.9445 9.67765V54.322C14.9445 54.8126 14.6264 55.2104 14.234 55.2104C13.8416 55.2104 13.5234 54.8126 13.5234 54.322V9.67765C13.5234 9.18703 13.8416 8.78931 14.234 8.78931Z" fill="#252525"/>
<path fill-rule="evenodd" clip-rule="evenodd" d="M9.02303 8.78931C9.41544 8.78931 9.73355 9.18703 9.73355 9.67765V54.322C9.73355 54.8126 9.41544 55.2104 9.02303 55.2104C8.63061 55.2104 8.3125 54.8126 8.3125 54.322V9.67765C8.3125 9.18703 8.63061 8.78931 9.02303 8.78931Z" fill="#252525"/>
<path fill-rule="evenodd" clip-rule="evenodd" d="M49.0508 27.2245C49.0508 26.7226 49.4324 26.3158 49.9032 26.3158H54.83C55.3007 26.3158 55.6824 26.7226 55.6824 27.2245V35.8281C55.6824 36.33 55.3007 36.7369 54.83 36.7369H49.9032C49.4324 36.7369 49.0508 36.33 49.0508 35.8281V27.2245ZM50.7556 28.1332V34.9194H53.9776V28.1332H50.7556Z" fill="#252525"/>
<path fill-rule="evenodd" clip-rule="evenodd" d="M52.3653 30.1051C52.8886 30.1051 53.3127 30.4807 53.3127 30.944V32.1083C53.3127 32.5716 52.8886 32.9472 52.3653 32.9472C51.8421 32.9472 51.418 32.5716 51.418 32.1083V30.944C51.418 30.4807 51.8421 30.1051 52.3653 30.1051Z" fill="#252525"/>
</svg>
