<svg id="Layer_1" data-name="Layer 1" xmlns="http://www.w3.org/2000/svg" viewBox="0 0 26.93 26.93"><defs><style>.cls-1{fill:#010101;}</style></defs><title>Kalėjo</title><path class="cls-1" d="M20.8,14.93a.32.32,0,0,0-.38.17.25.25,0,0,0,.17.34.19.19,0,0,0,.21,0c.09,0,.09-.08.13-.12A.28.28,0,0,0,20.8,14.93Z" transform="translate(-11.37 -10.95)"/><path class="cls-1" d="M18.19,16.81a.15.15,0,0,0-.12,0,.35.35,0,0,0-.17.42.32.32,0,0,0,.42.13.3.3,0,0,0,.17-.39A.31.31,0,0,0,18.19,16.81Z" transform="translate(-11.37 -10.95)"/><path class="cls-1" d="M16.15,20.13h0l0,0h0A.32.32,0,0,0,16,20c-.09,0-.09,0-.13,0s-.17.08-.17.17,0,.17,0,.26a.42.42,0,0,0,.21.17s.13,0,.21,0a.57.57,0,0,0,.17-.17c0-.08,0-.17,0-.26Z" transform="translate(-11.37 -10.95)"/><path class="cls-1" d="M24.83,11A13.46,13.46,0,1,0,38.3,24.42,13.46,13.46,0,0,0,24.83,11Zm9.44,9.85a5,5,0,0,1-2.78,2.85,4.66,4.66,0,0,1-2,.43,5.39,5.39,0,0,1-2-.43,5.27,5.27,0,0,1-3-3.27L22.87,19a.34.34,0,0,1-.12-.38l.39-.94L23,17.61a.67.67,0,0,1-.46-.43.84.84,0,0,1,0-.63l.08-.2-1.25-.55A.8.8,0,0,1,21,16a.75.75,0,0,1-.34,0,.86.86,0,0,1-.34,0l-.1-.07-1.18.89a1,1,0,0,1-.45,1.1.68.68,0,0,1-.43.09L18,18l-1.3,1.85a1.18,1.18,0,0,1,.09.13.79.79,0,0,1,0,.68.84.84,0,0,1-.24.36l.61,1.38.26-.12a1.14,1.14,0,0,1,.68,0,.85.85,0,0,1,.47.46l.12.25,1-.46a.22.22,0,0,1,.33.08l1.57,1.78a5.66,5.66,0,0,1,3.63,3.07,5.81,5.81,0,0,1,.17,4.29,5.67,5.67,0,0,1-2.87,3.15,5.8,5.8,0,0,1-2.36.51,5.93,5.93,0,0,1-1.9-.34,5.62,5.62,0,0,1-3.13-7.7L14.86,25a.4.4,0,0,1,.17-.34l1.09-.49L16,23.9a1,1,0,0,1,0-.63.9.9,0,0,1,.46-.51l.2-.09L16,21.3h-.11a.7.7,0,0,1-.29-.09,1,1,0,0,1-.55-.46A1.07,1.07,0,0,1,15,20a1,1,0,0,1,.5-.51.83.83,0,0,1,.66-.06l1.25-1.81a.9.9,0,0,1-.1-.14.93.93,0,0,1,.46-1.23.84.84,0,0,1,.86,0l1.17-.86a.93.93,0,0,1,0-.62A.91.91,0,0,1,21,14.38a.93.93,0,0,1,.53.86l1.28.52a1.19,1.19,0,0,1,.52-.61.84.84,0,0,1,.63,0l.18.07.41-1A.34.34,0,0,1,24.9,14l2.2.17A5.29,5.29,0,0,1,31.49,14,5.22,5.22,0,0,1,34.27,20.8Z" transform="translate(-11.37 -10.95)"/></svg>