<svg width="64" height="64" viewBox="0 0 64 64" fill="none" xmlns="http://www.w3.org/2000/svg">
<path fill-rule="evenodd" clip-rule="evenodd" d="M38.1048 43.5081C37.7837 43.8291 37.7837 44.3496 38.1048 44.6706L39.1966 45.7624C39.5176 46.0835 40.0381 46.0835 40.3591 45.7624L52.3118 33.8097C52.6329 33.4887 52.6329 32.9682 52.3118 32.6472L51.22 31.5553C50.899 31.2343 50.3785 31.2343 50.0575 31.5553L38.1048 43.5081ZM37.136 45.6394C36.2799 44.7833 36.2799 43.3954 37.136 42.5393L49.0887 30.5866C49.9448 29.7305 51.3327 29.7305 52.1888 30.5866L53.2806 31.6784C54.1367 32.5344 54.1367 33.9224 53.2806 34.7785L41.3279 46.7312C40.4718 47.5873 39.0838 47.5873 38.2278 46.7312L37.136 45.6394Z" fill="#252525"/>
<path fill-rule="evenodd" clip-rule="evenodd" d="M44.9835 43.0705L44.8624 42.9495L44.9835 43.0706C44.9835 43.0705 44.9835 43.0705 44.9835 43.0705ZM45.1055 42.9485L49.496 38.558L58.4136 47.4756C58.7019 47.7639 58.9305 48.1061 59.0866 48.4828C59.2426 48.8594 59.3229 49.2631 59.3229 49.6708C59.3229 50.0785 59.2426 50.4822 59.0866 50.8589C58.9305 51.2355 58.7019 51.5778 58.4136 51.8661C58.1253 52.1543 57.7831 52.383 57.4064 52.539C57.0297 52.6951 56.626 52.7754 56.2183 52.7754C55.8106 52.7754 55.4069 52.6951 55.0303 52.539C54.6536 52.383 54.3114 52.1543 54.0231 51.8661L45.1055 42.9485ZM44.8614 42.9485L44.8614 42.9485L44.8614 42.9485L44.8614 42.9485ZM44.0147 42.1018C43.9033 42.2132 43.815 42.3454 43.7548 42.491C43.6946 42.6366 43.6638 42.7926 43.664 42.9501C43.6642 43.1076 43.6955 43.2635 43.756 43.4089C43.8165 43.554 43.9048 43.6857 44.0161 43.7967L44.0156 43.7962L44.5 43.3118L44.0169 43.7975C44.0167 43.7972 44.0164 43.7969 44.0161 43.7967M44.0147 42.1018C44.0147 42.1018 44.0147 42.1018 44.0147 42.1018Z" fill="#252525"/>
<path fill-rule="evenodd" clip-rule="evenodd" d="M17.0881 8.7688L23.7892 9.92042C24.139 9.98099 24.4614 10.1485 24.7121 10.4C24.7122 10.4001 24.7123 10.4001 24.7124 10.4002L46.6237 32.31C46.6244 32.3107 46.6252 32.3115 46.626 32.3122C46.7839 32.4681 46.9098 32.6534 46.9965 32.8576C47.0835 33.0629 47.1294 33.2833 47.1313 33.5063C47.1332 33.7293 47.0912 33.9504 47.0076 34.1572C46.924 34.3639 46.8006 34.5521 46.6443 34.7111L46.6422 34.7132L41.0845 40.2716L41.0824 40.2736C40.9234 40.4299 40.7352 40.5534 40.5285 40.637C40.3218 40.7206 40.1007 40.7626 39.8777 40.7607C39.6548 40.7588 39.4344 40.7129 39.2292 40.6258C39.025 40.5392 38.8398 40.4134 38.684 40.2555C38.6832 40.2547 38.6824 40.2538 38.6816 40.253L16.7702 18.3405C16.7701 18.3404 16.77 18.3403 16.7699 18.3402C16.5185 18.0896 16.351 17.7671 16.2905 17.4173L15.1389 10.7148C15.0919 10.4488 15.1098 10.1754 15.1909 9.9178C15.2723 9.65946 15.4149 9.42463 15.6067 9.23332C15.7984 9.04202 16.0336 8.89992 16.2921 8.81913C16.5496 8.73867 16.8226 8.72141 17.0881 8.7688ZM15.8126 10.5972L16.4867 10.4813L17.6383 17.1839C17.6383 17.184 17.6384 17.1841 17.6384 17.1842C17.6507 17.2552 17.6848 17.3206 17.7358 17.3715L17.7366 17.3723L39.6551 39.292L39.6572 39.2941C39.6875 39.325 39.7237 39.3496 39.7635 39.3665C39.8034 39.3834 39.8462 39.3923 39.8895 39.3927C39.9328 39.393 39.9757 39.3849 40.0159 39.3687C40.0553 39.3527 40.0914 39.3292 40.1219 39.2996C40.1224 39.2991 40.1229 39.2986 40.1234 39.2981L45.6689 33.752C45.6694 33.7515 45.6699 33.751 45.6704 33.7505C45.7 33.7199 45.7235 33.6839 45.7394 33.6444C45.7556 33.6043 45.7638 33.5613 45.7634 33.518C45.7631 33.4747 45.7542 33.4319 45.7373 33.3921C45.7203 33.3522 45.6957 33.3161 45.6649 33.2857L45.6628 33.2837L23.7434 11.3659C23.6926 11.3149 23.6272 11.2808 23.5562 11.2685C23.5561 11.2685 23.556 11.2684 23.5559 11.2684L16.8512 10.1162L16.8484 10.1157C16.7989 10.1068 16.748 10.1099 16.7 10.1249C16.652 10.1399 16.6084 10.1663 16.5728 10.2018C16.5372 10.2373 16.5107 10.2809 16.4956 10.3289C16.4805 10.3769 16.4772 10.4278 16.486 10.4773L15.8126 10.5972Z" fill="#252525"/>
<path fill-rule="evenodd" clip-rule="evenodd" d="M25.0761 17.1686L44.3235 36.4159L43.3489 37.3905L24.1016 18.1432L25.0761 17.1686Z" fill="#252525"/>
<path fill-rule="evenodd" clip-rule="evenodd" d="M16.2522 9.30444H16.5435L22.9781 15.1466L21.9882 16.0451L15.9636 10.5752H15.9585L15.6758 10.3139L16.2522 9.80001V9.30444Z" fill="#252525"/>
<path fill-rule="evenodd" clip-rule="evenodd" d="M24.6492 45.7612C24.9702 46.0822 25.4907 46.0822 25.8117 45.7612L26.9035 44.6694C27.2246 44.3484 27.2246 43.8279 26.9035 43.5069L14.9508 31.5541C14.6298 31.2331 14.1093 31.2331 13.7883 31.5541L12.6965 32.6459C12.3754 32.967 12.3754 33.4874 12.6965 33.8085L24.6492 45.7612ZM26.7805 46.73C25.9244 47.5861 24.5365 47.5861 23.6804 46.73L11.7277 34.7772C10.8716 33.9212 10.8716 32.5332 11.7277 31.6772L12.8195 30.5854C13.6756 29.7293 15.0635 29.7293 15.9196 30.5854L27.8723 42.5381C28.7284 43.3942 28.7284 44.7821 27.8723 45.6382L26.7805 46.73Z" fill="#252525"/>
<path fill-rule="evenodd" clip-rule="evenodd" d="M6.58601 51.8672C7.16822 52.4494 7.95787 52.7765 8.78125 52.7765C9.60463 52.7765 10.3943 52.4494 10.9765 51.8672L19.8941 42.9496L15.5036 38.5591L6.58601 47.4767C6.00379 48.0589 5.67671 48.8486 5.67671 49.672C5.67671 50.4953 6.00379 51.285 6.58601 51.8672ZM8.78125 54.1466C7.59451 54.1466 6.45638 53.6751 5.61723 52.836C4.77808 51.9968 4.30665 50.8587 4.30665 49.672C4.30665 48.4852 4.77808 47.3471 5.61723 46.5079L14.6569 37.4683C14.8814 37.2437 15.186 37.1176 15.5036 37.1176C15.8212 37.1176 16.1257 37.2438 16.3503 37.4683L20.9849 42.1029C21.2095 42.3275 21.3356 42.632 21.3356 42.9496C21.3356 43.2672 21.2095 43.5718 20.9849 43.7963L11.9453 52.836C11.1061 53.6751 9.96799 54.1466 8.78125 54.1466Z" fill="#252525"/>
<path fill-rule="evenodd" clip-rule="evenodd" d="M47.9332 8.76904C48.2035 8.721 48.4813 8.73879 48.7432 8.82093C49.006 8.90335 49.245 9.04811 49.4397 9.24286C49.6345 9.43761 49.7792 9.67658 49.8616 9.93938C49.9438 10.2013 49.9616 10.4791 49.9135 10.7492L48.7432 17.5683L48.7429 17.57C48.6803 17.9242 48.5107 18.2506 48.2568 18.5053L48.256 18.5061L40.0444 26.7177L39.0602 25.7336L47.2711 17.5228C47.2712 17.5226 47.2713 17.5225 47.2715 17.5223C47.3239 17.4696 47.359 17.4022 47.3721 17.3291C47.3722 17.3287 47.3722 17.3283 47.3723 17.328L48.5427 10.5088L48.5431 10.5062C48.5521 10.4561 48.5489 10.4045 48.5336 10.3559C48.5184 10.3073 48.4916 10.263 48.4556 10.227C48.4195 10.191 48.3753 10.1642 48.3267 10.149C48.2781 10.1337 48.2265 10.1304 48.1763 10.1394L48.1739 10.1399L41.3523 11.3135C41.3522 11.3135 41.3522 11.3135 41.3521 11.3135C41.2798 11.3261 41.2132 11.3607 41.1615 11.4127L32.949 19.6251L31.9648 18.641L40.1756 10.4302C40.1757 10.4301 40.1759 10.4299 40.1761 10.4298C40.4311 10.1741 40.759 10.0037 41.1149 9.94208L47.9332 8.76904Z" fill="#252525"/>
<path fill-rule="evenodd" clip-rule="evenodd" d="M26.1736 26.5523L19.3721 33.3541L19.3702 33.356C19.3396 33.3861 19.3153 33.4219 19.2986 33.4614C19.2819 33.5009 19.2731 33.5433 19.2728 33.5861C19.2724 33.629 19.2806 33.6715 19.2967 33.7113C19.3126 33.7505 19.3359 33.7862 19.3654 33.8164L24.8604 39.3117C24.8608 39.3121 24.8612 39.3125 24.8615 39.3128C24.8919 39.3425 24.9277 39.3659 24.9669 39.3819C25.0067 39.398 25.0493 39.4062 25.0922 39.4058C25.1352 39.4055 25.1776 39.3967 25.2171 39.3799C25.2567 39.3632 25.2925 39.3388 25.3226 39.3082L25.3247 39.3061L32.1265 32.5053L33.0844 33.4634L26.2865 40.2603C26.132 40.4169 25.9483 40.5416 25.7458 40.6274C25.5422 40.7137 25.3236 40.759 25.1026 40.7606C24.8815 40.7623 24.6622 40.7204 24.4574 40.6372C24.2525 40.5541 24.0661 40.4313 23.9087 40.276L23.9071 40.2745L18.4033 34.7704L18.4015 34.7685C18.2465 34.6112 18.1241 34.4249 18.0411 34.2203C17.9582 34.0156 17.9163 33.7966 17.918 33.5758C17.9197 33.355 17.9649 33.1366 18.0509 32.9333C18.1366 32.7308 18.2612 32.5472 18.4175 32.3926L25.2157 25.5942L26.1736 26.5523Z" fill="#252525"/>
<path fill-rule="evenodd" clip-rule="evenodd" d="M20.7305 36.4378L28.7018 28.9646L29.718 29.9172L21.7466 37.3904L20.7305 36.4378Z" fill="#252525"/>
<path fill-rule="evenodd" clip-rule="evenodd" d="M48.3155 9.37811L48.3923 9.30444L49.3789 10.2516L49.3022 10.3252L49.3022 10.3252L36.3227 22.7857L35.3359 21.8387L48.3155 9.37814L48.3155 9.37811Z" fill="#252525"/>
</svg>
