<svg id="Layer_1" data-name="Layer 1" xmlns="http://www.w3.org/2000/svg" viewBox="0 0 26.93 26.93"><defs><style>.cls-1{fill:#010101;}</style></defs><title>kovojo</title><path class="cls-1" d="M24.83,11A13.46,13.46,0,1,0,38.3,24.42,13.46,13.46,0,0,0,24.83,11Zm5.93,4.75,1.87-.26c-.71,2.38-2.63,5.16-5.75,8.29l-.58-.52a22.74,22.74,0,0,0,5.45-7.57A26.31,26.31,0,0,1,26.12,23l-.82-.77A31.19,31.19,0,0,0,30.76,15.7Zm-9.59,15c-1.21-.83-1.21-.83-2-.18l-3.4,2.86c-.32,0-1.43-1.41-1.43-1.69l3.38-2.85c.79-.65.79-.67.18-2l.46-.38.9,1.07c1.15-1,2.32-2,3.46-3l.78.79c-.76.67-1.59,1.39-2.47,2.14l.55,1.27-.76.65.78.93Zm.64-2.38-.36-.74c.84-.71,1.63-1.39,2.35-2l.58.55C23.59,26.82,22.74,27.56,21.82,28.33Zm12,5.06-3.41-2.86c-.76-.65-.76-.65-2,.18L28,30.33l.79-.93L28,28.76l.54-1.27c-5.85-4.92-8.92-8.27-10.65-11.84,1.47,3.59,4.46,7,10.31,11.94l-.36.74c-6.15-5.18-9.79-9.4-10.81-12.89l1.87.26c1.87,3.41,6.82,8,11.44,11.84l.91-1.07.46.38c-.58,1.35-.58,1.35.18,2l3.38,2.85C35.29,32,34.18,33.39,33.86,33.39Z" transform="translate(-11.37 -10.95)"/></svg>