<svg width="64" height="64" viewBox="0 0 64 64" fill="none" xmlns="http://www.w3.org/2000/svg">
<path d="M9.13893 62H55.8611C56.4901 62 57 61.4904 57 60.8617C57 49.2512 48.6771 39.5547 37.6821 37.399V20.1846H44.2108C44.8398 20.1846 45.3497 19.675 45.3497 19.0463V10.2324C45.3497 9.60376 44.8398 9.09416 44.2108 9.09416H37.6821V3.13829C37.6821 2.5096 37.1722 2 36.5432 2H27.7244C27.0954 2 26.5855 2.5096 26.5855 3.13829V9.09416H20.0568C19.4278 9.09416 18.9179 9.60376 18.9179 10.2324V19.0463C18.9179 19.675 19.4278 20.1846 20.0568 20.1846H26.5855V37.5671C15.9585 40.0048 8 49.5139 8 60.8635C7.99825 61.4904 8.50989 62 9.13893 62ZM28.8651 36.9437V19.0463C28.8651 18.4176 28.3552 17.908 27.7262 17.908H21.1975V11.3707H27.7262C28.3552 11.3707 28.8651 10.8611 28.8651 10.2324V4.27657H35.4025V10.2324C35.4025 10.8611 35.9124 11.3707 36.5414 11.3707H43.0701V17.908H36.5414C35.9124 17.908 35.4025 18.4176 35.4025 19.0463V36.9437H33.0686H31.9332H28.8651V36.9437ZM31.9332 39.2185H33.0686C44.6278 39.2185 54.0984 48.316 54.6924 59.7234H10.3076C10.9016 48.3178 20.374 39.2185 31.9332 39.2185Z" fill="#252525"/>
</svg>
