<svg width="64" height="64" viewBox="0 0 64 64" fill="none" xmlns="http://www.w3.org/2000/svg">
<path d="M60.3444 22.7032H56.5927V13.3676C56.5927 13.1893 56.5206 13.0182 56.3928 12.8944C56.2643 12.7707 56.0964 12.701 55.9149 12.7102C53.0776 12.8082 50.3177 13.205 47.685 13.8611V6.65818C47.685 6.43181 47.569 6.22058 47.3776 6.10082C47.1855 5.97974 46.9475 5.96723 46.743 6.06594C40.9151 8.90145 35.7342 14.3889 31.3309 22.369C24.7701 16.2801 17.0745 13.0254 8.43821 12.7095C8.25531 12.697 8.08749 12.7694 7.959 12.8938C7.83117 13.0175 7.7584 13.1886 7.7584 13.3676V18.191C6.84587 18.2555 5.92088 18.3391 4.99196 18.4543C4.66156 18.4957 4.41376 18.7787 4.41703 19.113L4.44784 22.7032H2V58H31.5H60.3444C60.707 58 61 57.7059 61 57.342V23.3613C61 22.998 60.707 22.7032 60.3444 22.7032ZM55.2816 14.0539V46.6573C47.3467 47.0515 40.173 49.6823 33.8974 54.4834C37.8399 48.0636 42.3429 43.5902 47.3159 41.1712C47.5421 41.0613 47.685 40.831 47.685 40.5796V15.2121C50.1132 14.5836 52.66 14.1882 55.2816 14.0539ZM46.3739 7.73605V40.1716C41.0547 42.8736 36.281 47.797 32.1556 54.8295V23.587C36.2554 15.9741 41.0344 10.6479 46.3739 7.73605ZM30.8444 23.7021V55.7699C30.7776 55.7317 30.7094 55.6962 30.6419 55.658C24.3951 50.1173 17.1499 47.091 9.06951 46.6593V18.7879C9.06951 18.7793 9.07344 18.7721 9.07279 18.7629C9.07279 18.7583 9.06951 18.7543 9.06951 18.7497V14.0559C17.2823 14.5119 24.6036 17.7548 30.8444 23.7021ZM7.7584 19.5084V47.2884C7.7584 47.6424 8.03767 47.9326 8.3897 47.9458C14.4365 48.1669 20.0061 49.8896 25.029 53.0667C19.2444 50.9708 12.877 50.2923 6.00282 51.0511L5.73273 19.692C6.4132 19.615 7.08908 19.5571 7.7584 19.5084ZM3.31111 24.0193H4.45899L4.69892 51.796C4.70023 51.9835 4.78152 52.1618 4.92247 52.2849C5.06276 52.4086 5.2509 52.4645 5.43511 52.4428C14.5244 51.3136 22.6972 52.7462 29.7792 56.6833H3.31111V24.0193ZM59.6889 56.6839H33.249C39.8046 51.1787 47.4366 48.2406 55.9594 47.9464C56.3128 47.9339 56.5927 47.6437 56.5927 47.289V24.0193H59.6889V56.6839Z" fill="#252525"/>
</svg>
