<svg id="Layer_1" data-name="Layer 1" xmlns="http://www.w3.org/2000/svg" viewBox="0 0 26.93 26.93"><defs><style>.cls-1{fill:#010101;}</style></defs><title>mokesi</title><path class="cls-1" d="M16.37,28.43q0-4.73,0-9.46l-1,.36c0,3.94,0,7.9,0,11.84a11.86,11.86,0,0,1,7.84.47,9.35,9.35,0,0,0-5.8-2.7C17,28.91,16.33,29,16.37,28.43Z" transform="translate(-11.37 -10.95)"/><path class="cls-1" d="M33.31,19q0,4.52,0,9c0,.2,0,.57-.25.61a11.54,11.54,0,0,0-2.67.41,10.17,10.17,0,0,0-4.3,2.77,12.41,12.41,0,0,1,8.32-.66c0-3.95,0-7.9,0-11.85Z" transform="translate(-11.37 -10.95)"/><path class="cls-1" d="M24.83,11A13.46,13.46,0,1,0,38.3,24.42,13.46,13.46,0,0,0,24.83,11Zm10,21.29a11.35,11.35,0,0,0-6.8-.19,8.77,8.77,0,0,0-3,1.34h-.6a10.49,10.49,0,0,0-5.44-1.76,10.25,10.25,0,0,0-4.14.58c-.41.09-.46-.42-.41-.71.05-3.82,0-7.64,0-11.47a2.28,2.28,0,0,0-.14-1c.31-.76,1.27-.72,1.93-1,0-.76-.05-1.52,0-2.27l.26-.22a9.88,9.88,0,0,1,8.17,4.25,10.06,10.06,0,0,1,7.45-4.25c.34,0,.93-.17,1,.32.05.72,0,1.45,0,2.17.57.14,1.14.31,1.72.46.33.44.15,1,.18,1.49,0,3.75,0,7.49,0,11.24C35.22,31.64,35.35,32.15,34.88,32.24Z" transform="translate(-11.37 -10.95)"/></svg>