<svg id="Layer_1" data-name="Layer 1" xmlns="http://www.w3.org/2000/svg" xmlns:xlink="http://www.w3.org/1999/xlink" viewBox="0 0 22 22"><defs><style>.cls-1{fill:none;clip-rule:evenodd;}.cls-2{clip-path:url(#clip-path);}</style><clipPath id="clip-path" transform="translate(-8 -8.33)"><path id="SVGID" class="cls-1" d="M9.85,28.48V20.93a15.88,15.88,0,0,0,18.3,0v7.55Zm6-17.59a.67.67,0,0,1,.61-.71h5a.67.67,0,0,1,.61.71v2.5H15.88Zm-6,3.35h18.3v5.64a15,15,0,0,1-18.3,0ZM23,13.39v-2.5A1.52,1.52,0,0,0,21.5,9.33h-5A1.52,1.52,0,0,0,15,10.89v2.5H9V29.33H29V13.39Z"/></clipPath></defs><title>organizacijos</title><g class="cls-2"><path d="M28.15,27.48H9.85v2h18.3Zm-1-6.55v7.55h2V20.93ZM19,24.83a17,17,0,0,0,9.72-3.08l-1.15-1.64A15,15,0,0,1,19,22.83ZM9.28,21.75A17,17,0,0,0,19,24.83v-2a15,15,0,0,1-8.57-2.72Zm1.58,6.73V20.93h-2v7.55Zm6-15.09v-2.5h-2v2.5Zm5.23-1H15.88v2h6.23Zm-1-1.5v2.5h2v-2.5Zm.39.29a.43.43,0,0,1-.32-.14.24.24,0,0,1-.06-.16h2A1.66,1.66,0,0,0,21.5,9.18Zm-5,0h5v-2h-5Zm.39-.29a.24.24,0,0,1-.06.16.43.43,0,0,1-.32.14v-2a1.66,1.66,0,0,0-1.61,1.71Zm-6,9V14.24h-2v5.64ZM19,22a14.11,14.11,0,0,1-8.54-2.9L9.24,20.67A16.11,16.11,0,0,0,19,24Zm8.54-2.9A14.11,14.11,0,0,1,19,22v2a16.11,16.11,0,0,0,9.76-3.31Zm-.39-4.84v5.64h2V14.24Zm-17.3,1h18.3v-2H9.85ZM29,12.39H23v2h6Zm1,16.94V13.39H28V29.33Zm-21,1H29v-2H9ZM8,13.39V29.33h2V13.39Zm7-1H9v2h6Zm-1-1.5v2.5h2v-2.5ZM16.5,8.33A2.51,2.51,0,0,0,14,10.89h2a.52.52,0,0,1,.47-.56Zm5,0h-5v2h5ZM24,10.89A2.51,2.51,0,0,0,21.5,8.33v2a.52.52,0,0,1,.47.56Zm0,2.5v-2.5H22v2.5Zm4.18,15.09v1h1v-1Zm0-7.55h1V19l-1.58,1.11Zm-18.3,0,.58-.82L8.85,19v1.93Zm0,7.55h-1v1h1Zm6-15.09h-1v1h1Zm6.23,0v1h1v-1ZM9.85,19.88h-1v.49l.39.3Zm18.3,0,.61.79.39-.3v-.49Zm0-5.64h1v-1h-1Zm-18.3,0v-1h-1v1ZM29,13.39h1v-1H29Zm0,15.94v1h1v-1Zm-20,0H8v1H9ZM9,13.39v-1H8v1Zm6,0v1h1v-1Zm7.93,0H22v1h1Z" transform="translate(-8 -8.33)"/></g></svg>