<svg width="88" height="89" viewBox="0 0 88 89" fill="none" xmlns="http://www.w3.org/2000/svg">
<g clip-path="url(#clip0_1_551)">
<path d="M84.9995 76.9879L84.6318 76.6088L75.6848 85.6077L75.9026 85.8255L78.2746 88.2077C79.7951 89.7399 83.0304 88.9659 85.5029 86.4827C87.9753 83.9994 88.7421 80.7409 87.2216 79.2127L85.0047 76.9827L84.9995 76.9879Z" fill="#252525"/>
<path d="M82.4409 74.4496L73.4939 83.4432L75.6834 85.613L84.6303 76.614L84.3747 76.3569L84.3669 76.3609L82.4409 74.4496Z" fill="#D72E30"/>
<path d="M34.8581 0C15.6054 0 0 15.7022 0 35.0708C0 54.4395 15.6054 70.1364 34.8581 70.1364C41.7229 70.1473 48.4366 68.1084 54.1486 64.2779L73.4939 83.4432L82.4409 74.4496L63.2221 55.4089C67.449 49.4819 69.7216 42.3706 69.7201 35.0761C69.7201 15.7022 54.1173 0 34.8581 0ZM35.3393 59.7273C21.8034 59.7273 10.8235 48.6899 10.8235 35.0656C10.8235 21.4413 21.7995 10.4038 35.3393 10.4038C48.879 10.4038 59.8551 21.4413 59.8551 35.0656C59.8551 48.6899 48.8738 59.7273 35.3393 59.7273Z" fill="#252525"/>
<path d="M39.5473 19.8081L22.4293 41.4789C22.1824 41.8267 22.0777 42.2565 22.1367 42.6796C22.1957 43.1028 22.414 43.487 22.7465 43.7529C23.079 44.0189 23.5002 44.1463 23.9234 44.1088C24.3465 44.0713 24.7392 43.8719 25.0204 43.5516L42.141 21.886C42.4149 21.54 42.541 21.0987 42.4915 20.6592C42.4419 20.2197 42.2209 19.818 41.877 19.5424C41.533 19.2669 41.0943 19.1401 40.6574 19.1899C40.2205 19.2397 39.8212 19.4621 39.5473 19.8081Z" fill="#D72E30"/>
<path d="M46.7287 27.0361L29.6016 48.7017C29.3375 49.0487 29.2195 49.4861 29.2728 49.9198C29.3261 50.3534 29.5466 50.7487 29.8867 51.0206C30.2268 51.2924 30.6594 51.419 31.0914 51.3732C31.5234 51.3274 31.9203 51.1128 32.1966 50.7756L49.3225 29.1087C49.4577 28.9374 49.5582 28.741 49.618 28.5306C49.6778 28.3202 49.6958 28.1001 49.6711 27.8827C49.6463 27.6653 49.5792 27.455 49.4736 27.2637C49.3681 27.0724 49.2261 26.9039 49.0558 26.7678C48.8855 26.6317 48.6902 26.5307 48.4811 26.4706C48.272 26.4104 48.0531 26.3922 47.837 26.4171C47.6209 26.4421 47.4118 26.5095 47.2217 26.6157C47.0315 26.7219 46.864 26.8648 46.7287 27.0361Z" fill="#D72E30"/>
</g>
<defs>
<clipPath id="clip0_1_551">
<rect width="88" height="89" fill="white"/>
</clipPath>
</defs>
</svg>
