<?xml version="1.0" encoding="utf-8"?>
<!-- Generator: Adobe Illustrator 21.1.0, SVG Export Plug-In . SVG Version: 6.00 Build 0)  -->
<svg version="1.1" id="Layer_1" xmlns="http://www.w3.org/2000/svg" xmlns:xlink="http://www.w3.org/1999/xlink" x="0px" y="0px"
	 viewBox="0 0 347 346" style="enable-background:new 0 0 347 346;" xml:space="preserve">
<style type="text/css">
	.st0_rand{fill:none;}
	.st1_rand{fill:#A4A4A4;}
</style>
<g>
	<path class="st0_rand" d="M222.7,130.2l-16.5-7.2h-25.3h-25.4l-16.5,7.2c-9.1,3.9-16.6,7.2-16.7,7.2C122,137.6,111,242.3,111,245.1
		c0,2.3,2.3,4,19.8,14.8l19.7,12.1h30.2H211l19.7-12.2c10.9-6.7,19.9-12.2,20-12.2c0.3-0.2-10.6-108-11.1-109.2
		C239.4,137.8,231.8,134.1,222.7,130.2z"/>
	<path class="st1_rand" d="M222,74V62V50h-20.3c-11.2,0-20.7,0.3-21,0.7c-0.4,0.3-0.7,5.7-0.7,12V74h21H222z"/>
	<path class="st1_rand" d="M259.6,113.3c-0.1-0.1-12.5-4.5-27.6-9.7L204.5,94L179,94.1h-25.5l-25.5,9.4c-14,5.1-25.8,9.9-26.2,10.6
		c-0.4,0.8-5,34.5-10.3,74.9c-9.2,70.2-9.5,73.5-7.8,74.8c1,0.7,13.8,9,28.4,18.3l26.5,16.9h42.1h42l27.8-17.7
		c15.2-9.7,27.9-18.3,28.2-19.1C279.2,261.1,260.3,114,259.6,113.3z M250.7,247.6c-0.1,0-9.1,5.5-20,12.2L211,272h-30.3h-30.2
		l-19.7-12.1c-17.5-10.8-19.8-12.5-19.8-14.8c0-2.8,11-107.5,11.3-107.7c0.1,0,7.6-3.3,16.7-7.2l16.5-7.2h25.4h25.3l16.5,7.2
		c9.1,3.9,16.7,7.6,16.9,8.2C240.1,139.6,251,247.4,250.7,247.6z"/>
</g>
</svg>
