<svg width="22" height="20" viewBox="0 0 22 20" fill="none" xmlns="http://www.w3.org/2000/svg">
<path d="M21.9804 10.4195C21.9665 10.4081 21.9463 10.4044 21.9306 10.4097C21.9114 10.4156 21.8938 10.4208 21.8772 10.4256L21.8691 10.428C21.8282 10.44 21.7928 10.4502 21.7578 10.4643C21.2046 10.6841 20.7691 11.0606 20.4263 11.6154C20.3417 11.7525 20.2761 11.895 20.2239 12.0371C20.3095 11.5591 20.3294 11.3729 20.3446 10.8381C20.3453 10.8156 20.3453 10.7928 20.3453 10.7701C20.3453 10.7083 20.3453 10.6498 20.3588 10.5965C20.375 10.5333 20.4076 10.4703 20.4391 10.4093C20.448 10.392 20.4569 10.3748 20.4642 10.3596C20.4667 10.3566 20.475 10.3516 20.4782 10.3511C20.6364 10.327 20.7763 10.2598 20.906 10.1458C21.0367 10.0304 21.1441 9.88913 21.2255 9.7258C21.5174 9.1404 21.6635 8.49335 21.6598 7.80285C21.6594 7.73624 21.6516 7.67139 21.643 7.60086C21.6391 7.56927 21.6351 7.53695 21.6318 7.50348C21.6299 7.48512 21.6186 7.4688 21.6023 7.46085C21.5861 7.45302 21.5666 7.45358 21.5503 7.46345C21.5404 7.46962 21.5319 7.47464 21.5243 7.47911C21.5094 7.48793 21.4981 7.49482 21.4874 7.50254C21.2384 7.68104 21.0188 7.90327 20.8346 8.16288C20.5339 8.5872 20.3591 9.067 20.312 9.59483C20.3073 9.53599 20.3025 9.47716 20.2978 9.41832L20.2961 9.39698C20.2777 9.16632 20.2586 8.92777 20.243 8.69319C20.2391 8.6338 20.2277 8.57601 20.2167 8.5201C20.1954 8.41262 20.1753 8.3111 20.2075 8.20473C20.2148 8.18069 20.221 8.15648 20.2271 8.13233C20.2424 8.0725 20.3159 7.98036 20.4288 7.87961L20.433 7.8758C20.4746 7.84051 20.6885 7.64487 20.8098 7.25787C20.9329 6.8647 20.9236 6.45389 20.9168 6.15391L20.9167 6.14592C20.9076 5.73356 20.8631 5.42283 20.7722 5.13823C20.7604 5.10184 20.7465 5.06594 20.7317 5.02822C20.724 5.00859 20.7162 4.9883 20.7082 4.96707C20.7015 4.94909 20.6857 4.93602 20.6671 4.93294L20.658 4.93211C20.6419 4.93211 20.6268 4.93933 20.6166 4.95179L20.5283 5.05938C20.1051 5.57563 19.8971 6.1811 19.9101 6.85902C19.9124 6.97841 19.9213 7.10088 19.9372 7.22732C19.8296 6.85605 19.7034 6.49464 19.5599 6.14696C19.5569 6.13935 19.555 6.12992 19.5548 6.12193L19.5538 6.07439C19.5523 6.0058 19.5508 5.93483 19.5537 5.86502C19.5541 5.85344 19.5616 5.83265 19.5772 5.81219C19.5994 5.78291 19.624 5.75429 19.6495 5.72451C19.6929 5.674 19.7377 5.62184 19.7732 5.56228C19.8876 5.37072 19.9413 5.14441 19.9422 4.85C19.9437 4.50343 19.8903 4.13871 19.7738 3.70215C19.7102 3.46398 19.6141 3.15458 19.4352 2.87406C19.4231 2.8552 19.4095 2.83745 19.3951 2.81864C19.3886 2.81032 19.3818 2.80144 19.3748 2.7919C19.3647 2.77828 19.3507 2.77034 19.328 2.77034C19.31 2.77166 19.2939 2.78192 19.2849 2.79786C19.0604 3.2031 18.9486 3.63603 18.9433 4.1214C18.9387 4.52609 19.0019 4.87432 19.0812 5.14954C18.8795 4.78113 18.6554 4.42518 18.4125 4.08754L18.4069 4.07987C18.4014 4.07254 18.3991 4.06896 18.3995 4.07149C18.3842 3.96225 18.3736 3.87485 18.3663 3.79876C18.3665 3.7976 18.3679 3.7912 18.3793 3.77223C18.3953 3.74488 18.4129 3.71808 18.4316 3.68974C18.4691 3.63272 18.5078 3.57372 18.5326 3.50766C18.6075 3.30826 18.6243 3.08212 18.5839 2.81655C18.4952 2.22878 18.236 1.69952 17.7919 1.19843C17.7462 1.14699 17.6957 1.10149 17.6423 1.05341L17.6275 1.04001C17.6066 1.02109 17.5851 1.00174 17.5635 0.981282C17.5497 0.968158 17.5299 0.96325 17.5108 0.968874C17.4927 0.974609 17.4788 0.989608 17.4745 1.00825L17.4648 1.05082C17.4581 1.07905 17.453 1.10133 17.4492 1.12372C17.3894 1.48049 17.3938 1.86263 17.4626 2.29208C17.5309 2.71801 17.6669 3.08537 17.8756 3.40448C17.5626 3.03569 17.2582 2.726 16.94 2.45156C16.9386 2.44968 16.9365 2.444 16.9363 2.44257C16.9612 2.22834 16.9084 2.02652 16.7747 1.82558C16.5992 1.5615 16.3553 1.36022 16.0498 1.22744C15.867 1.14814 15.6776 1.07795 15.4921 1.00918C15.4033 0.976208 15.3145 0.943343 15.223 0.908107C15.1311 0.871547 15.0917 0.86504 15.0704 0.884781C15.0429 0.910368 15.0496 0.932204 15.0615 0.971907L15.0654 0.984866C15.1775 1.36248 15.3263 1.66114 15.5203 1.89787C15.8765 2.33289 16.2931 2.5539 16.7933 2.57342C16.8108 2.57447 16.8247 2.57932 16.8304 2.58374C16.9008 2.63645 16.9527 2.67864 16.9985 2.72044C17.1434 2.85289 17.2861 2.994 17.4257 3.14261C17.2181 3.01358 16.9642 2.95534 16.6784 2.96979C16.5219 2.97768 16.3666 3.00062 16.2165 3.02278L16.2108 3.02367C16.1664 3.03017 16.1222 3.03663 16.0781 3.04286C15.9816 3.05593 15.8844 3.07302 15.7985 3.08802C15.7637 3.09425 15.6806 3.11316 15.6614 3.15347C15.6548 3.16726 15.6554 3.18237 15.6629 3.1961C15.6695 3.20806 15.6768 3.21931 15.6847 3.22957C15.9327 3.55133 16.2156 3.76324 16.5495 3.87733C16.9567 4.01718 17.3307 4.00565 17.6667 3.84116C17.7181 3.81287 17.7801 3.79854 17.8509 3.79854C17.9043 3.79854 17.9444 3.80697 17.9577 3.81C17.9776 3.81331 18.0046 3.82445 18.0101 3.83162C18.2191 4.1064 18.4175 4.39987 18.6027 4.70817C18.4462 4.55598 18.2421 4.45336 17.9641 4.38652C17.7204 4.32846 17.4713 4.316 17.2304 4.30386L17.1497 4.29978C17.0742 4.29592 16.9986 4.29113 16.9208 4.28622L16.7904 4.27817C16.7735 4.27817 16.7574 4.28633 16.7476 4.29989C16.7368 4.31451 16.7342 4.33348 16.7406 4.35052C16.7458 4.36474 16.7554 4.38983 16.7603 4.39822C17.0143 4.82315 17.3126 5.11706 17.6722 5.29682C18.0236 5.4724 18.3412 5.51883 18.6615 5.44224C18.6986 5.4333 18.7415 5.42856 18.7859 5.42856C18.9222 5.42856 19.0172 5.47014 19.0372 5.50863C19.2134 5.87219 19.3707 6.24997 19.5063 6.63531C19.3641 6.43917 19.1651 6.27986 18.9132 6.16069C18.663 6.04258 18.4024 5.93461 18.1461 5.82835C18.0359 5.7828 17.9253 5.73709 17.8151 5.69032C17.7988 5.68316 17.7794 5.68464 17.7641 5.69474C17.7491 5.70472 17.7402 5.72137 17.7402 5.73929C17.7402 5.7737 18.1058 6.78839 18.6368 7.18823C18.8534 7.35134 19.1202 7.51914 19.4566 7.52703C19.5573 7.52907 19.6614 7.54329 19.74 7.63268C19.752 7.64691 19.768 7.65799 19.7853 7.66389C19.8122 7.67271 19.8196 7.68915 19.8328 7.74517C19.9418 8.20264 20.0211 8.67416 20.07 9.15297C20.0552 9.10439 20.0381 9.05531 20.0184 9.00563C19.8995 8.70427 19.6995 8.44058 19.389 8.17573C19.2289 8.03864 19.0613 7.90591 18.8991 7.77748L18.8914 7.77142C18.8176 7.71291 18.7439 7.65463 18.6705 7.59562C18.6553 7.58344 18.6405 7.57086 18.6234 7.5562L18.5775 7.51693C18.5615 7.50337 18.5376 7.50056 18.5189 7.50993C18.4996 7.51969 18.4881 7.53987 18.4896 7.56143C18.4919 7.5938 18.4937 7.62441 18.4954 7.6538L18.4963 7.66753C18.4999 7.72802 18.5033 7.78509 18.5094 7.84145C18.5669 8.39018 18.7301 8.84831 19.0083 9.24197C19.1805 9.48532 19.4275 9.78276 19.8128 9.92343C19.9065 9.95784 19.9745 10.0099 20.0473 10.1035C20.116 10.191 20.1288 10.271 20.1273 10.3717C20.1207 10.7935 20.0907 11.212 20.0377 11.6217C20.0253 11.5077 19.999 11.3903 19.9587 11.2683C19.8753 11.0158 19.7453 10.7702 19.5611 10.5176C19.4022 10.299 19.2368 10.0795 19.0769 9.86713L19.0663 9.85295C19.0029 9.76886 18.9395 9.68466 18.8778 9.60228C18.8662 9.58535 18.8495 9.57928 18.8399 9.57592C18.8262 9.56925 18.8099 9.56858 18.7954 9.57476C18.7811 9.58082 18.7702 9.59279 18.7654 9.60746L18.7635 9.61319C18.7609 9.62091 18.7588 9.62775 18.7577 9.63459C18.6474 10.2922 18.7151 10.8814 18.9645 11.4361C19.0863 11.7072 19.2497 12.0143 19.5378 12.2352C19.6693 12.336 19.7731 12.4775 19.8301 12.6335C19.8422 12.6671 19.8418 12.6817 19.8404 12.6873C19.7185 13.1923 19.5592 13.6794 19.3656 14.1404C19.4154 13.8974 19.412 13.6422 19.3551 13.3778C19.2743 13.0031 19.1355 12.6399 19.0116 12.3289L18.9745 12.2357C18.9165 12.09 18.858 11.9431 18.7976 11.7908C18.79 11.7714 18.7715 11.7581 18.7468 11.7569C18.7274 11.7569 18.7096 11.768 18.7003 11.7859L18.6808 11.8226C18.6723 11.8386 18.6643 11.8535 18.6575 11.869C18.4083 12.4311 18.3242 13.0074 18.4075 13.5817C18.467 13.9924 18.568 14.2865 18.7347 14.5353C18.821 14.6639 18.903 14.8072 18.9179 14.9833C18.9214 15.025 18.9198 15.0538 18.9012 15.0865C18.6909 15.4548 18.4551 15.8023 18.1968 16.1252C18.1978 16.1235 18.1988 16.1217 18.1998 16.12C18.3855 15.7804 18.3912 15.4134 18.3722 15.099C18.3558 14.8295 18.3249 14.5604 18.2952 14.3002L18.2935 14.2852C18.2815 14.181 18.2696 14.0768 18.2588 13.9724C18.2525 13.9132 18.2455 13.8541 18.2383 13.794L18.2287 13.7127C18.2266 13.6948 18.2156 13.6792 18.1999 13.6714C18.1705 13.6561 18.1231 13.6797 18.0718 13.7404C17.7194 14.1572 17.5007 14.6282 17.4217 15.1404C17.3398 15.6715 17.3842 16.126 17.5576 16.5299C17.5622 16.5406 17.5621 16.5626 17.562 16.5699L17.5527 16.8023C17.5513 16.819 17.5425 16.8379 17.5352 16.8449C17.1833 17.1838 16.7959 17.4784 16.3801 17.7236C16.5769 17.5457 16.7184 17.3136 16.8101 17.0195C16.9117 16.6935 16.9639 16.3542 17.0145 16.0252L17.0189 15.9959C17.0368 15.8804 17.0555 15.765 17.0746 15.6471L17.0961 15.5138C17.0992 15.4944 17.0916 15.475 17.0765 15.4634C17.0616 15.4515 17.0399 15.4486 17.0227 15.456L17.0039 15.4638C16.9839 15.472 16.9664 15.4793 16.9499 15.4877C16.1639 15.8803 15.6465 16.7959 15.7196 17.6647C15.7311 17.8008 15.7186 17.9286 15.6814 18.0553C15.678 18.0668 15.6668 18.0793 15.6623 18.0814C15.289 18.2388 14.934 18.3537 14.5769 18.4325C14.5585 18.4368 14.544 18.4499 14.538 18.4676C14.532 18.4854 14.5356 18.5048 14.5479 18.5193C14.5867 18.5653 14.6205 18.6148 14.6483 18.6666C14.6597 18.6877 14.6869 18.6986 14.7072 18.6933C14.9982 18.6269 15.2816 18.5409 15.5498 18.4376C15.5714 18.4289 15.588 18.4248 15.6035 18.4273C15.6631 18.4352 15.7262 18.4475 15.7961 18.4649C15.8106 18.4684 15.8226 18.4751 15.8228 18.4744C15.9756 18.7792 16.2383 18.9733 16.6262 19.0677C16.7105 19.088 16.7975 19.1029 16.8848 19.1121C16.9761 19.1217 17.0779 19.1266 17.1874 19.1266C17.339 19.1266 17.4472 19.1172 17.4485 19.1171C17.7846 19.0795 18.0717 19.0039 18.326 18.8858C18.4303 18.8375 18.5492 18.7723 18.6406 18.656C18.6581 18.6338 18.6551 18.6016 18.6339 18.5829C18.3756 18.355 18.1126 18.1894 17.8298 18.0767C17.4108 17.9102 17.0291 17.8651 16.6549 17.937C16.599 17.9479 16.5444 17.9616 16.4914 17.9773C16.8414 17.7681 17.1765 17.5222 17.4929 17.2421C17.499 17.2365 17.509 17.2317 17.5168 17.2303C17.5685 17.2217 17.6373 17.2111 17.7077 17.206C17.7142 17.206 17.7224 17.2092 17.7234 17.2095C17.9141 17.4229 18.1597 17.5267 18.4744 17.5267C18.4905 17.5267 18.5066 17.5263 18.5226 17.5258C18.8648 17.5147 19.2088 17.4207 19.5452 17.2462C19.7897 17.1186 20.0446 16.9701 20.2512 16.7487C20.2971 16.6995 20.338 16.6438 20.3741 16.5946L20.3776 16.5898C20.3936 16.5682 20.4098 16.5463 20.4264 16.5248C20.4354 16.5131 20.4392 16.4981 20.4369 16.483C20.4343 16.4685 20.4259 16.4555 20.4115 16.4461C20.4079 16.4441 20.3203 16.3972 20.2404 16.3663C19.7054 16.1595 19.1653 16.1384 18.6501 16.3044C18.4814 16.3586 18.3226 16.44 18.1681 16.5525C18.4539 16.2202 18.7186 15.8559 18.9589 15.464C18.9615 15.4598 18.9683 15.4486 18.9706 15.4466C18.9916 15.4332 19.0131 15.4205 19.0345 15.408C19.073 15.3854 19.1128 15.3621 19.1502 15.3343C19.1817 15.3108 19.1906 15.3102 19.2224 15.3307C19.2676 15.36 19.32 15.3752 19.3657 15.3872C19.6332 15.4556 19.9027 15.4215 20.201 15.2815C20.4734 15.1538 20.6828 14.9519 20.8686 14.7528C21.1389 14.4625 21.3156 14.2005 21.4245 13.9283C21.4474 13.8712 21.4637 13.8121 21.4807 13.7503C21.4877 13.7244 21.4949 13.6985 21.5025 13.673C21.5108 13.6457 21.4963 13.6167 21.4692 13.6072L21.4469 13.6055C21.3366 13.6055 20.3533 13.6216 19.7782 14.1797C19.6531 14.3011 19.5409 14.4302 19.4385 14.5714C19.666 14.0896 19.859 13.5818 20.0145 13.0547L20.0167 13.0469C20.0186 13.0405 20.0214 13.0307 20.0233 13.0281L20.1737 12.8215C20.1793 12.8132 20.18 12.8132 20.1888 12.8132C20.1927 12.8132 20.197 12.8135 20.2019 12.8138L20.2341 12.8157C20.346 12.8227 20.4119 12.8217 20.4661 12.8132C20.6803 12.7794 20.8736 12.6715 21.0571 12.4834C21.4862 12.0433 21.7815 11.4943 21.96 10.8052C21.9791 10.7313 21.9844 10.6568 21.9902 10.5777C21.9927 10.5419 21.9955 10.5049 21.9996 10.4668C22.0013 10.4484 21.9942 10.431 21.9804 10.4195Z" fill="white"/>
<path d="M7.4229 18.4321C7.06607 18.3533 6.71117 18.2385 6.33775 18.081C6.33328 18.0789 6.3222 18.0664 6.31872 18.0552C6.2815 17.9283 6.26904 17.8005 6.28051 17.6644C6.35363 16.7955 5.83622 15.8799 5.05038 15.4874C5.03367 15.4789 5.01625 15.4716 4.99617 15.4634L4.97754 15.4557C4.95983 15.4481 4.93827 15.4513 4.92399 15.4627C4.90855 15.4746 4.90089 15.494 4.90403 15.5135L4.92554 15.6467C4.94461 15.7646 4.96331 15.88 4.98123 15.9955L4.98575 16.0257C5.03621 16.3538 5.08837 16.6932 5.19 17.0192C5.2817 17.3133 5.4232 17.5454 5.62001 17.7233C5.20423 17.4781 4.81679 17.1835 4.46493 16.8446C4.45754 16.8375 4.44877 16.8186 4.4475 16.8031L4.43807 16.5705C4.43802 16.5623 4.43791 16.5403 4.44259 16.5295C4.61591 16.1257 4.6603 15.6712 4.57841 15.1401C4.49945 14.6279 4.28075 14.1569 3.92833 13.7401C3.88708 13.6913 3.85069 13.6666 3.82014 13.6666C3.8127 13.6666 3.80597 13.668 3.80067 13.6708C3.78446 13.6789 3.77349 13.6945 3.77134 13.7125L3.76191 13.7936C3.75463 13.8538 3.74763 13.9129 3.74134 13.9722C3.73048 14.0765 3.71857 14.1807 3.7066 14.2849L3.70489 14.2999C3.67511 14.5601 3.64423 14.8292 3.62791 15.0987C3.60894 15.413 3.61457 15.7801 3.80034 16.1196C3.80134 16.1214 3.80222 16.1232 3.80321 16.1249C3.54498 15.802 3.30924 15.4545 3.09893 15.0862C3.08034 15.0535 3.07874 15.0247 3.08222 14.983C3.09716 14.8067 3.1791 14.6635 3.2654 14.535C3.4321 14.2862 3.53301 13.9921 3.59262 13.5814C3.67594 13.007 3.59179 12.4309 3.34266 11.8687C3.33582 11.8532 3.32782 11.8383 3.31928 11.8222L3.29981 11.7855C3.29049 11.7676 3.27059 11.7558 3.24958 11.7567C3.22862 11.7578 3.21015 11.7711 3.20254 11.7904C3.1421 11.9428 3.08365 12.0897 3.02559 12.2354L2.98847 12.3286C2.86462 12.6396 2.72572 13.0028 2.64499 13.3775C2.58808 13.6419 2.58461 13.8971 2.63451 14.1401C2.44085 13.6791 2.28165 13.192 2.15973 12.687C2.15835 12.6814 2.15791 12.6668 2.16999 12.6332C2.227 12.4772 2.33084 12.3357 2.46241 12.2348C2.75042 12.0139 2.91381 11.7069 3.03562 11.4357C3.28503 10.8811 3.35269 10.2919 3.24241 9.63428C3.24125 9.62739 3.23915 9.62055 3.23667 9.61311L3.23469 9.60715C3.22989 9.59243 3.21897 9.58052 3.20452 9.57428C3.19041 9.56838 3.17265 9.56949 3.16168 9.57489C3.15065 9.57892 3.13394 9.58504 3.12308 9.60097C3.06066 9.68435 2.9973 9.7685 2.93388 9.85259L2.92324 9.86676C2.76333 10.0791 2.59795 10.2986 2.43903 10.5172C2.25491 10.7698 2.12488 11.0154 2.04145 11.2679C2.00119 11.3899 1.97489 11.5073 1.96248 11.6214C1.90949 11.2116 1.87944 10.7932 1.87288 10.3714C1.87133 10.2707 1.88413 10.1907 1.95289 10.1031C2.02568 10.0096 2.09367 9.95747 2.18741 9.92307C2.57259 9.78234 2.81968 9.48495 2.99189 9.24161C3.27009 8.84794 3.43326 8.38987 3.49072 7.8412C3.49684 7.78473 3.50031 7.7276 3.5039 7.66717L3.50478 7.65344C3.50649 7.62404 3.50831 7.59344 3.51062 7.56102C3.51206 7.53951 3.50053 7.51933 3.48129 7.50957C3.46265 7.50019 3.43877 7.50295 3.42256 7.51668L3.37685 7.55583C3.35964 7.5705 3.34492 7.58307 3.32964 7.59531C3.25625 7.65426 3.18258 7.7126 3.10874 7.77111L3.10102 7.77718C2.93896 7.90555 2.77132 8.03828 2.61124 8.17536C2.30062 8.44027 2.10062 8.70396 1.98178 9.00532C1.96215 9.055 1.94495 9.10414 1.93017 9.15277C1.97903 8.67391 2.05838 8.20233 2.16734 7.74481C2.18057 7.68884 2.18796 7.6724 2.21515 7.66347C2.23224 7.65768 2.24818 7.64654 2.25981 7.63276C2.33883 7.54293 2.44289 7.5287 2.54369 7.52666C2.88006 7.51878 3.14684 7.35098 3.36339 7.18786C3.89436 6.78797 4.25996 5.77334 4.25996 5.73893C4.25996 5.72101 4.25103 5.7043 4.23586 5.69421C4.22092 5.68434 4.20074 5.68296 4.18552 5.68974C4.0749 5.73667 3.96428 5.78238 3.84975 5.82975C3.59775 5.93424 3.3372 6.04221 3.08696 6.16027C2.83512 6.27944 2.63611 6.4388 2.49384 6.63489C2.62944 6.24961 2.78665 5.87188 2.96267 5.50887C2.9829 5.46972 3.07797 5.42814 3.21428 5.42814C3.25862 5.42814 3.30158 5.43288 3.33869 5.44182C3.65896 5.51858 3.97653 5.47204 4.32801 5.2964C4.68759 5.11664 4.98592 4.82273 5.24002 4.39763C5.24487 4.38941 5.25441 4.36432 5.25954 4.35026C5.26599 4.33306 5.2634 4.31409 5.2527 4.2997C5.24277 4.28602 5.22689 4.27786 5.20665 4.27786C5.20649 4.27786 5.20638 4.27786 5.20621 4.27786L5.07927 4.28586C5.00147 4.29076 4.92592 4.29556 4.85038 4.29942L4.7697 4.3035C4.52884 4.31563 4.2797 4.32809 4.03597 4.38616C3.75799 4.45299 3.55391 4.55561 3.39741 4.70781C3.58264 4.39951 3.78099 4.10614 3.98992 3.83137C3.99555 3.82409 4.02251 3.81295 4.04463 3.80925C4.05566 3.80666 4.0958 3.79823 4.14918 3.79823C4.21998 3.79823 4.28196 3.81262 4.33451 3.84151C4.6684 4.00479 5.04338 4.01692 5.4505 3.87708C5.78444 3.76299 6.06727 3.55108 6.31519 3.22943C6.32324 3.21906 6.33052 3.20776 6.33714 3.19584C6.34469 3.18211 6.34519 3.167 6.33857 3.15322C6.31938 3.11296 6.23634 3.09405 6.20138 3.08776C6.11558 3.07277 6.01836 3.05567 5.92197 3.0426C5.8778 3.03643 5.83357 3.02997 5.78924 3.02341L5.78356 3.02253C5.63335 3.00036 5.47807 2.97742 5.32163 2.96954C5.03577 2.95493 4.78194 3.01327 4.57422 3.14241C4.7139 2.99375 4.85661 2.85269 5.00152 2.72018C5.04735 2.67838 5.09918 2.63625 5.16982 2.58337C5.17528 2.57918 5.18917 2.57427 5.20621 2.57328C5.70686 2.5537 6.12346 2.33269 6.47968 1.89772C6.67373 1.66094 6.82251 1.36229 6.93461 0.984667L6.93847 0.971709C6.95044 0.932006 6.95706 0.910169 6.92954 0.884583C6.90831 0.864841 6.87092 0.870687 6.77376 0.909177C6.68553 0.943089 6.59675 0.97601 6.5056 1.00981C6.32247 1.07769 6.13306 1.14789 5.95026 1.22719C5.64477 1.35997 5.40081 1.56124 5.22529 1.82532C5.09163 2.02626 5.0388 2.22814 5.06367 2.44143C5.0635 2.4438 5.06141 2.44948 5.06108 2.45015C4.74219 2.72548 4.43736 3.03543 4.12436 3.40434C4.33308 3.08523 4.46912 2.71781 4.53738 2.29189C4.6062 1.86249 4.61056 1.48029 4.55078 1.12352C4.54698 1.10118 4.54185 1.07885 4.53529 1.05089L4.52553 1.00783C4.52112 0.989354 4.50722 0.974411 4.48897 0.968676C4.47072 0.963272 4.45026 0.968069 4.43664 0.981028C4.4148 1.0016 4.39341 1.02101 4.37251 1.03987L4.35778 1.05315C4.3043 1.10135 4.25378 1.14684 4.20807 1.19829C3.76389 1.69938 3.50483 2.22864 3.41611 2.81635C3.37569 3.08197 3.39245 3.30812 3.46739 3.50751C3.4922 3.57357 3.53092 3.63258 3.56946 3.69114C3.58711 3.71788 3.60475 3.74474 3.62091 3.77231C3.63282 3.79211 3.63381 3.79723 3.63376 3.7963C3.62642 3.87488 3.61589 3.96244 3.60166 4.06754C3.60106 4.06887 3.59907 4.07196 3.59273 4.08034L3.5876 4.08745C3.3447 4.42509 3.1206 4.78104 2.91894 5.14945C2.99823 4.87429 3.06137 4.526 3.05691 4.12131C3.0515 3.63589 2.93973 3.20296 2.71508 2.7976C2.7062 2.78183 2.6901 2.77157 2.66754 2.77003C2.65116 2.77003 2.63539 2.77814 2.62508 2.79198C2.61835 2.80135 2.61152 2.81017 2.60501 2.81856C2.59051 2.83731 2.57694 2.85506 2.56481 2.87403C2.38593 3.15454 2.28998 3.46384 2.22629 3.702C2.10988 4.13879 2.05639 4.5035 2.05794 4.84986C2.05882 5.14427 2.11247 5.37057 2.22684 5.56208C2.26241 5.62169 2.30718 5.67386 2.35218 5.72636C2.37606 5.7542 2.40059 5.78282 2.42282 5.81216C2.43837 5.83256 2.44587 5.85335 2.44631 5.86493C2.44923 5.93474 2.44769 6.00571 2.4462 6.07431L2.44515 6.12173C2.44499 6.12989 2.44311 6.13927 2.4403 6.14643C2.29671 6.49433 2.17048 6.8559 2.06284 7.22724C2.07867 7.10079 2.0876 6.97838 2.08986 6.85894C2.10288 6.18101 1.89493 5.57559 1.47166 5.05929L1.38343 4.95182C1.37323 4.93919 1.35812 4.93202 1.34202 4.93202L1.33319 4.93279C1.31433 4.93594 1.29845 4.949 1.29189 4.96682C1.28384 4.98827 1.27595 5.0085 1.26829 5.02808C1.25351 5.06591 1.23956 5.10175 1.22776 5.1382C1.13694 5.42268 1.09238 5.73347 1.08334 6.14572L1.08317 6.15377C1.07639 6.45369 1.06707 6.86456 1.19026 7.25773C1.31152 7.64478 1.52537 7.84037 1.56683 7.8755L1.57124 7.87947C1.68412 7.98021 1.75763 8.07236 1.77285 8.13219C1.77897 8.15634 1.7852 8.18055 1.79248 8.20448C1.82468 8.31096 1.80455 8.41242 1.78283 8.52199C1.77202 8.5773 1.76077 8.63443 1.75686 8.69305C1.74131 8.92762 1.72223 9.16617 1.70375 9.39684L1.7021 9.41818C1.69736 9.47701 1.69261 9.53585 1.68793 9.59469C1.64084 9.06686 1.46603 8.58706 1.16528 8.16274C0.981105 7.90312 0.761526 7.68101 0.5125 7.5024C0.501747 7.49468 0.490443 7.48779 0.475334 7.4788C0.468 7.47455 0.459508 7.46948 0.449196 7.46303C0.433646 7.45371 0.413684 7.45288 0.397637 7.46071C0.381205 7.46871 0.3699 7.48497 0.368026 7.50339C0.364662 7.53675 0.360747 7.56907 0.356611 7.60259C0.348284 7.67125 0.340399 7.73609 0.340068 7.80271C0.336374 8.49321 0.482447 9.14025 0.774374 9.72565C0.85571 9.88899 0.963183 10.0303 1.09393 10.1457C1.22357 10.2596 1.36347 10.3268 1.52134 10.3509C1.52481 10.3515 1.53309 10.3565 1.53435 10.3575C1.5429 10.3747 1.55178 10.3919 1.56066 10.4091C1.5922 10.4701 1.62479 10.5331 1.641 10.5963C1.65451 10.6497 1.65451 10.7081 1.65451 10.77C1.65451 10.7927 1.65451 10.8155 1.65523 10.8379C1.67039 11.3728 1.6903 11.559 1.77588 12.037C1.72366 11.8949 1.6581 11.7524 1.57345 11.6153C1.23068 11.0605 0.795218 10.6839 0.242189 10.4642C0.207008 10.45 0.171717 10.4398 0.130801 10.4279L0.122639 10.4255C0.106041 10.4206 0.0884508 10.4154 0.069647 10.4097C0.052663 10.4041 0.0333078 10.4079 0.019467 10.4194C0.00568121 10.4308 -0.00154251 10.4483 0.000277203 10.4665C0.00435778 10.5044 0.00717007 10.5413 0.00976179 10.5773C0.0154415 10.6563 0.0207904 10.7309 0.039925 10.8046C0.218368 11.4939 0.513713 12.0428 0.942781 12.4829C1.12624 12.6711 1.31957 12.7789 1.5338 12.8127C1.58784 12.8212 1.6539 12.8222 1.76573 12.8153L1.79794 12.8133C1.80285 12.8131 1.80715 12.8128 1.81106 12.8128C1.81988 12.8128 1.8206 12.8128 1.82672 12.8218L1.97655 13.0276C1.97848 13.0303 1.98129 13.04 1.98322 13.0467L1.98542 13.0541C2.14093 13.5813 2.33387 14.0891 2.56139 14.571C2.45899 14.4296 2.34678 14.3006 2.22171 14.1792C1.64657 13.6212 0.663261 13.605 0.55303 13.605L0.5393 13.6051L0.530642 13.6067C0.503622 13.6163 0.489009 13.6452 0.497336 13.6724C0.505001 13.698 0.512169 13.724 0.520386 13.7544C0.536101 13.8116 0.552424 13.8706 0.575308 13.9278C0.68427 14.2001 0.860893 14.462 1.13126 14.7524C1.31704 14.9514 1.52647 15.1533 1.79882 15.281C2.09709 15.421 2.36641 15.4552 2.63424 15.3866C2.67978 15.3747 2.73217 15.3595 2.77722 15.3303C2.80931 15.3097 2.81808 15.3104 2.84962 15.3339C2.88701 15.3616 2.92677 15.385 2.96537 15.4076C2.98671 15.4201 3.00821 15.4327 3.02829 15.4454C3.03149 15.4481 3.03832 15.4593 3.04086 15.4634C3.28117 15.8554 3.54591 16.2197 3.83178 16.552C3.67715 16.4395 3.5184 16.3581 3.34977 16.3039C2.83446 16.1378 2.29433 16.159 1.75939 16.3658C1.67955 16.3967 1.59203 16.4436 1.58619 16.4469C1.57395 16.455 1.56551 16.468 1.56286 16.4829C1.56055 16.4976 1.56435 16.5126 1.57329 16.5241C1.58999 16.5458 1.60615 16.5676 1.62214 16.5893L1.62567 16.594C1.66179 16.6432 1.70271 16.6989 1.74858 16.7482C1.95521 16.9697 2.21002 17.1182 2.45463 17.2457C2.79101 17.4202 3.13499 17.5142 3.4771 17.5252C3.4932 17.5258 3.5093 17.5261 3.52535 17.5261C3.84005 17.5261 4.08571 17.4224 4.27507 17.2103C4.27739 17.2086 4.2856 17.2055 4.29012 17.2054C4.36247 17.2106 4.43123 17.2211 4.48263 17.2297C4.49073 17.2311 4.50071 17.236 4.50695 17.2416C4.8233 17.5217 5.15835 17.7675 5.50834 17.9767C5.45529 17.961 5.40065 17.9473 5.34473 17.9363C4.9707 17.8644 4.589 17.9095 4.16986 18.0761C3.88708 18.1888 3.62411 18.3544 3.36587 18.5823C3.34459 18.601 3.34161 18.6331 3.35914 18.6554C3.45052 18.7717 3.5694 18.8368 3.67368 18.8851C3.928 19.0033 4.21507 19.0789 4.55161 19.1166C4.5526 19.1166 4.66074 19.126 4.81238 19.126C4.92184 19.126 5.02369 19.1211 5.11495 19.1114C5.20219 19.1023 5.2892 19.0873 5.37363 19.067C5.76139 18.9726 6.02415 18.7785 6.17469 18.4772C6.17739 18.4746 6.18897 18.4679 6.20364 18.4643C6.27362 18.4469 6.33659 18.4347 6.39647 18.4267C6.41059 18.4244 6.42818 18.4282 6.45035 18.4371C6.71812 18.5403 7.0015 18.6263 7.29205 18.6926C7.29613 18.6936 7.30038 18.694 7.30462 18.694C7.32414 18.694 7.34212 18.6833 7.35161 18.6658C7.37934 18.6141 7.41314 18.5646 7.45202 18.5186C7.46421 18.5041 7.46785 18.4848 7.46184 18.4669C7.4561 18.4496 7.44154 18.4365 7.4229 18.4321Z" fill="white"/>
<path d="M14.0292 14.6346C13.9812 14.6696 13.9243 14.6873 13.8671 14.6873C13.8233 14.6873 13.7792 14.6769 13.7389 14.6557L11.0005 13.2161L8.26212 14.6557M14.0292 14.6346L8.26212 14.6557M14.0292 14.6346C14.1141 14.5731 14.1567 14.4684 14.1389 14.3651L14.0292 14.6346ZM8.26212 14.6557L8.13402 14.4117L8.13399 14.4117L8.13397 14.4117L8.13385 14.4114L8.02963 14.213L8.02946 14.2131L8.13378 14.4115L8.13384 14.4116L8.13389 14.4117L8.13393 14.4118L8.26212 14.6557ZM13.2669 10.9577L13.0787 11.1411L13.1231 11.4002L13.5692 14.0016L11.2332 12.7736L11.0005 12.6513L10.7679 12.7736L8.4317 14.0016L8.87768 11.4002L8.92209 11.1411L8.73387 10.9577L6.84367 9.11516L9.45606 8.73585L9.71626 8.69807L9.83261 8.46229L11.0004 6.09552L12.1687 8.46235L12.2851 8.69807L12.5452 8.73585L15.1571 9.11515L13.2669 10.9577ZM6.39376 9.18049L6.39387 9.18047L6.39376 9.18049ZM10.7992 5.68782L10.7993 5.68795L10.7992 5.68782Z" stroke="white"/>
</svg>
