<?xml version="1.0" encoding="utf-8"?>
<!-- Generator: Adobe Illustrator 21.1.0, SVG Export Plug-In . SVG Version: 6.00 Build 0)  -->
<svg version="1.1" id="Layer_1" xmlns="http://www.w3.org/2000/svg" xmlns:xlink="http://www.w3.org/1999/xlink" x="0px" y="0px"
	 viewBox="0 0 16.6 22" style="enable-background:new 0 0 16.6 22;" xml:space="preserve">
<style type="text/css">
	.st0{fill:#FFFFFF;}
</style>
<title>s_palaidojimas</title>
<path class="st0" d="M16.5,21.6l-1.9-2.5v-1.4c0-0.1-0.1-0.3-0.3-0.3l0,0h-1.3c-0.1-1.2-1.1-2.2-2.3-2.3V8.7h3.6
	c0.1,0,0.3-0.1,0.3-0.3l0,0V3.9c0-0.1-0.1-0.3-0.3-0.3l0,0h-3.6V0.3c0-0.1-0.1-0.3-0.2-0.3c0,0,0,0,0,0H6C5.9,0,5.8,0.1,5.8,0.2
	c0,0,0,0,0,0v3.4H2.2C2,3.7,1.9,3.8,1.9,4l0,0v4.5c0,0.1,0.1,0.3,0.3,0.3l0,0h3.6v6.4c-1.2,0.1-2.1,1.1-2.3,2.3H2.2
	c-0.1,0-0.3,0.1-0.3,0.3l0,0v1.4L0,21.6C0,21.7,0,21.8,0,21.9C0.1,22,0.2,22,0.3,22h16c0.1,0,0.2-0.1,0.2-0.1
	C16.6,21.8,16.6,21.7,16.5,21.6z M6,15.6c0.1,0,0.3-0.1,0.3-0.3l0,0V8.4c0-0.1-0.1-0.3-0.2-0.3c0,0,0,0,0,0H2.4v-4H6
	c0.1,0,0.3-0.1,0.3-0.2c0,0,0,0,0,0V0.5h4v3.4c0,0.1,0.1,0.3,0.2,0.3c0,0,0,0,0,0h3.6v4h-3.6c-0.1,0-0.3,0.1-0.3,0.2c0,0,0,0,0,0
	v6.9c0,0.1,0.1,0.3,0.3,0.3l0,0l0,0c1,0,1.9,0.8,2,1.8H12c0-0.3-0.2-0.5-0.4-0.7c-0.5-0.4-1.1-0.6-1.7-0.6V7.8h3.6
	c0.1,0,0.3-0.1,0.3-0.2c0,0,0,0,0,0V4.8c0-0.1-0.1-0.3-0.3-0.3l0,0H9.8V1.2c0-0.1-0.1-0.3-0.2-0.3c0,0,0,0,0,0H7
	c-0.1,0-0.3,0.1-0.3,0.2c0,0,0,0,0,0v3.4H3.1C3,4.6,2.9,4.7,2.9,4.8l0,0v2.7c0,0.1,0.1,0.3,0.2,0.3c0,0,0,0,0,0h3.7v8.3
	c-0.6,0-1.2,0.2-1.7,0.6c-0.2,0.2-0.3,0.4-0.4,0.7H4.1C4.2,16.4,5,15.7,6,15.6L6,15.6z M7,7.2H3.4V5.1H7c0.1,0,0.3-0.1,0.3-0.2
	c0,0,0,0,0,0V1.5h2.1v3.4c0,0.1,0.1,0.3,0.2,0.3c0,0,0,0,0,0h3.6v2.2H9.6c-0.1,0-0.3,0.1-0.3,0.2c0,0,0,0,0,0v8.8
	c0,0.1,0,0.1,0.1,0.2c0.1,0,0.1,0.1,0.2,0.1c0.6,0,1.2,0.1,1.6,0.4c0.1,0.1,0.2,0.2,0.2,0.3H5.1c0-0.1,0.1-0.2,0.2-0.3
	c0.5-0.3,1.1-0.5,1.6-0.4c0.1,0,0.1,0,0.2-0.1c0.1-0.1,0.1-0.1,0.1-0.2V7.5C7.3,7.4,7.2,7.3,7,7.2C7,7.3,7,7.3,7,7.2L7,7.2z
	 M2.4,17.9h11.8v1H2.4V17.9z M0.8,21.5l1.5-2.1h12l1.5,2.1H0.8z"/>
</svg>
