<?xml version="1.0" encoding="utf-8"?>
<!-- Generator: Adobe Illustrator 21.1.0, SVG Export Plug-In . SVG Version: 6.00 Build 0)  -->
<svg version="1.1" id="Layer_1" xmlns="http://www.w3.org/2000/svg" xmlns:xlink="http://www.w3.org/1999/xlink" x="0px" y="0px"
	 viewBox="0 0 23 23" style="enable-background:new 0 0 23 23;" xml:space="preserve">
<style type="text/css">
	.st0_skulp{fill:none;stroke:#FFFFFF;stroke-miterlimit:10;}
</style>
<title>s_skulpturos</title>
<path class="st0_skulp" d="M19,0.8c-0.7,0.4-0.8,0.7-1.1,3.8c-0.2,1.6-0.3,2.9-0.3,3s-2,0-4.5,0H8.7V6.7c0-1.1-0.4-1.6-1.2-1.6
	C6.9,5.1,6.7,5.2,6,6.6l-0.6,1H3.6L3.1,6.5C2.9,6,2.6,5.6,2.2,5.2C1.8,5,1.2,5,0.8,5.4C0.5,5.7,0.5,5.8,0.5,10
	c0.1,5.8,0,5.7,3.5,6.8l2,0.6v1.7c0,0.8,0,1.5-0.2,2.3c-0.4,1.1-0.4,1.2,2.4,1.2h2.4v-5.2H18V19c0,0.8,0,1.6-0.2,2.3
	c-0.4,1.2-0.4,1.2,2.4,1.2h2.4v-5.4c0-5.7-0.1-6.4-0.7-7.5c-0.3-0.4-0.3-0.7-0.3-4.2c0-4.1,0-4.3-0.9-4.8C20.1,0.4,19.5,0.4,19,0.8z
	"/>
</svg>
