<svg width="17" height="19" viewBox="0 0 17 19" fill="none" xmlns="http://www.w3.org/2000/svg">
<path fill-rule="evenodd" clip-rule="evenodd" d="M8.5 1.72229L9.46748 1.72445L9.47586 3.22182L12.5578 3.94689L12.8697 2.44715L13.6559 2.69568L14.9762 14.3875L11.2183 16.8038L8.62967 16.7913V16.79L8.5 16.7907L8.37023 16.79V16.7913L5.78172 16.8038L2.02384 14.3875L3.34408 2.69568L4.13031 2.44715L4.44219 3.94689L7.52414 3.22182L7.53252 1.72445L8.5 1.72229ZM11.7491 1.87151L10.7595 1.63092L10.6964 0.00154687L8.62967 0.00020625V0L8.5 0.000103125L8.37023 0V0.00020625L6.30358 0.00154687L6.24053 1.63092L5.25088 1.87151L4.92473 0.254718L1.71186 1.41415L0 15.6329L5.24346 18.9915L8.37023 18.9993V19L8.5 18.9997L8.62967 19V18.9993L11.7565 18.9915L17 15.6329L15.2881 1.41415L12.0753 0.254718L11.7491 1.87151Z" fill="white"/>
</svg>
