<svg id="Layer_1" data-name="Layer 1" xmlns="http://www.w3.org/2000/svg" viewBox="0 0 21 21"><defs><style>.cls-1{fill:#353535;}</style></defs><title>saltiniai</title><path class="cls-1" d="M22,17.83a4.5,4.5,0,0,1,4.5,4.5h1a5.5,5.5,0,0,0-5.5-5.5Zm-4.5,4.5a4.5,4.5,0,0,1,4.5-4.5v-1a5.5,5.5,0,0,0-5.5,5.5Zm4.5,4.5a4.5,4.5,0,0,1-4.5-4.5h-1a5.5,5.5,0,0,0,5.5,5.5Zm4.5-4.5a4.5,4.5,0,0,1-4.5,4.5v1a5.5,5.5,0,0,0,5.5-5.5Z" transform="translate(-8.5 -8.83)"/><path class="cls-1" d="M24.65,25.69l4,4,.71-.71-4-4Zm4,4a.5.5,0,1,0,.71-.71ZM25.35,25a.5.5,0,0,0-.71.71Z" transform="translate(-8.5 -8.83)"/><path class="cls-1" d="M24.91,13.55a8.37,8.37,0,0,1,1.41,4.65h1A9.37,9.37,0,0,0,25.74,13Zm-3.76-3.08a8.37,8.37,0,0,1,3.76,3.08l.83-.56a9.37,9.37,0,0,0-4.21-3.45ZM16.32,10a8.37,8.37,0,0,1,4.84.48l.38-.92A9.37,9.37,0,0,0,16.12,9ZM12,12.29A8.37,8.37,0,0,1,16.32,10l-.2-1a9.37,9.37,0,0,0-4.8,2.56ZM9.74,16.57A8.37,8.37,0,0,1,12,12.29l-.71-.71a9.37,9.37,0,0,0-2.56,4.8Zm.48,4.84a8.37,8.37,0,0,1-.48-4.84l-1-.2a9.37,9.37,0,0,0,.53,5.41Zm3.08,3.76a8.37,8.37,0,0,1-3.08-3.76l-.92.38A9.37,9.37,0,0,0,12.74,26ZM18,26.58a8.37,8.37,0,0,1-4.65-1.41l-.56.83A9.37,9.37,0,0,0,18,27.58Zm8.37-8.37a.5.5,0,0,0,1,0ZM18,27.58a.5.5,0,0,0,0-1Z" transform="translate(-8.5 -8.83)"/><path class="cls-1" d="M17.45,9.33v7.52h1V9.33Zm0,7.52a.5.5,0,0,0,1,0Zm1-7.52a.5.5,0,1,0-1,0Z" transform="translate(-8.5 -8.83)"/><path class="cls-1" d="M15.86,22.21a18.47,18.47,0,0,0-5.06,1l.32.95a17.47,17.47,0,0,1,4.79-.92Zm-5.06,1a.5.5,0,0,0,.32.95Zm5.11,0a.5.5,0,0,0-.05-1Z" transform="translate(-8.5 -8.83)"/><path class="cls-1" d="M18,14.27a21.31,21.31,0,0,0,7.16-1.06l-.36-.93a20.36,20.36,0,0,1-6.8,1Zm-7.16-1.06A21.31,21.31,0,0,0,18,14.27v-1a20.36,20.36,0,0,1-6.8-1Z" transform="translate(-8.5 -8.83)"/><path class="cls-1" d="M12.13,18.21a12.89,12.89,0,0,0,1.63,6.53,5.1,5.1,0,0,0,4.19,2.84v-1a4.12,4.12,0,0,1-3.34-2.36,11.9,11.9,0,0,1-1.49-6Zm5.82-9.37a5.1,5.1,0,0,0-4.19,2.84,12.89,12.89,0,0,0-1.63,6.53h1a11.9,11.9,0,0,1,1.49-6,4.12,4.12,0,0,1,3.34-2.36Zm5.6,6.8a10.82,10.82,0,0,0-2-4.8,4.67,4.67,0,0,0-3.62-2v1a3.69,3.69,0,0,1,2.83,1.62,9.84,9.84,0,0,1,1.79,4.36Zm-5.6,11.94a.5.5,0,0,0,0-1Zm4.62-11.77a.5.5,0,1,0,1-.17Z" transform="translate(-8.5 -8.83)"/><path class="cls-1" d="M16.76,17.71H9v1h7.76ZM9,17.71a.5.5,0,0,0,0,1Zm7.76,1a.5.5,0,0,0,0-1Z" transform="translate(-8.5 -8.83)"/></svg>