<svg width="64" height="64" viewBox="0 0 64 64" fill="none" xmlns="http://www.w3.org/2000/svg">
<path fill-rule="evenodd" clip-rule="evenodd" d="M61.9229 8.95871C54.0069 20.728 30.1629 44.5334 30.1629 44.5334L30.1536 44.524C30.0976 44.5854 30.0469 44.6494 29.9869 44.7094C28.4882 46.2054 26.4549 46.8107 24.5016 46.58C25.1296 49.2094 24.4669 52.096 22.4629 54.1507C22.4629 54.1507 12.4362 66.5494 1.32422 58.7374C1.32422 58.7374 7.31622 57.0587 7.83755 52.224C7.83755 52.224 7.03755 47.352 11.4362 42.8374C13.4082 40.8134 16.1669 40.1187 18.6962 40.7094C18.4936 38.784 19.1002 36.7894 20.5776 35.3134C20.6362 35.2534 20.7016 35.2027 20.7629 35.1454L20.7536 35.136C20.7536 35.136 44.5829 11.3174 56.3695 3.41204C57.9295 2.29604 60.1082 2.42671 61.5082 3.82538C62.9122 5.22671 63.0416 7.40138 61.9229 8.95871ZM20.6069 44.648C19.6176 43.6587 18.3349 43.0947 16.9629 43.0947C15.5856 43.0947 14.2842 43.6494 13.3042 44.656C9.92422 48.1254 10.4309 52.1014 10.4442 52.2254C10.1536 54.9187 8.62688 57.2134 7.03489 58.5934C7.59755 58.696 8.16688 58.748 8.74822 58.748C15.0816 58.748 20.4176 52.5347 20.4669 52.476C20.4682 52.476 24.1189 48.1614 20.6069 44.648ZM21.3242 40.0107C21.3242 41.072 21.7095 42.072 22.4629 42.8227C23.2162 43.5747 24.2602 44.0107 25.3242 44.0107C26.3882 44.0107 27.3496 43.576 28.0789 42.8454L30.1509 40.752C30.2562 40.644 30.4002 40.4974 30.5162 40.3787L24.9202 34.7827C24.7976 34.9014 24.6469 35.0467 24.5376 35.1547L22.4616 37.204C21.7096 37.9534 21.3242 38.9494 21.3242 40.0107ZM59.6256 5.71471C59.2936 5.38271 58.9055 5.33338 58.7015 5.33338C58.4189 5.33338 58.1495 5.41871 57.8549 5.62938C49.5642 11.1894 33.8562 26.1187 26.7869 32.9667L32.3322 38.512C39.1856 31.4507 54.1509 15.7347 59.7562 7.40271C60.1349 6.87738 60.0802 6.16671 59.6256 5.71471Z" fill="#252525"/>
</svg>
