<svg id="Layer_1" data-name="Layer 1" xmlns="http://www.w3.org/2000/svg" viewBox="0 0 27.03 26.63"><title>Sukūrė</title><path d="M24.83,11.1A13.32,13.32,0,1,0,38.35,24.42,13.42,13.42,0,0,0,24.83,11.1ZM23.46,30.95a10.36,10.36,0,0,0-4.4,1.81l-.41-.41,2.6-2.56a.52.52,0,0,0,.41,0,.51.51,0,0,0,.27-.67.52.52,0,0,0-.68-.27.51.51,0,0,0-.27.67l-2.59,2.56L18,31.67a10,10,0,0,0,1.83-4.34,7.33,7.33,0,0,0,3.28-2.15l2.57,2.53A7.14,7.14,0,0,0,23.46,30.95Zm8.23-8.81c-.53.48-5.12,5.39-5.12,5.39l-3.3-3.25s6.13-6.62,8.43-9.05Z" transform="translate(-11.32 -11.1)"/></svg>