<svg width="64" height="64" viewBox="0 0 64 64" fill="none" xmlns="http://www.w3.org/2000/svg">
<path fill-rule="evenodd" clip-rule="evenodd" d="M19.088 5.12536C16.9255 5.75043 15.8264 8.5012 16.8579 10.7061C17.0216 11.0558 17.3569 11.5846 17.6032 11.8812C17.8494 12.1778 18.0306 12.4374 18.0057 12.458C17.9808 12.4786 17.4645 12.6525 16.8585 12.8446C10.5575 14.8415 5.59183 20.0471 3.76076 26.5752C2.52955 30.9645 2.80362 35.9455 4.50415 40.0855C7.16587 46.566 12.7333 51.1065 19.4911 52.308C20.9363 52.5651 24.3259 52.593 25.5955 52.3585L26.4893 52.1933L27.5157 53.2092C33.562 59.1943 42.2759 60.6818 49.7638 57.0071C58.7619 52.5912 63.1244 42.0282 59.9886 32.25C57.034 23.0373 47.9365 17.1794 38.6828 18.531L37.4652 18.7089L36.2422 17.5099C34.8287 16.1241 32.7959 14.6805 31.1326 13.8813C30.0106 13.3422 27.8323 12.5349 27.4997 12.5349C27.2504 12.5349 27.2993 12.4191 27.7801 11.8702C29.2811 10.1572 29.2604 7.33296 27.7367 5.95353C26.3947 4.73864 24.1409 4.69643 23.0538 5.86569L22.754 6.18809L22.3184 5.82854C21.4245 5.09099 20.1596 4.81561 19.088 5.12536ZM21.3729 6.32988C21.6016 6.4756 21.9346 6.82238 22.1132 7.10042C22.2917 7.37858 22.5233 7.60606 22.628 7.60606C22.7328 7.60606 23.1319 7.26913 23.5149 6.85739C24.1269 6.19959 24.2855 6.09747 24.8213 6.01722C26.5395 5.75979 27.8272 6.8953 27.9296 8.75839C28.0104 10.2251 27.4528 11.0858 25.2601 12.8796C24.616 13.4065 23.7778 14.1478 23.3976 14.5271L22.7063 15.2166L22.2126 14.7076C21.941 14.4275 21.0662 13.6635 20.2687 13.0097C18.5793 11.6249 18.0978 11.0939 17.6815 10.156C16.7837 8.13407 18.2183 5.81881 20.2556 6.00193C20.6595 6.0382 21.1335 6.17734 21.3729 6.32988ZM19.6735 13.7852C20.6857 14.5732 21.4447 15.2823 21.3644 15.365C21.3236 15.4072 21.1055 15.4416 20.8796 15.4416C19.6173 15.4416 17.0359 16.2549 15.1567 17.2449C5.32683 22.4228 3.2657 36.1123 11.0996 44.1897C14.2664 47.4548 18.1992 49.1149 22.7407 49.1034C30.6692 49.0832 37.1483 43.5644 38.8171 35.4095C39.1239 33.9104 39.1232 30.5827 38.8158 29.0936C38.481 27.4717 37.9477 25.8662 37.3277 24.6133C36.9466 23.8434 36.8136 23.4569 36.9087 23.3963C37.2732 23.164 38.9936 22.8777 39.1615 23.0214C39.4033 23.2283 40.3774 25.6567 40.7462 26.9718C41.492 29.631 41.6359 33.4795 41.0876 36.1046C39.484 43.7829 33.8462 49.5694 26.3565 51.2245C24.5125 51.6319 20.8626 51.6366 19.0556 51.2338C11.4402 49.5365 5.91382 43.8399 4.26881 35.9913C3.88186 34.1453 3.88137 30.3568 4.26783 28.5136C4.6576 26.6542 5.07079 25.425 5.87938 23.7194C8.22499 18.771 12.6793 14.9752 17.8072 13.5546C18.9895 13.227 18.9502 13.2222 19.6735 13.7852ZM28.5327 13.8645C30.2457 14.4547 31.6254 15.1536 33.1238 16.1901C34.3161 17.015 36.3592 18.8189 36.2401 18.9418C36.2098 18.973 35.6651 19.1828 35.0295 19.4081L33.8739 19.8176L32.947 19.0513C30.6522 17.1544 27.4343 15.7372 24.8508 15.4854C24.3305 15.4347 24.0351 15.3522 24.0617 15.265C24.0851 15.1883 24.5972 14.7112 25.1998 14.2048C26.4782 13.1302 26.4188 13.1363 28.5327 13.8645ZM26.2952 16.7543C28.695 17.3816 30.9149 18.516 32.4337 19.8909L32.8645 20.2809L31.8479 20.8409C28.4911 22.6903 25.4418 25.9504 23.7179 29.5329C22.1902 32.7078 21.6461 35.1141 21.6461 38.6953C21.6461 41.9317 22.1521 44.3914 23.398 47.2118C23.6094 47.6906 23.7825 48.1114 23.7825 48.1469C23.7825 48.2995 20.3253 48.0351 19.358 47.8083C13.3844 46.408 8.84323 41.6406 7.52316 35.3837C7.21134 33.9061 7.21404 30.5819 7.52818 29.0905C8.92413 22.4637 14.0033 17.4835 20.4118 16.4579C21.792 16.237 24.9193 16.3946 26.2952 16.7543ZM44.4062 19.6069C52.097 20.9626 58.0516 26.9136 59.7124 34.904C60.1087 36.8105 60.1121 40.568 59.7194 42.4422C58.0531 50.3947 52.3234 56.175 44.558 57.7375C43.0381 58.0434 39.6162 58.0412 38.0006 57.7335C35.5938 57.2749 33.0046 56.1968 30.9319 54.7904C29.9502 54.1242 27.8214 52.2778 27.7476 52.0284C27.727 51.9588 28.2634 51.7228 28.9395 51.5036L30.169 51.1053L30.7284 51.6045C35.6182 55.9681 43.1019 56.8119 48.9042 53.654C56.8944 49.3051 59.9891 39.2151 55.8691 30.9449C50.7905 20.7498 37.5903 18.6296 29.7196 26.7448C26.5239 30.0399 24.9529 33.9776 24.9519 38.6953C24.9513 41.6675 25.4128 43.7022 26.6784 46.3072C26.9732 46.914 27.2144 47.434 27.2144 47.4625C27.2144 47.5071 26.0557 47.8073 25.1636 47.9938C24.9268 48.0434 24.8236 47.9147 24.3934 47.0322C22.4663 43.0805 22.019 37.7872 23.2426 33.4171C25.3408 25.9243 31.5317 20.4501 39.0424 19.4464C40.2169 19.2894 43.0933 19.3755 44.4062 19.6069ZM43.8806 22.9667C47.0124 23.4904 49.9479 25.0757 52.2799 27.5027C58.963 34.4581 58.0152 45.8823 50.2785 51.6258C44.7363 55.7404 37.1043 55.5593 31.7384 51.1859L31.1145 50.6775L32.1368 50.0859C41.2504 44.8131 44.9222 33.4385 40.6233 23.7964C40.3942 23.2826 40.2068 22.842 40.2068 22.8169C40.2068 22.6893 42.8711 22.798 43.8806 22.9667ZM36.4577 25.0245C39.0567 30.3623 38.5887 36.7328 35.244 41.5389C33.6763 43.7916 31.3865 45.7047 28.9032 46.8368L28.2017 47.1564L27.872 46.5762C25.7837 42.902 25.29 37.9051 26.6053 33.7551C27.9629 29.4713 31.1477 25.8518 35.1192 24.0787C35.4558 23.9284 35.7745 23.8332 35.8275 23.8669C35.8805 23.9008 36.164 24.4216 36.4577 25.0245Z" fill="#252525"/>
</svg>
