<svg id="Layer_1" data-name="Layer 1" xmlns="http://www.w3.org/2000/svg" viewBox="0 0 26.93 26.93"><defs><style>.cls-1{fill:#010101;}</style></defs><title>Vedė</title><path class="cls-1" d="M24.84,23.2a4.84,4.84,0,0,0,0,6.17,4.84,4.84,0,0,0,0-6.17Z" transform="translate(-11.37 -10.95)"/><path class="cls-1" d="M24.06,22.42a5.37,5.37,0,0,0-3.35-1.16,5,5,0,1,0,0,10,5.37,5.37,0,0,0,3.35-1.16,5.89,5.89,0,0,1,0-7.72Z" transform="translate(-11.37 -10.95)"/><path class="cls-1" d="M24.83,11A13.46,13.46,0,1,0,38.3,24.42,13.46,13.46,0,0,0,24.83,11Zm-2.08,4.66a1.33,1.33,0,0,1,1.81,0l.34.32.34-.32a1.32,1.32,0,0,1,1.8,0,1.35,1.35,0,0,1,0,2l-1.94,1.85a.3.3,0,0,1-.42,0l-1.94-1.85A1.35,1.35,0,0,1,22.75,15.61ZM29,32.37a6.48,6.48,0,0,1-4.12-1.46,6.5,6.5,0,0,1-4.13,1.46,6.22,6.22,0,0,1-6.35-6.08,6.23,6.23,0,0,1,6.35-6.09,6.51,6.51,0,0,1,4.13,1.47A6.45,6.45,0,0,1,29,20.19a6.23,6.23,0,0,1,6.35,6.09A6.22,6.22,0,0,1,29,32.37Z" transform="translate(-11.37 -10.95)"/><path class="cls-1" d="M29,21.26a5.31,5.31,0,0,0-3.34,1.17,5.88,5.88,0,0,1,0,7.71A5.34,5.34,0,0,0,29,31.3a5,5,0,1,0,0-10Z" transform="translate(-11.37 -10.95)"/></svg>