<svg width="64" height="64" viewBox="0 0 64 64" fill="none" xmlns="http://www.w3.org/2000/svg">
<path d="M37.3594 23.9544C37.3594 24.4472 37.7584 24.8472 38.2522 24.8472H47.1809C47.6746 24.8472 48.0737 24.4472 48.0737 23.9544C48.0737 23.4615 47.6746 23.0615 47.1809 23.0615H38.2522C37.7584 23.0614 37.3594 23.4614 37.3594 23.9544Z" fill="#252525"/>
<path d="M42.7148 29.3115C42.7148 29.8044 43.1139 30.2044 43.6077 30.2044H48.9649C49.4587 30.2044 49.8577 29.8044 49.8577 29.3115C49.8577 28.8187 49.4587 28.4187 48.9649 28.4187H43.6077C43.1139 28.4186 42.7148 28.8186 42.7148 29.3115Z" fill="#252525"/>
<path d="M41.8192 19.49C42.313 19.49 42.7121 19.09 42.7121 18.5972C42.7121 18.1044 42.313 17.7043 41.8192 17.7043H40.0335C39.5397 17.7043 39.1406 18.1044 39.1406 18.5972C39.1406 19.09 39.5397 19.49 40.0335 19.49H41.8192Z" fill="#252525"/>
<path d="M31.1077 28.4185C30.6139 28.4185 30.2148 28.8185 30.2148 29.3113C30.2148 29.8041 30.6139 30.2041 31.1077 30.2041H40.0363C40.5301 30.2041 40.9292 29.8041 40.9292 29.3113C40.9292 28.8185 40.5301 28.4185 40.0363 28.4185H31.1077Z" fill="#252525"/>
<path d="M35.5745 53.4192H18.61C17.1333 53.4192 15.9314 52.2173 15.9314 50.7405V9.66847C15.9314 9.17565 15.5324 8.77563 15.0386 8.77563C12.577 8.77563 10.5742 10.7783 10.5742 13.24C10.5742 13.7328 10.9733 14.1329 11.4671 14.1329C11.9608 14.1329 12.3599 13.7328 12.3599 13.24C12.3599 12.0757 13.1063 11.0828 14.1457 10.7141V50.7405C14.1457 53.2021 16.1483 55.2049 18.61 55.2049H35.5745C36.0683 55.2049 36.4674 54.8049 36.4674 54.3121C36.4674 53.8193 36.0683 53.4192 35.5745 53.4192Z" fill="#252525"/>
<path d="M22.178 24.8472H34.6782C35.172 24.8472 35.571 24.4472 35.571 23.9544C35.571 23.4615 35.172 23.0615 34.6782 23.0615H22.178C21.6842 23.0615 21.2852 23.4615 21.2852 23.9544C21.2852 24.4472 21.6842 24.8472 22.178 24.8472Z" fill="#252525"/>
<path d="M22.178 19.49H25.7494C26.2432 19.49 26.6423 19.09 26.6423 18.5972C26.6423 18.1044 26.2432 17.7043 25.7494 17.7043H22.178C21.6842 17.7043 21.2852 18.1044 21.2852 18.5972C21.2852 19.09 21.6842 19.49 22.178 19.49Z" fill="#252525"/>
<path d="M36.4655 17.7043H29.3225C28.8288 17.7043 28.4297 18.1044 28.4297 18.5972C28.4297 19.09 28.8288 19.49 29.3225 19.49H36.4655C36.9593 19.49 37.3583 19.09 37.3583 18.5972C37.3585 18.1044 36.9593 17.7043 36.4655 17.7043Z" fill="#252525"/>
<path d="M48.9649 5.22461H15.0358C10.6152 5.22461 7.01695 8.813 7 13.2292V13.2398V13.2497V13.2604V13.2711C7.01161 16.1185 8.54826 18.7712 11.017 20.1998C11.4438 20.4462 11.9893 20.3007 12.2366 19.8748C12.4848 19.448 12.3374 18.9016 11.9116 18.6551C9.98665 17.5399 8.78933 15.4703 8.78577 13.2498C8.79205 9.80859 11.593 7.01038 15.0358 7.01038H48.9649C52.4105 7.01038 55.215 9.81403 55.215 13.2604V50.761C55.215 51.2136 55.0882 51.6681 54.8498 52.0735C54.6007 52.4985 54.7417 53.0458 55.1667 53.2958C55.3096 53.3797 55.4649 53.4191 55.6185 53.4191C55.9248 53.4191 56.223 53.2619 56.3891 52.9789C56.7891 52.2994 57.0006 51.5324 57.0006 50.761V13.2604C57.0007 8.82912 53.3962 5.22461 48.9649 5.22461Z" fill="#252525"/>
<path d="M51.6441 46.2762C51.6441 43.3216 49.2414 40.9189 46.2869 40.9189C43.3324 40.9189 40.9297 43.3216 40.9297 46.2762C40.9297 49.2307 43.3324 51.6334 46.2869 51.6334C49.2414 51.6334 51.6441 49.2307 51.6441 46.2762ZM46.2869 49.8476C44.3172 49.8476 42.7155 48.2458 42.7155 46.2762C42.7155 44.3066 44.3173 42.7047 46.2869 42.7047C48.2566 42.7047 49.8584 44.3066 49.8584 46.2762C49.8584 48.2458 48.2566 49.8476 46.2869 49.8476Z" fill="#252525"/>
<path d="M44.6758 52.527C44.2499 52.2806 43.7034 52.427 43.4561 52.8538L41.5337 56.1851L41.2284 55.7244C41.074 55.4896 40.8177 55.3413 40.5373 55.3253L39.9855 55.2923L41.94 51.9083C42.1864 51.4815 42.0401 50.9351 41.6133 50.6886C41.1865 50.4413 40.6401 50.5878 40.3927 51.0154L37.7168 55.6503C37.5624 55.9182 37.5579 56.2477 37.7043 56.5199C37.8507 56.7922 38.1275 56.97 38.4373 56.9877L39.9847 57.0806L40.8391 58.3743C41.0043 58.6253 41.2846 58.7752 41.5838 58.7752H41.6115C41.9195 58.7654 42.2026 58.5966 42.3579 58.3287L45.0035 53.7465C45.2499 53.3199 45.1035 52.7734 44.6758 52.527Z" fill="#252525"/>
<path d="M52.2038 51.0574C51.9565 50.6297 51.4091 50.4833 50.9841 50.7306C50.5565 50.977 50.41 51.5235 50.6564 51.9502L52.5877 55.2922L52.0359 55.3253C51.7556 55.3422 51.4993 55.4905 51.3439 55.7243L51.0404 56.185L49.1279 52.8707C48.8797 52.4439 48.3332 52.2975 47.9074 52.5439C47.4806 52.7903 47.3342 53.3368 47.5806 53.7636L50.2163 58.3289C50.3717 58.5967 50.6547 58.7655 50.9628 58.7753H50.9905C51.2887 58.7753 51.5699 58.6253 51.736 58.3745L52.5896 57.0816L54.1361 56.9879C54.4459 56.97 54.7227 56.7923 54.8691 56.5201C55.0156 56.2478 55.0102 55.9183 54.8567 55.6505L52.2038 51.0574Z" fill="#252525"/>
<path d="M22.178 30.2044H27.5352C28.029 30.2044 28.428 29.8044 28.428 29.3115C28.428 28.8187 28.029 28.4187 27.5352 28.4187H22.178C21.6842 28.4187 21.2852 28.8187 21.2852 29.3115C21.2852 29.8044 21.6842 30.2044 22.178 30.2044Z" fill="#252525"/>
<path d="M22.178 35.5615H32.8924C33.3862 35.5615 33.7853 35.1615 33.7853 34.6687C33.7853 34.1759 33.3862 33.7759 32.8924 33.7759H22.178C21.6842 33.7759 21.2852 34.1759 21.2852 34.6687C21.2852 35.1615 21.6842 35.5615 22.178 35.5615Z" fill="#252525"/>
<path d="M22.2715 46.6753C22.4911 47.1163 23.0278 47.2949 23.4688 47.0753C23.9099 46.8547 24.0894 46.3181 23.8679 45.877C22.984 44.1091 22.7858 42.5234 23.3357 41.6332C23.6286 41.1591 24.1393 40.9189 24.8554 40.9189C25.2813 40.9189 25.4402 41.0652 25.5402 41.2082C26.2054 42.1671 25.5733 45.0877 24.9117 46.8555C24.7644 47.2493 24.9117 47.6922 25.2653 47.9199C25.617 48.1458 26.0822 48.0967 26.3796 47.8003C26.7609 47.4199 27.1743 47.0404 27.5341 46.7324V47.169C27.5341 47.5297 27.7511 47.8556 28.085 47.9931C28.4189 48.1324 28.802 48.0556 29.0582 47.8003C29.4663 47.3931 29.9394 46.994 30.3377 46.7065C30.327 46.7288 30.3162 46.7503 30.3056 46.7708C30.1689 47.0475 30.1841 47.3762 30.3467 47.6386C30.5101 47.9011 30.7967 48.0619 31.1056 48.0619H34.677C35.1708 48.0619 35.5699 47.6618 35.5699 47.169C35.5699 46.6762 35.1708 46.2762 34.677 46.2762H32.3529C32.4252 45.8512 32.4074 45.419 32.1922 45.0708C31.9645 44.7021 31.5681 44.4904 31.1056 44.4904C30.5537 44.4904 29.9047 44.8261 29.3119 45.2422C29.2663 44.8529 29.0359 44.5324 28.6859 44.3878C28.4476 44.2895 28.1404 44.161 27.3949 44.6083C27.6886 43.0699 27.7744 41.2967 27.0083 40.1914C26.6734 39.7083 26.0288 39.1333 24.8555 39.1333C23.518 39.1333 22.4385 39.6878 21.8162 40.6949C20.926 42.136 21.0911 44.3155 22.2715 46.6753Z" fill="#252525"/>
<path d="M46.2886 34.6687C46.2886 34.1759 45.8895 33.7759 45.3957 33.7759H36.4671C35.9733 33.7759 35.5742 34.1759 35.5742 34.6687C35.5742 35.1615 35.9733 35.5615 36.4671 35.5615H45.3957C45.8895 35.5615 46.2886 35.1615 46.2886 34.6687Z" fill="#252525"/>
</svg>
