<svg id="Layer_1" data-name="Layer 1" xmlns="http://www.w3.org/2000/svg" viewBox="0 0 238.44 99.22"><defs><style>.cls-1{fill:none;stroke:#fff;stroke-miterlimit:10;}</style></defs><title>700</title><polygon class="cls-1" points="59.31 3.35 59.31 13.53 21.1 98.56 4.57 98.56 1.59 39.46 0.65 20.75 0.5 17.68 0.5 3.35 59.31 3.35"/><polygon class="cls-1" points="76.85 27.79 81.78 16.04 91.34 6.45 104.19 0.5 117.59 0.5 130.3 6.45 140.01 16.04 144.93 27.79 147.12 39.95 147.12 59.27 144.93 71.43 140.01 83.18 130.3 92.77 117.59 98.72 104.19 98.72 91.34 92.77 81.78 83.18 76.85 71.43 74.67 59.27 74.67 39.95 76.85 27.79"/><polygon class="cls-1" points="168.19 27.95 173.08 16.28 182.58 6.76 195.33 0.86 208.63 0.86 221.25 6.76 230.88 16.28 235.77 27.95 237.94 40.02 237.94 59.2 235.77 71.27 230.88 82.93 221.25 92.45 208.63 98.35 195.33 98.35 182.58 92.45 173.08 82.93 168.19 71.27 166.02 59.2 166.02 40.02 168.19 27.95"/></svg>