<svg width="478" height="475" viewBox="0 0 478 475" fill="none" xmlns="http://www.w3.org/2000/svg">
<path id="image 12 (Traced)" opacity="0.1" fill-rule="evenodd" clip-rule="evenodd" d="M339.291 101.219C292.325 120.275 282.933 123.202 275.316 121.161C270.405 119.845 244.729 114.287 218.258 108.808L170.131 98.8471L149.864 106.84C138.715 111.237 129.919 115.395 130.314 116.083C130.712 116.769 157.976 139.589 190.903 166.792L250.769 216.255L263.969 216.796C271.229 217.096 279.229 217.33 281.747 217.315C285.221 217.298 381.385 142.483 396.513 128.028C397.991 126.616 398.106 114.981 396.768 102.174L394.337 78.8871L339.291 101.219ZM384.662 149.547L370.111 160.901L352.651 237.855C343.048 280.18 334.052 319.002 332.664 324.123C330.197 333.2 330.499 333.735 344.687 345.392L359.241 357.346L387.207 346.078C402.589 339.879 415.471 333.7 415.834 332.344C416.467 329.982 400.666 140.839 399.689 139.057C399.427 138.581 392.664 143.302 384.662 149.547ZM325.099 197.835C308.173 211.696 293.336 223.949 292.126 225.067C290.917 226.182 264.537 225.882 233.505 224.398C194.49 222.534 174.38 222.751 168.319 225.099L159.549 228.494L169.909 234.407C245.142 277.359 302.517 311.316 311.171 318.015C317.064 322.577 322.313 326.037 322.836 325.71C324.133 324.893 357.335 175.073 356.522 173.717C356.163 173.121 342.024 183.974 325.099 197.835ZM90.5703 130.755C75.0607 137.17 62.0928 142.506 61.752 142.613C60.1677 143.107 70.6834 250.614 72.3593 251.063C73.4077 251.344 96.9349 242.748 124.644 231.963L175.021 212.349L203.022 213.792C218.426 214.584 231.213 214.535 231.441 213.683C231.738 212.574 138.409 134.124 120.299 120.26C119.458 119.616 106.081 124.337 90.5703 130.755ZM111.295 247.077C91.9251 254.522 75.068 261.145 73.833 261.8C72.0099 262.767 74.1986 295.218 82.8086 394.857C83.0041 397.115 102.898 390.376 138.095 376.128L193.075 353.87L250.33 366.121L307.588 378.373L326.207 370.82C336.449 366.666 345.911 362.749 347.234 362.112C348.56 361.477 338.532 351.838 324.948 340.696C306.286 325.38 282.374 310.063 227.033 277.966C186.758 254.608 152.167 235.057 150.16 234.519C148.156 233.982 130.665 239.631 111.295 247.077Z" fill="white"/>
</svg>
