<svg id="Layer_1" data-name="Layer 1" xmlns="http://www.w3.org/2000/svg" viewBox="0 0 197.52 112.58"><defs><style>.cls-1{fill-rule:evenodd;}</style></defs><title>vilnius_vp</title><rect x="117.32" y="2.58" width="2.39" height="110"/><path class="cls-1" d="M106.25,91a3.68,3.68,0,0,0-1-1.41,4.92,4.92,0,0,0-1.51-.86,10.29,10.29,0,0,0-1.84-.48c-.66-.11-1.33-.2-2-.27-.39,0-.76-.1-1.1-.16a3.66,3.66,0,0,1-.89-.28,1.39,1.39,0,0,1-.58-.5,1.37,1.37,0,0,1,.14-1.55,2,2,0,0,1,.7-.52,3.27,3.27,0,0,1,.93-.27,4.08,4.08,0,0,1,1,0,3.11,3.11,0,0,1,.91.25,1.72,1.72,0,0,1,.67.54,1.38,1.38,0,0,1,.25.82h4.19a5.13,5.13,0,0,0-.43-2.19,4.92,4.92,0,0,0-1.21-1.64,6.2,6.2,0,0,0-1.76-1.09,8.06,8.06,0,0,0-2.09-.55,8.76,8.76,0,0,0-2.21,0,8,8,0,0,0-2.09.55,6.19,6.19,0,0,0-1.76,1.09,4.87,4.87,0,0,0-1.2,1.64,5.14,5.14,0,0,0-.41,2.19,5.72,5.72,0,0,0,.47,2.35,4,4,0,0,0,1.28,1.57,6,6,0,0,0,2,.92,13,13,0,0,0,2.55.41c.43,0,.84.06,1.22.12a4.59,4.59,0,0,1,1,.25,1.66,1.66,0,0,1,.68.46,1.14,1.14,0,0,1,.25.74,1,1,0,0,1-.3.73,2,2,0,0,1-.77.48,4.21,4.21,0,0,1-1.06.23,5.42,5.42,0,0,1-1.15,0A4,4,0,0,1,98,94.24a2.15,2.15,0,0,1-.77-.54,1.2,1.2,0,0,1-.3-.8H92.66a5.11,5.11,0,0,0,.45,2.23,5,5,0,0,0,1.27,1.66,6.46,6.46,0,0,0,1.85,1.11,8.8,8.8,0,0,0,2.2.56,10.1,10.1,0,0,0,2.32,0,9.23,9.23,0,0,0,2.21-.53,6.76,6.76,0,0,0,1.87-1.07,4.85,4.85,0,0,0,1.29-1.6,4.79,4.79,0,0,0,.48-2.13,5.65,5.65,0,0,0-.37-2.14M85.51,81V92.36a1.84,1.84,0,0,1-.23.91,1.89,1.89,0,0,1-.6.65,2.71,2.71,0,0,1-.84.39,3.37,3.37,0,0,1-.95.13,3.41,3.41,0,0,1-1-.13,2.76,2.76,0,0,1-.85-.39,1.93,1.93,0,0,1-.61-.65,1.81,1.81,0,0,1-.23-.91V81H76v11.4a5.64,5.64,0,0,0,.37,2.06,5.39,5.39,0,0,0,1,1.65A6.17,6.17,0,0,0,79,97.36a7.44,7.44,0,0,0,1.87.75,8.43,8.43,0,0,0,4.14,0,7.31,7.31,0,0,0,1.86-.75,6.1,6.1,0,0,0,1.51-1.22,5.41,5.41,0,0,0,1-1.65,5.73,5.73,0,0,0,.37-2.06V81H85.51Zm-15,3.81h2V81H64.13v3.81h2v9.45H64v3.83h8.75V94.29H70.52ZM55.86,89.39,47.13,81h0v0H43.2v3.74h2.33V98.12h4.56v-8.4l8.7,8.4h1.58V81H55.86ZM35.61,92.12V81H31.17V98.12h10.7V94.19H35.61ZM25.49,84.84h2V81H19.11v3.81h2v9.45H18.94v3.83h8.75V94.29H25.49ZM12.35,81h4.24v.66L9.27,98.31H7.4L0,81.69V81H4.24l4,9.67h.12Z"/><path class="cls-1" d="M53.4,14.86h3.26l0,4.71,10.37,2.28,1-4.72,2.65.78L75.2,54.72l-12.65,7.6-8.71,0H53l-8.71,0-12.65-7.6L36,17.93l2.65-.78,1.05,4.72,10.37-2.28,0-4.71Zm10.94.47L61,14.58,60.8,9.45H46l-.21,5.13-3.33.76-1.1-5.09L30.56,13.89,24.79,58.64,42.44,69.21l10.53,0h.87l10.52,0L82,58.64,76.25,13.89,65.44,10.24Z"/><path d="M184.25,38.19h-7v-.95h7V26.53a.17.17,0,0,0-.29-.11L164.37,48.93a.42.42,0,0,1-.59,0l-1.36-1.18L161,46.63A.42.42,0,0,1,161,46a9.53,9.53,0,1,0-16.59-8.8h14.73v.95h-15a9.71,9.71,0,0,0-.27,2.23v22.3h19.73V52.38h.95V62.73h19.73Zm-22.93-9.47a14,14,0,0,1,5.95,9.7.17.17,0,0,0,.29.09l12.52-14.39a.17.17,0,0,0-.17-.27l-18.54,4.57a.17.17,0,0,0-.05.3m31.83,9.47h-4.46v29H164.53v4.48h-.95V67.16H139.42V40.23a14,14,0,0,1,.15-2h-4.63v-.95h4.8a14,14,0,0,1,4.39-7.47h0a14,14,0,0,1,6.05-3.15h0l20.44-5,9.14-2.26,4.18-1,4.44-1.09a.25.25,0,0,1,.31.24V37.25h4.46ZM164.53,15.36h-.95v5.26h.95ZM139.42,27.6V4.48h13.46V8.91h4.4V4.48h6.3V0h.95V4.48h6.3V8.91h4.4V4.48h13.46v7.87a.25.25,0,0,1-.19.24l-4,1a.17.17,0,0,1-.21-.16V8.91h-4.6v4.43H166.35V8.91h-4.6v4.43H148.45V8.91h-4.6V24.34a.28.28,0,0,1-.13.24,18.51,18.51,0,0,0-2.43,1.79l-.05,0-.06,0a17.79,17.79,0,0,0-1.32,1.31.25.25,0,0,1-.44-.17"/><path d="M141.88,86.45h1.92v9.69h-1.92Zm4.31,9.69V86.45h1.92v7.79a.13.13,0,0,0,.13.13h4.82v1.77Zm15.36,0L156.78,90a.13.13,0,0,0-.1-.05h0a.13.13,0,0,0-.09.12v6.07h-1.89V86.45h1.73l4.62,6a.13.13,0,0,0,.1.05h0a.13.13,0,0,0,.09-.12V86.45h1.89v9.69Zm4-9.69h1.92v9.69h-1.92ZM174,89a.13.13,0,0,0-.12.08l-1.22,2.84a.13.13,0,0,0,.12.18h2.45a.13.13,0,0,0,.11-.06.13.13,0,0,0,0-.12l-1.23-2.84A.13.13,0,0,0,174,89m3.1,7.11-.92-2.19a.13.13,0,0,0-.12-.08H172a.13.13,0,0,0-.12.08l-.94,2.19h-2l4.26-9.76h1.71l4.26,9.76Zm-42.44.07-4-9.76h2.12l2.63,6.7a.13.13,0,0,0,.12.08h0a.13.13,0,0,0,.12-.08l2.62-6.7h2.08l-4,9.76Zm59.32.07a6,6,0,0,1-4-1.54l-.1-.09,1.16-1.38.1.09a4.17,4.17,0,0,0,2.89,1.19c.93,0,1.54-.41,1.54-1.05v0c0-.57-.3-.91-2-1.31-2.1-.51-3.24-1.13-3.24-2.94v0c0-1.69,1.38-2.86,3.35-2.86a5.38,5.38,0,0,1,3.5,1.21l.1.08-1,1.46-.11-.08a4.12,4.12,0,0,0-2.48-.94c-.84,0-1.4.4-1.4,1v0c0,.62.32.92,2.13,1.35,2.22.54,3.13,1.38,3.13,2.89v0c0,1.79-1.37,2.95-3.5,2.95m-9.76,0c-2.63,0-4.14-1.56-4.14-4.28V86.45H182v5.49c0,1.65.8,2.56,2.25,2.56s2.24-.89,2.24-2.49V86.45h1.92v5.48c0,2.77-1.53,4.36-4.18,4.36m-46.44,6a.13.13,0,0,0-.13.13v2.87a.13.13,0,0,0,.13.13h1.66c1.15,0,1.9-.61,1.9-1.55v0c0-1-.69-1.55-1.9-1.55Zm-2.05,7.92v-9.69h3.85c2.26,0,3.71,1.29,3.71,3.28v0c0,2-1.53,3.35-3.9,3.35h-1.61a.13.13,0,0,0-.13.13v2.9Zm9.13,0v-9.69h1.92v7.79a.13.13,0,0,0,.13.13h4.82v1.77Zm12.68-7.11a.13.13,0,0,0-.12.08l-1.22,2.84a.13.13,0,0,0,.12.18h2.45a.13.13,0,0,0,.12-.18l-1.23-2.84a.13.13,0,0,0-.12-.08m3.1,7.11-.92-2.19a.13.13,0,0,0-.12-.08h-4.11a.13.13,0,0,0-.12.08l-.94,2.2h-2l4.26-9.75h1.71l4.26,9.75Zm10.35,0-4.77-6.15a.13.13,0,0,0-.1-.05h0a.13.13,0,0,0-.09.12v6.07h-1.89v-9.69h1.73l4.62,6a.13.13,0,0,0,.1.05h0a.13.13,0,0,0,.09-.12v-5.88h1.89v9.69Zm8.09-7.11a.13.13,0,0,0-.12.08l-1.22,2.84a.13.13,0,0,0,.12.18h2.45a.13.13,0,0,0,.11-.06.13.13,0,0,0,0-.12l-1.23-2.84a.13.13,0,0,0-.12-.08m3.1,7.11L181.3,108a.13.13,0,0,0-.12-.08h-4.11a.13.13,0,0,0-.12.08l-.94,2.2h-2l4.26-9.75H180l4.26,9.75Zm6.72.14a6,6,0,0,1-4-1.54l-.1-.09,1.16-1.38.1.09a4.17,4.17,0,0,0,2.89,1.19c.93,0,1.54-.41,1.54-1.05v0c0-.57-.3-.91-2-1.31-2.1-.51-3.24-1.13-3.24-2.94v0c0-1.69,1.38-2.86,3.35-2.86a5.39,5.39,0,0,1,3.5,1.21l.1.08-1,1.46-.11-.08a4.12,4.12,0,0,0-2.48-.94c-.84,0-1.4.4-1.4,1v0c0,.62.32.92,2.13,1.35,2.22.54,3.13,1.38,3.13,2.89v0c0,1.79-1.37,2.95-3.5,2.95"/></svg>