<?xml version="1.0" encoding="UTF-8"?>
<svg version="1.1" viewBox="0 0 160 160" xml:space="preserve" xmlns="http://www.w3.org/2000/svg">
<desc>Created with Fabric.js 4.2.0</desc>


<g transform="translate(100,100)">
<rect x="-100" y="-100" width="200" height="200" rx="0" ry="0" fill-opacity="0" vector-effect="non-scaling-stroke"/>
</g>



<g transform="matrix(1.1898 0 0 1.1898 -1922.3 228.91)"><circle cx="1682.8" cy="-125.15" r="66.397" fill="#eda8db" vector-effect="non-scaling-stroke"/><g transform="translate(-.0014886)" fill="#212121" stroke="#212121"><rect transform="scale(-1)" x="-1698.2" y="109.77" width="30.759" height="30.759" stroke-linecap="round" stroke-linejoin="round" stroke-width="11.258" style="paint-order:markers stroke fill"/><path d="m1644.1-106.76 4.0963 8.5306-3.5137 10.03c-0.1417 0.40549-0.039 0.85569 0.2643 1.1587 0.3031 0.30412 0.7549 0.40766 1.1582 0.26379l10.039-3.5143 8.5393 4.0963c0.3052 0.14607 0.6605 0.14607 0.9657 0l8.4669-4.0636 8.47 4.0636c0.3052 0.14607 0.6606 0.14607 0.9658 0l8.4663-4.0636 8.464 4.0636c0.1526 0.07292 0.3178 0.11006 0.4829 0.11006s0.3303-0.03707 0.4829-0.11006l8.5311-4.0963 10.031 3.5132c0.405 0.14279 0.8562 0.03922 1.1598-0.26597 0.3036-0.30412 0.4049-0.75539 0.261-1.1609l-3.5077-9.8735 4.0942-8.7071c0.1428-0.30411 0.1417-0.65619 0-0.95814l-4.0642-8.4673 4.0642-8.4695c0.1466-0.30522 0.1466-0.66056 0-0.96577l-4.0642-8.4663 4.0642-8.4641c0.1466-0.30521 0.1466-0.66056 0-0.96577l-4.0964-8.5306 3.5137-10.03c0.1418-0.40549 0.039-0.85569-0.2643-1.1587-0.3019-0.30192-0.7538-0.40547-1.1581-0.26378l-10.039 3.5142-8.5393-4.0963c-0.3052-0.14606-0.6605-0.14606-0.9657 0l-8.4668 4.0636-8.4701-4.0636c-0.3052-0.14606-0.6605-0.14606-0.9657 0l-8.4666 4.0636-8.4641-4.0636c-0.3052-0.14606-0.6605-0.14606-0.9657 0l-8.5316 4.0963-10.031-3.5132c-0.4039-0.1417-0.8546-0.0382-1.1582 0.26378-0.3035 0.30304-0.406 0.75321-0.2643 1.1576l3.5153 10.039-4.0963 8.5393c-0.1466 0.30521-0.1466 0.66055 0 0.96575l4.0642 8.4674-4.0642 8.4695c-0.1466 0.3052-0.1466 0.66055 0 0.96575l4.0642 8.4663-4.0642 8.464c-0.1466 0.30523-0.1466 0.66057 0 0.96578zm6.3085-8.947c0.1466-0.3052 0.1466-0.66055 0-0.96575l-4.0642-8.4663 4.0642-8.4695c0.1466-0.30521 0.1466-0.66056 0-0.96576l-4.0642-8.4674 4.0648-8.4728c0.1275-0.26706 0.1444-0.57335 0.047-0.85131l-2.9016-8.2853 8.2782 2.8984c0.2801 0.0992 0.5859 0.0816 0.8519-0.047l8.464-4.0636 8.4641 4.0636c0.3052 0.14607 0.6606 0.14607 0.9658 0l8.4662-4.0636 8.4701 4.0636c0.3052 0.14607 0.6606 0.14607 0.9658 0l8.4668-4.0636 8.4728 4.0636c0.2659 0.12753 0.5711 0.14496 0.8518 0.047l8.2848-2.8995-2.8995 8.2766c-0.098 0.28015-0.081 0.58643 0.047 0.85241l4.0642 8.4641-4.0642 8.4641c-0.1466 0.30521-0.1466 0.66056 0 0.96576l4.0642 8.4662-4.0642 8.4695c-0.1466 0.30521-0.1466 0.66056 0 0.96577l4.0669 8.4728-4.0641 8.6428c-0.1254 0.26707-0.1406 0.57118-0.042 0.84914l2.8804 8.1076-8.2652-2.894c-0.2796-0.0981-0.5853-0.08067-0.8518 0.04697l-8.4641 4.0636-8.4641-4.0636c-0.3052-0.14606-0.6606-0.14606-0.9658 0l-8.4662 4.0636-8.4701-4.0636c-0.3052-0.14606-0.6605-0.14606-0.9657 0l-8.4668 4.0636-8.4729-4.0636c-0.152-0.07302-0.3172-0.11006-0.4828-0.11006-0.1243 0-0.2491 0.02063-0.369 0.06321l-8.2848 2.8995 2.8995-8.2766c0.098-0.28014 0.081-0.58643-0.047-0.8524l-4.0642-8.4641z" stroke-width="1.8674"/></g></g></svg>
