<?xml version="1.0" encoding="UTF-8"?>
<svg version="1.1" viewBox="0 0 160 160" xml:space="preserve" xmlns="http://www.w3.org/2000/svg">
<desc>Created with Fabric.js 4.2.0</desc>





<g transform="matrix(.68 0 0 .68 256 256)">

<g transform="matrix(1.7497 0 0 1.7497 456.44 -39.846)"><circle cx="-408.79" cy="-125.15" r="66.397" fill="#88d16b" vector-effect="non-scaling-stroke"/><g transform="matrix(.17785 0 0 .17785 -408.79 -129.17)" fill="#212121" stroke="#212121" stroke-linecap="round" stroke-linejoin="round"><path d="m0.02309-207.72-225.63 80.603 451.23-1.0708zm-225.57 85.361-0.0654 25.657h451.11l0.0654-27.228z" stroke-width="30.876" style="paint-order:markers stroke fill"/><rect transform="rotate(90)" x="-34.335" y="-170.41" width="112.17" height="43.323" stroke-width="25.515" style="paint-order:markers stroke fill"/><rect transform="rotate(90)" x="-34.335" y="-20.613" width="112.17" height="43.323" stroke-width="25" style="paint-order:markers stroke fill"/><rect transform="rotate(90)" x="-34.335" y="129.18" width="112.17" height="43.323" stroke-width="25.515" style="paint-order:markers stroke fill"/><path d="m-190.85 144.42-0.5236 26.317 382.45-0.70281-0.18512-25.614zm-33.487 43.851v18.299h448.71v-18.299z" stroke-width="33.169" style="paint-order:markers stroke fill"/></g></g></g>
</svg>
