<?xml version="1.0" encoding="UTF-8"?>
<svg version="1.1" viewBox="0 0 160 160" xml:space="preserve" xmlns="http://www.w3.org/2000/svg">
<desc>Created with Fabric.js 4.2.0</desc>
<defs>



		
		


<clipPath id="a"><path d="m386.22 438.97-25.68-26.435" fill="none" stroke="#00cb00" stroke-width="1px" style="paint-order:markers stroke fill"/></clipPath></defs>





<path d="m125.27 438.97 25.68-26.435" clip-path="url(#a)" fill="none" stroke="#00cb00" stroke-width="1px" style="paint-order:markers stroke fill"/><g transform="matrix(1.0442 0 0 1.0442 -11.309 -21.177)"><g transform="matrix(1.1395 0 0 1.1395 212.77 239.5)"><circle cx="-109.98" cy="-125.15" r="66.397" fill="#4dbdc4" vector-effect="non-scaling-stroke"/><g transform="translate(-487.55 -202.18)" stroke-linecap="round"><path d="m406.62 102.46h-58.112l-3.8976 3.8984v5.039h65.907v-5.0396z" fill="#212121" stroke="#212121" stroke-linejoin="round" stroke-width="2.6216" style="paint-order:markers stroke fill"/><path d="m365.54 32.704c-6.0113 0-12.023 6.0113-12.023 12.023v48.09h48.09v-48.09c0-6.0113-6.0113-12.023-12.023-12.023z" fill="#212121" vector-effect="non-scaling-stroke"/><g fill="#4dbdc4" stroke="#4dbdc4" stroke-linejoin="round"><rect x="361.19" y="60.513" width="32.751" height="2.7333" stroke-width="3.4631" style="paint-order:markers stroke fill"/><rect x="366.96" y="72.182" width="21.216" height="3.1639" stroke-width="2.9988" style="paint-order:markers stroke fill"/><rect x="372.39" y="47.806" width="10.356" height="3.8511" stroke-width="2.3115" style="paint-order:markers stroke fill"/></g></g></g></g></svg>
