<?xml version="1.0" encoding="UTF-8"?>
<svg version="1.1" viewBox="0 0 160 160" xml:space="preserve" xmlns="http://www.w3.org/2000/svg">
<desc>Created with Fabric.js 4.2.0</desc>


<g transform="translate(256,256)">
<rect x="-256" y="-256" width="512" height="512" rx="0" ry="0" fill-opacity="0" vector-effect="non-scaling-stroke"/>
</g>



<g transform="matrix(1.1898 0 0 1.1898 -144.66 228.9)"><circle cx="188.82" cy="-125.15" r="66.397" fill="#fab453" vector-effect="non-scaling-stroke"/><g transform="translate(-486.59 -201.87)"><g transform="matrix(1.1541 0 0 -1.1541 675.35 104.31)" fill="#212121"><path d="m0 0c-3.799 0-6.88 3.081-6.88 6.88s3.081 6.879 6.88 6.879c3.798 0 6.878-3.08 6.878-6.879s-3.08-6.88-6.878-6.88m40.714 24.951c-0.602 23.649-26.612 32.536-50.207 30.847-14.644-1.049-27.034-11.812-30.518-23.628-3.45-11.383 6.891-15.751 6.891-15.751 6.005-2.762 14.959 0.411 17.72-5.251 1.531-3.137 0.509-6.692 1.641-9.843 2.181-6.07 7.239-8.593 14.111-9.517 0.109 0 0.218-1e-3 0.328 0 21.644 0.339 38.081 8.175 40.034 26.909 0.216 2.067 0.053 4.156 0 6.234" fill="#212121"/></g><g fill="#fab453"><path d="m653.43 71.619c0 4.0907-3.3176 7.4057-7.4083 7.4057s-7.4083-3.315-7.4083-7.4057c0-4.0894 3.3176-7.4083 7.4083-7.4083s7.4083 3.319 7.4083 7.4083" fill-rule="evenodd"/><g transform="matrix(1.3261 0 0 -1.3261 669.17 55.584)"><path d="m0 0c0-3.084-2.501-5.587-5.586-5.587-3.086 0-5.587 2.503-5.587 5.587 0 3.085 2.501 5.587 5.587 5.587 3.085 0 5.586-2.502 5.586-5.587" fill="#fab453" fill-rule="evenodd"/></g><g transform="matrix(1.3261 0 0 -1.3261 690.27 56.258)"><path d="m0 0c0-3.085-2.501-5.586-5.587-5.586-3.085 0-5.586 2.501-5.586 5.586 0 3.086 2.501 5.587 5.586 5.587 3.086 0 5.587-2.501 5.587-5.587" fill="#fab453" fill-rule="evenodd"/></g><g transform="matrix(1.3261 0 0 -1.3261 710.18 66.717)"><path d="m0 0c0-3.086-2.501-5.587-5.586-5.587-3.086 0-5.587 2.501-5.587 5.587 0 3.085 2.501 5.585 5.587 5.585 3.085 0 5.586-2.5 5.586-5.585" fill="#fab453" fill-rule="evenodd"/></g><g transform="matrix(1.5383 0 0 -1.5383 684.5 96.655)"><path d="m0 0c0-3.086-2.501-5.587-5.586-5.587-3.086 0-5.587 2.501-5.587 5.587 0 3.085 2.501 5.585 5.587 5.585 3.085 0 5.586-2.5 5.586-5.585" fill="#fab453" fill-rule="evenodd"/></g></g></g></g></svg>
