<svg id="Layer_1" data-name="Layer 1" xmlns="http://www.w3.org/2000/svg" xmlns:xlink="http://www.w3.org/1999/xlink" viewBox="0 0 135.82 49.23"><defs><style>.cls-1{fill:none;}.cls-2{clip-path:url(#clip-path);}.cls-3{fill:#fff;}.cls-4{clip-path:url(#clip-path-2);}.cls-5{clip-path:url(#clip-path-3);}.cls-6{fill:#d72e30;}</style><clipPath id="clip-path"><rect class="cls-1" x="51.75" y="7.12" width="29.92" height="34.2"/></clipPath><clipPath id="clip-path-2"><rect class="cls-1" x="98.77" y="7.12" width="29.92" height="34.2"/></clipPath><clipPath id="clip-path-3"><rect class="cls-1" x="4.72" y="7.12" width="29.92" height="34.2"/></clipPath></defs><title>DNR_favicon</title><g class="cls-2"><path class="cls-3" d="M81.67,32.77V15.67l-15-8.55-15,8.55v17.1l15,8.55Z"/></g><g class="cls-4"><path class="cls-3" d="M128.69,32.77V15.67l-15-8.55-15,8.55v17.1l15,8.55Z"/></g><g class="cls-5"><path class="cls-3" d="M34.65,32.77V15.67l-15-8.55-15,8.55v17.1l15,8.55Z"/></g><path class="cls-3" d="M114.5,0,93.18,12.31V36.92L114.5,49.23l21.32-12.31V12.31Zm4.42,32.87V28.55c0-1-.57-1.46-1.82-1.46l-7,0v5.76h-2.85V16.36h8.35c3.78,0,6,1.46,6,4.67a3.09,3.09,0,0,1-1.49,2.85,5.34,5.34,0,0,1-2.64,1l0,0A9.37,9.37,0,0,1,119,24.8a2.34,2.34,0,0,1,1.32.33c.73.4,1.42,1.13,1.42,3.28l0,4.46Z"/><path class="cls-3" d="M46.59,12.31V36.92L67.91,49.23,89.22,36.92V12.31L67.91,0Zm26,15.23V16.35h2.83V32.87h-3L63.84,21.59a7,7,0,0,1-1-1.86l0,0a6.73,6.73,0,0,1,.35,2.05V32.87H60.35V16.35h2.93L72,27.75a6.38,6.38,0,0,1,1,1.86l0,0a6.69,6.69,0,0,1-.35-2.06Z"/><path class="cls-3" d="M0,12.31V36.92L21.32,49.23,42.63,36.92V12.31L21.32,0ZM29.09,24.61c0,5.62-3.8,8.26-8.4,8.26H13.54V16.35h7.15c4.6,0,8.4,2.64,8.4,8.26Z"/><path class="cls-6" d="M46.59,12.31V36.92L67.91,49.23,89.22,36.92V12.31L67.91,0Zm26,15.23V16.35h2.83V32.87h-3L63.84,21.59a7,7,0,0,1-1-1.86l0,0a6.73,6.73,0,0,1,.35,2.05V32.87H60.35V16.35h2.93L72,27.75a6.38,6.38,0,0,1,1,1.86l0,0a6.69,6.69,0,0,1-.35-2.06Z"/><path class="cls-6" d="M119,21.71c0-2.24-1.49-2.95-3.75-2.95h-5.21v5.9h4.8C117.15,24.66,119,23.48,119,21.71Z"/><path class="cls-6" d="M114.5,0,93.18,12.31V36.92L114.5,49.23l21.32-12.31V12.31Zm4.42,32.87V28.55c0-1-.57-1.46-1.82-1.46l-7,0v5.76h-2.85V16.36h8.35c3.78,0,6,1.46,6,4.67a3.09,3.09,0,0,1-1.49,2.85,5.34,5.34,0,0,1-2.64,1l0,0A9.37,9.37,0,0,1,119,24.8a2.34,2.34,0,0,1,1.32.33c.73.4,1.42,1.13,1.42,3.28l0,4.46Z"/><path class="cls-6" d="M0,12.31V36.92L21.32,49.23,42.63,36.92V12.31L21.32,0ZM29.09,24.61c0,5.62-3.8,8.26-8.4,8.26H13.54V16.35h7.15c4.6,0,8.4,2.64,8.4,8.26Z"/><path class="cls-6" d="M16.4,19.73v10.5h4.48a5.62,5.62,0,0,0,0-11.23h-6.3C15.34,19,16.4,19.09,16.4,19.73Z"/></svg>