<?xml version="1.0" standalone="no"?>
<!DOCTYPE svg PUBLIC "-//W3C//DTD SVG 20010904//EN"
 "http://www.w3.org/TR/2001/REC-SVG-20010904/DTD/svg10.dtd">
<svg version="1.0" xmlns="http://www.w3.org/2000/svg"
 width="347.000000pt" height="346.000000pt" viewBox="0 0 347.000000 346.000000"
 preserveAspectRatio="xMidYMid meet">

<g transform="translate(0.000000,346.000000) scale(0.100000,-0.100000)"
stroke="none">
<path d="M1623 3389 c-792 -62 -1424 -653 -1549 -1447 -23 -147 -15 -444 16
-586 81 -377 284 -720 567 -956 l98 -81 3 997 c1 753 5 1000 14 1005 61 38
503 43 913 11 437 -35 643 -45 805 -38 140 5 255 18 303 32 16 5 17 -32 17
-684 l0 -689 -37 -7 c-290 -51 -532 -49 -1113 9 -184 18 -531 31 -583 21 l-37
-7 0 -409 0 -409 78 -29 c243 -94 372 -117 642 -117 244 1 329 14 541 85 571
190 1000 679 1120 1278 30 150 37 417 15 568 -77 527 -385 975 -857 1246 -267
153 -634 233 -956 207z"/>
<path d="M1083 2073 l-43 -4 0 -413 0 -412 218 -1 c161 0 284 -7 477 -27 332
-34 537 -42 687 -27 64 6 124 14 133 17 13 5 15 57 15 426 l0 421 -30 -7 c-17
-3 -92 -11 -168 -17 -154 -12 -306 -7 -617 22 -201 19 -583 32 -672 22z"/>
</g>
</svg>
