<?xml version="1.0" standalone="no"?>
<!DOCTYPE svg PUBLIC "-//W3C//DTD SVG 20010904//EN"
 "http://www.w3.org/TR/2001/REC-SVG-20010904/DTD/svg10.dtd">
<svg version="1.0" xmlns="http://www.w3.org/2000/svg"
 width="347.000000pt" height="346.000000pt" viewBox="0 0 347.000000 346.000000"
 preserveAspectRatio="xMidYMid meet">

<g transform="translate(0.000000,346.000000) scale(0.100000,-0.100000)"
stroke="none">
<path d="M1536 3364 c-379 -51 -727 -229 -992 -507 -124 -130 -206 -244 -284
-398 -281 -552 -242 -1194 105 -1714 82 -124 219 -274 333 -367 319 -257 733
-394 1132 -375 793 38 1434 590 1592 1370 33 162 33 472 1 632 -151 740 -734
1279 -1478 1365 -119 13 -287 11 -409 -6z m322 -606 l43 -163 -1 -247 c0 -225
2 -252 20 -302 23 -59 80 -125 132 -152 45 -23 153 -109 177 -142 l20 -27 1
243 0 243 42 155 41 155 31 -3 c31 -3 31 -3 73 -153 l42 -150 0 -812 1 -813
-290 0 -290 0 0 128 c0 151 -8 171 -69 191 -59 19 -114 2 -141 -42 -17 -27
-20 -51 -20 -154 l0 -123 -290 0 -290 0 0 818 0 817 31 115 c16 63 35 132 40
153 9 35 13 38 42 35 l32 -3 42 -150 41 -150 1 -244 1 -244 53 51 c30 27 85
70 124 95 38 24 85 63 105 86 59 69 68 121 68 402 l0 244 40 148 c22 81 40
150 40 153 0 2 15 4 33 4 l32 0 43 -162z"/>
<path d="M1572 1670 c-167 -117 -251 -298 -252 -538 l0 -102 173 2 172 3 3
343 c2 282 0 342 -11 342 -8 0 -46 -23 -85 -50z"/>
<path d="M1900 1375 l0 -345 177 0 176 0 -6 123 c-11 205 -55 322 -165 439
-57 60 -149 128 -174 128 -5 0 -8 -155 -8 -345z"/>
</g>
</svg>
