<?xml version="1.0" standalone="no"?>
<!DOCTYPE svg PUBLIC "-//W3C//DTD SVG 20010904//EN"
 "http://www.w3.org/TR/2001/REC-SVG-20010904/DTD/svg10.dtd">
<svg version="1.0" xmlns="http://www.w3.org/2000/svg"
 width="347.000000pt" height="346.000000pt" viewBox="0 0 347.000000 346.000000"
 preserveAspectRatio="xMidYMid meet">

<g transform="translate(0.000000,346.000000) scale(0.100000,-0.100000)"
stroke="none">
<path d="M1556 3364 c-271 -36 -526 -137 -751 -296 -112 -79 -293 -256 -373
-366 -375 -510 -433 -1182 -150 -1746 409 -816 1390 -1152 2218 -760 270 128
545 374 699 626 179 295 262 611 248 952 -34 829 -661 1500 -1492 1596 -119
13 -277 11 -399 -6z m664 -524 l0 -120 -210 0 -210 0 0 113 c0 63 3 117 7 120
3 4 98 7 210 7 l203 0 0 -120z m100 -416 c151 -52 275 -96 276 -97 7 -7 196
-1478 191 -1489 -3 -8 -130 -94 -282 -191 l-278 -177 -420 0 -421 0 -265 169
c-146 93 -274 176 -284 183 -17 13 -14 46 78 748 53 404 99 741 103 749 4 7
122 55 262 106 l255 94 255 0 255 1 275 -96z"/>
<path d="M1390 2158 c-91 -39 -166 -72 -167 -72 -3 -2 -113 -1049 -113 -1077
0 -23 23 -40 198 -148 l197 -121 302 0 303 0 197 122 c109 67 199 122 200 122
3 2 -106 1080 -111 1092 -2 6 -78 43 -169 82 l-165 72 -253 0 -254 0 -165 -72z"/>
</g>
</svg>
