<?xml version="1.0" standalone="no"?>
<!DOCTYPE svg PUBLIC "-//W3C//DTD SVG 20010904//EN"
 "http://www.w3.org/TR/2001/REC-SVG-20010904/DTD/svg10.dtd">
<svg version="1.0" xmlns="http://www.w3.org/2000/svg"
 width="699.000000pt" height="1249.000000pt" viewBox="0 0 699.000000 1249.000000"
 preserveAspectRatio="xMidYMid meet">
<metadata>
Created by potrace 1.16, written by Peter Selinger 2001-2019
</metadata>
<g transform="translate(0.000000,1249.000000) scale(0.100000,-0.100000)"
stroke="none">
<path d="M0 7010 l0 -5480 3490 0 3490 0 0 5480 0 5480 -3490 0 -3490 0 0
-5480z m4003 3994 c194 -34 210 -38 402 -116 l200 -82 163 -160 162 -161 100
-213 100 -213 0 -225 0 -226 -96 -208 -96 -208 -167 -165 -166 -165 -195 -81
c-188 -77 -202 -81 -396 -116 l-200 -35 -314 0 -314 0 -200 35 c-194 35 -208
39 -396 116 l-195 81 -166 165 -167 165 -96 208 -96 208 0 225 0 225 100 213
99 214 163 161 163 160 190 79 c179 74 202 80 390 116 l200 37 313 1 314 1
201 -36z m10 -3054 c213 -38 222 -41 410 -120 l193 -81 166 -167 167 -167 100
-217 101 -216 0 -209 0 -208 -102 -222 -102 -223 -166 -163 -165 -163 -200
-82 c-190 -77 -210 -83 -397 -117 l-196 -35 -322 0 -322 0 -196 35 c-187 34
-207 40 -397 117 l-200 82 -165 163 -166 163 -102 223 -102 222 0 208 0 209
101 216 100 217 166 167 166 167 194 81 c187 78 201 83 401 120 l207 38 305 1
306 1 217 -40z m-298 -3559 l1420 -639 3 -274 2 -274 -1257 -64 c-843 -43
-1369 -65 -1595 -68 l-338 -4 0 981 0 981 173 0 172 -1 1420 -638z"/>
<path d="M5615 1005 c-161 -76 -235 -228 -235 -485 0 -255 71 -404 232 -486
59 -30 77 -34 143 -34 66 0 84 4 143 34 163 83 231 223 232 477 0 272 -69 416
-237 495 -99 47 -178 47 -278 -1z m223 -114 c56 -28 117 -100 138 -162 15 -44
19 -83 19 -209 0 -180 -12 -231 -75 -306 -117 -142 -313 -95 -382 91 -20 53
-23 79 -23 215 0 136 3 162 23 215 24 64 76 125 132 155 46 25 121 25 168 1z"/>
<path d="M6480 1005 c-82 -42 -160 -122 -189 -195 -67 -167 -67 -423 0 -582
59 -137 189 -228 327 -228 174 0 325 141 362 337 15 82 12 307 -4 378 -34 144
-99 230 -218 291 -59 30 -77 34 -140 34 -63 -1 -82 -6 -138 -35z m228 -119
c87 -44 119 -95 147 -227 36 -171 1 -373 -78 -457 -124 -131 -313 -77 -378
108 -20 56 -23 85 -24 205 0 120 3 150 23 211 50 151 188 222 310 160z"/>
<path d="M0 1018 c0 -7 85 -236 188 -508 l187 -495 60 -3 61 -3 186 493 c103
271 190 501 193 511 6 15 0 17 -62 17 l-69 0 -144 -382 c-79 -211 -148 -393
-155 -406 -10 -20 -26 17 -139 318 -71 188 -139 370 -153 406 l-25 64 -64 0
c-45 0 -64 -4 -64 -12z"/>
<path d="M990 965 l0 -65 65 0 65 0 0 65 0 65 -65 0 -65 0 0 -65z"/>
<path d="M1350 520 l0 -510 65 0 65 0 0 510 0 510 -65 0 -65 0 0 -510z"/>
<path d="M2490 965 l0 -65 65 0 65 0 0 65 0 65 -65 0 -65 0 0 -65z"/>
<path d="M4660 965 l0 -65 225 0 c124 0 225 -3 225 -8 0 -4 -88 -201 -195
-437 -107 -236 -195 -433 -195 -438 0 -4 32 -7 71 -5 l70 3 205 460 c173 389
204 467 204 507 l0 48 -305 0 -305 0 0 -65z"/>
<path d="M1880 754 c-25 -15 -53 -34 -62 -42 -17 -14 -18 -12 -18 21 l0 37
-60 0 -60 0 0 -380 0 -380 60 0 60 0 0 256 c0 293 -2 285 93 349 40 27 62 35
97 35 68 0 117 -17 140 -49 19 -28 20 -43 20 -310 l0 -281 60 0 60 0 0 311 0
310 -37 54 c-46 66 -92 85 -223 92 -79 4 -88 2 -130 -23z"/>
<path d="M3769 762 c-102 -38 -139 -93 -139 -206 0 -72 2 -81 30 -117 40 -50
112 -83 230 -105 77 -14 100 -23 122 -45 32 -31 37 -81 13 -116 -17 -24 -93
-53 -140 -53 -52 0 -133 29 -169 60 l-33 29 -42 -35 c-22 -20 -41 -42 -41 -49
0 -7 21 -31 47 -53 55 -48 137 -72 240 -72 119 0 198 35 254 113 25 35 29 49
29 109 0 57 -4 75 -28 113 -42 68 -86 92 -204 116 -57 11 -116 25 -131 31 -59
23 -74 87 -33 135 23 27 28 28 118 28 72 0 100 -4 121 -17 83 -54 71 -54 108
3 l33 52 -35 28 c-47 40 -118 61 -219 65 -63 3 -97 -1 -131 -14z"/>
<path d="M990 390 l0 -380 65 0 65 0 0 380 0 380 -65 0 -65 0 0 -380z"/>
<path d="M2490 390 l0 -380 65 0 65 0 0 380 0 380 -65 0 -65 0 0 -380z"/>
<path d="M2830 463 l1 -308 48 -61 c46 -57 54 -62 115 -78 99 -24 174 -21 230
10 25 14 48 30 51 35 12 19 25 8 25 -21 l0 -30 60 0 60 0 0 380 0 380 -60 0
-60 0 0 -257 c0 -246 -1 -258 -21 -288 -26 -38 -127 -105 -158 -105 -55 0
-112 23 -136 55 l-25 32 0 281 0 282 -65 0 -65 0 0 -307z"/>
</g>
</svg>
