<?xml version="1.0" standalone="no"?>
<!DOCTYPE svg PUBLIC "-//W3C//DTD SVG 20010904//EN"
 "http://www.w3.org/TR/2001/REC-SVG-20010904/DTD/svg10.dtd">
<svg version="1.0" xmlns="http://www.w3.org/2000/svg"
 width="347.000000pt" height="346.000000pt" viewBox="0 0 347.000000 346.000000"
 preserveAspectRatio="xMidYMid meet">

<g transform="translate(0.000000,346.000000) scale(0.100000,-0.100000)"
stroke="none">
<path d="M1550 3400 c-377 -52 -720 -222 -984 -486 -239 -239 -391 -524 -468
-875 -19 -90 -22 -133 -22 -324 0 -191 3 -234 23 -325 75 -353 221 -621 470
-871 254 -254 527 -399 883 -471 164 -33 462 -33 626 0 235 47 442 133 638
263 150 100 353 303 453 453 181 272 276 564 288 886 14 367 -81 704 -282
1005 -254 380 -623 627 -1081 725 -112 24 -430 36 -544 20z m523 -342 c3 -46
15 -114 27 -152 18 -57 31 -78 81 -127 55 -54 59 -62 59 -103 0 -53 -13 -69
-84 -100 -68 -31 -86 -53 -95 -121 -13 -91 -25 -98 -185 -106 -157 -7 -213
-27 -240 -83 -26 -55 -20 -103 25 -192 66 -133 84 -229 55 -299 -20 -46 -42
-55 -140 -55 -47 0 -96 -5 -109 -11 -27 -12 -47 -47 -47 -83 0 -28 -24 -51
-44 -43 -8 3 -20 23 -26 44 -17 51 -36 71 -77 79 -87 16 -142 -59 -112 -154
23 -78 18 -187 -12 -252 -59 -126 -143 -163 -212 -94 -23 22 -27 36 -27 81 0
88 -33 129 -117 148 -31 6 -33 9 -33 51 l0 44 160 0 160 0 0 135 0 135 -105 0
-105 0 0 135 0 135 315 0 315 0 0 265 0 265 155 0 155 0 0 135 0 135 100 0
100 0 0 135 0 135 29 0 28 0 6 -82z m207 -53 l0 -135 165 0 164 0 3 -132 3
-133 133 -3 132 -3 0 -264 0 -265 -120 0 -120 0 0 -135 0 -135 220 0 220 0 0
-53 c0 -51 -1 -54 -35 -70 -51 -24 -83 -21 -161 16 l-69 32 -200 0 c-220 0
-231 -2 -289 -64 -34 -36 -44 -37 -103 -15 -66 25 -88 15 -114 -56 -12 -34
-26 -63 -30 -66 -5 -3 -64 -16 -131 -29 -129 -26 -266 -32 -299 -15 -23 13
-25 36 -4 44 27 10 49 70 38 102 -9 27 -7 30 26 49 105 59 107 241 5 434 -38
72 -41 96 -18 129 24 35 56 43 199 51 144 9 185 22 210 71 8 16 15 45 15 65 0
55 15 74 85 105 68 31 90 54 100 111 11 60 -11 119 -65 169 -27 25 -57 64 -69
86 -21 43 -41 142 -41 207 l0 37 75 0 75 0 0 -135z m589 -1374 c62 -27 84 -32
125 -28 28 2 59 8 69 12 15 6 17 1 17 -39 l0 -46 -325 0 -325 0 0 -135 0 -135
-100 0 -100 0 0 -135 0 -135 -55 0 -55 0 0 -130 0 -130 -335 0 -335 0 0 -135
0 -135 -300 0 -300 0 0 135 0 135 110 0 110 0 0 130 0 130 -267 2 -268 3 -3
133 -3 132 116 0 115 0 0 59 0 60 33 -10 c45 -12 57 -34 57 -98 0 -66 21 -104
77 -138 127 -77 279 48 316 260 9 55 8 71 -12 136 -20 67 -21 75 -6 97 24 37
43 29 69 -30 13 -30 33 -59 44 -65 57 -30 127 4 138 67 9 52 20 62 72 62 74 0
96 -53 42 -105 -17 -16 -30 -39 -30 -51 0 -65 102 -112 218 -100 85 9 309 54
334 67 17 9 41 52 61 112 6 16 9 17 36 2 17 -8 48 -15 71 -15 34 0 48 7 86 42
56 52 86 57 289 54 134 -2 143 -4 214 -35z"/>
</g>
</svg>
