<?xml version="1.0" standalone="no"?>
<!DOCTYPE svg PUBLIC "-//W3C//DTD SVG 20010904//EN"
 "http://www.w3.org/TR/2001/REC-SVG-20010904/DTD/svg10.dtd">
<svg version="1.0" xmlns="http://www.w3.org/2000/svg"
 width="347.000000pt" height="346.000000pt" viewBox="0 0 347.000000 346.000000"
 preserveAspectRatio="xMidYMid meet">

<g transform="translate(0.000000,346.000000) scale(0.100000,-0.100000)"
stroke="none">
<path d="M1565 3354 c-105 -16 -249 -50 -337 -80 -573 -192 -989 -671 -1110
-1275 -33 -165 -33 -453 0 -618 121 -604 540 -1084 1113 -1275 198 -66 289
-80 524 -81 234 0 347 16 528 76 596 198 1032 709 1132 1329 24 151 22 390 -4
544 -58 329 -212 632 -440 869 -249 257 -526 412 -878 488 -77 16 -141 21
-298 24 -110 2 -213 1 -230 -1z m-435 -1094 l0 -90 -30 0 c-16 0 -30 -2 -30
-5 0 -3 46 -96 101 -207 l101 -203 99 195 c54 107 98 201 98 208 1 8 -13 12
-39 12 l-40 0 0 90 0 90 200 0 200 0 0 -89 0 -90 -37 -3 -38 -3 -178 -352
-177 -353 -88 0 -87 0 -178 355 -177 355 -50 0 -50 0 0 90 0 90 200 0 200 0 0
-90z m1280 83 c0 -5 -20 -80 -44 -168 -24 -88 -42 -161 -41 -163 1 -1 67 15
146 36 l144 39 3 -170 c1 -93 1 -171 0 -173 -2 -1 -71 17 -153 42 -83 24 -151
44 -152 44 -2 0 -3 -115 -3 -255 l0 -255 23 5 c61 14 284 55 300 55 16 0 17
-15 17 -185 0 -157 -2 -185 -15 -185 -13 0 -241 42 -302 55 l-23 5 0 -170 0
-170 -95 0 -95 0 0 180 c0 99 -3 180 -6 180 -3 0 -69 -35 -147 -77 -78 -42
-149 -76 -158 -76 -34 3 -915 236 -927 246 -11 8 -11 12 0 22 12 11 886 245
927 248 9 0 80 -34 158 -76 78 -42 144 -77 147 -77 3 0 6 119 6 264 l0 264
-127 -37 c-71 -21 -138 -41 -150 -45 l-23 -7 0 174 0 175 147 -39 c81 -21 148
-37 149 -36 1 1 -17 74 -42 162 -24 88 -44 163 -44 168 0 4 86 7 190 7 105 0
190 -3 190 -7z"/>
</g>
</svg>
