<?xml version="1.0" standalone="no"?>
<!DOCTYPE svg PUBLIC "-//W3C//DTD SVG 20010904//EN"
 "http://www.w3.org/TR/2001/REC-SVG-20010904/DTD/svg10.dtd">
<svg version="1.0" xmlns="http://www.w3.org/2000/svg"
 width="347.000000pt" height="346.000000pt" viewBox="0 0 347.000000 346.000000"
 preserveAspectRatio="xMidYMid meet">

<g transform="translate(0.000000,346.000000) scale(0.100000,-0.100000)"
stroke="none">
<path d="M1520 3396 c-562 -81 -1038 -423 -1285 -921 -275 -557 -234 -1183
113 -1705 93 -141 281 -333 422 -433 183 -128 415 -228 650 -278 91 -20 134
-23 325 -23 247 0 333 13 535 80 414 138 766 439 964 824 187 363 238 755 150
1150 -149 667 -679 1171 -1364 1296 -118 22 -391 27 -510 10z m785 -476 l48
-130 61 -29 c79 -37 133 -85 175 -156 60 -100 61 -110 71 -690 8 -477 12 -561
39 -835 17 -168 33 -322 36 -342 l5 -38 -481 0 -481 0 7 90 7 90 -573 2 -574
3 -3 733 -2 732 22 10 c13 6 30 15 40 22 26 19 48 -6 48 -56 0 -42 16 -156 23
-163 4 -3 458 161 488 178 15 8 15 15 2 84 -19 101 -7 150 38 159 51 10 59 7
59 -18 0 -13 9 -35 21 -50 21 -26 21 -28 3 -92 -10 -39 -14 -68 -8 -74 9 -9
461 -180 476 -180 4 0 8 56 8 125 0 68 5 148 11 177 25 117 107 226 216 284
l58 31 49 131 c27 73 52 132 56 132 3 0 28 -58 55 -130z"/>
<path d="M2026 1883 c-6 -388 -12 -527 -32 -738 -13 -143 -24 -263 -24 -267 0
-5 128 -8 285 -8 l285 0 0 28 c0 15 -9 121 -21 237 -17 182 -34 690 -38 1163
l-1 62 -224 0 -223 0 -7 -477z m301 390 c80 -53 66 -192 -24 -229 -49 -21 -96
-11 -140 29 -115 106 32 286 164 200z m-32 -398 c22 -21 25 -33 25 -90 l0 -65
-65 0 -65 0 0 65 c0 57 3 69 25 90 31 31 49 31 80 0z m9 -317 c11 -15 16 -45
16 -85 l0 -63 -65 0 -65 0 0 56 c0 54 12 92 34 106 23 16 65 8 80 -14z"/>
<path d="M1083 2066 l-243 -91 0 -452 0 -453 70 0 70 0 0 385 0 385 85 0 85 0
0 -385 0 -385 55 0 55 0 0 385 0 385 80 0 80 0 0 -385 0 -385 55 0 55 0 0 385
0 385 80 0 80 0 0 -385 0 -385 60 0 c54 0 60 2 65 23 3 12 4 215 3 450 l-3
429 -210 79 c-115 44 -226 85 -245 93 -34 13 -43 11 -277 -78z"/>
</g>
</svg>
