<?xml version="1.0" standalone="no"?>
<!DOCTYPE svg PUBLIC "-//W3C//DTD SVG 20010904//EN"
 "http://www.w3.org/TR/2001/REC-SVG-20010904/DTD/svg10.dtd">
<svg version="1.0" xmlns="http://www.w3.org/2000/svg"
 width="347.000000pt" height="346.000000pt" viewBox="0 0 347.000000 346.000000"
 preserveAspectRatio="xMidYMid meet">

<g transform="translate(0.000000,346.000000) scale(0.100000,-0.100000)"
stroke="none">
<path d="M1485 3340 c-698 -124 -1227 -643 -1367 -1341 -33 -165 -33 -453 0
-618 121 -604 540 -1084 1113 -1275 198 -66 289 -80 524 -81 234 0 347 16 528
76 596 198 1032 709 1132 1329 24 151 22 390 -4 544 -58 329 -212 632 -440
869 -249 257 -526 412 -878 488 -146 31 -457 36 -608 9z m445 -315 l0 -65 70
0 70 0 0 -135 0 -135 -70 0 -70 0 0 -319 0 -318 48 -7 c26 -4 84 -19 130 -34
l82 -28 0 173 0 173 -70 0 -71 0 3 133 3 132 67 3 67 3 3 77 3 77 133 3 132 3
0 -81 0 -80 70 0 70 0 0 -135 0 -134 -67 -3 -68 -3 -3 -236 -2 -237 60 -52 60
-52 0 -110 c0 -94 3 -114 20 -138 36 -51 89 -174 110 -254 17 -69 20 -111 20
-328 l0 -248 -945 0 -945 0 0 234 c0 316 19 407 120 578 39 66 40 68 40 167
l0 100 65 58 65 58 0 217 0 217 -67 3 -68 3 -3 133 -3 132 71 0 70 0 0 80 0
80 135 0 134 0 3 -77 3 -78 68 -3 67 -3 0 -134 0 -135 -70 0 -70 0 0 -155 0
-154 43 15 c23 9 80 24 127 33 l85 18 3 317 2 316 -70 0 -70 0 0 135 0 135 70
0 70 0 0 65 0 65 135 0 135 0 0 -65z"/>
<path d="M1702 1619 c-163 -21 -283 -79 -397 -194 -119 -119 -175 -248 -175
-407 l0 -68 655 0 655 0 0 73 c0 88 -20 170 -62 257 -43 88 -167 213 -263 262
-126 65 -281 94 -413 77z"/>
</g>
</svg>
